<svg width="28" height="28" viewBox="0 0 28 28" fill="none" xmlns="http://www.w3.org/2000/svg">
<path d="M15.8858 3.06071C15.4921 2.40179 14.7756 2 13.999 2C13.2224 2 12.5059 2.40179 12.1121 3.06071L0.298784 22.775C-0.0949941 23.4339 -0.100463 24.2589 0.287846 24.9232C0.676155 25.5875 1.40355 26 2.18564 26H25.8123C26.5944 26 27.3218 25.5875 27.7101 24.9232C28.0984 24.2589 28.0984 23.4393 27.6992 22.775L15.8858 3.06071Z" fill="#A5792B"/>
<path fill-rule="evenodd" clip-rule="evenodd" d="M15.25 15.5V9.5C15.25 8.67157 14.5784 8 13.75 8C12.9216 8 12.25 8.67157 12.25 9.5V15.5C12.25 16.3284 12.9216 17 13.75 17C14.5784 17 15.25 16.3284 15.25 15.5ZM13.75 22C14.7165 22 15.5 21.2165 15.5 20.25C15.5 19.2835 14.7165 18.5 13.75 18.5C12.7835 18.5 12 19.2835 12 20.25C12 21.2165 12.7835 22 13.75 22Z" fill="white"/>
</svg>
