<svg width="100" height="100" viewBox="0 0 100 100" fill="none" xmlns="http://www.w3.org/2000/svg">
<g clip-path="url(#clip0_1675_30815)">
<rect width="100" height="100" fill="white"/>
<g clip-path="url(#clip1_1675_30815)">
<rect width="100" height="100" rx="2.5" fill="white"/>
<path d="M99.9647 6.54867C99.9647 2.93805 97.0339 0 93.4322 0H6.53249C2.93079 0 0 2.93805 0 6.54867V93.4513C0 97.0619 2.93079 100 6.53249 100H93.4675C97.0692 100 100 97.0619 100 93.4513V6.54867H99.9647Z" fill="#4E6086"/>
</g>
<rect x="8.19531" y="11.5818" width="81.2345" height="78.8432" fill="white"/>
<path d="M24.7221 63.389L24.4822 62.7644L21.7051 63.8298L21.945 64.4544C22.2389 65.2194 23.099 65.6042 23.8663 65.3102C24.6335 65.0163 25.016 64.1561 24.7221 63.389Z" fill="#4E6086"/>
<path d="M90.8524 8H8.14758C7.52516 8 7 8.52512 7 9.14969V91.8503C7 92.4749 7.52516 93 8.14758 93H90.8524C91.4749 93 92 92.4749 92 91.8503V9.14969C92 8.52512 91.4749 8 90.8524 8ZM68.7239 31.321C68.7239 34.0137 66.9776 37.2576 64.369 39.1162C62.7373 40.2767 61.0689 40.6786 59.7873 40.2184C59.0309 39.946 58.4819 39.3647 58.1513 38.5543C58.9229 38.0053 67.1333 32.1595 68.7066 31.0378C68.7109 31.1329 68.7239 31.2236 68.7239 31.321ZM68.2765 29.6828L57.7104 37.2057C53.2302 28.76 48.3092 23.2231 43.7555 21.3019C52.6597 20.4114 61.6589 23.4392 68.2765 29.6828ZM56.6687 39.2242C56.6687 39.879 56.4569 40.577 56.0355 41.3054C54.4859 43.9917 50.3774 46.557 45.5688 47.8451C40.7622 49.1331 35.9212 48.9646 33.2348 47.4149C32.4979 46.9893 31.9683 46.4835 31.642 45.9087C33.1051 45.5153 55.2099 39.5938 56.6644 39.2026C56.6644 39.2113 56.6687 39.2178 56.6687 39.2242ZM37.2546 16.8132C37.9376 16.6294 38.6399 17.0358 38.8237 17.7187L39.5866 20.5692C39.1565 20.6016 38.7351 20.673 38.318 20.7854C37.9009 20.8955 37.4989 21.0468 37.1099 21.2326L36.3469 18.3822C36.1632 17.6992 36.5696 16.9969 37.2546 16.8132ZM38.694 21.9696H38.6962C43.6885 20.6318 50.3559 26.6031 56.2041 37.5925L31.3459 44.2532C30.9137 31.8136 33.7016 23.3095 38.694 21.9696ZM34.0237 23.8628C31.0412 27.8004 29.5478 35.0576 29.8914 44.6119L16.9675 43.38C19.5739 34.6599 25.863 27.541 34.0237 23.8628ZM30.0816 46.4662C30.0816 47.1426 29.8655 47.7478 29.444 48.2492C28.5645 49.2865 26.9176 49.7727 24.925 49.5826C21.6205 49.2692 18.3787 47.2009 17.1188 44.7567C19.0292 44.9382 29.0529 45.8956 30.0146 45.9865C30.0362 46.1463 30.0816 46.3149 30.0816 46.4662ZM20.6394 65.0543L19.9239 63.1891L25.4393 61.0733L26.1569 62.9406C26.6323 64.1833 26.213 65.5492 25.2146 66.3271L26.1439 68.7281H24.2983L23.6045 66.9453C22.3424 67.0338 21.1169 66.2968 20.6394 65.0543ZM32.6318 82.8448H24.7434L23.3473 73.4718H34.0279L32.6318 82.8448ZM35.4198 72.2572H21.841V70.1069H35.4198V72.2572ZM40.9179 57.1444C39.9993 56.3318 39.23 56.3362 38.2618 57.166C35.9817 59.1197 33.2931 59.124 30.8531 57.1444C29.9001 56.3708 29.1652 56.3362 28.1992 57.166C25.917 59.1219 23.2285 59.124 20.7906 57.1444C19.8721 56.3318 19.1027 56.3362 18.1345 57.166C16.2305 58.7998 14.039 59.0635 11.9448 57.9548V55.7591C13.6478 57.14 15.3206 57.1487 16.9113 55.7828C18.5927 54.3436 20.4146 54.3436 22.0052 55.7591C23.7104 57.14 25.3831 57.1487 26.9738 55.7828C28.6574 54.3436 30.4166 54.4148 32.0721 55.7591C33.7751 57.14 35.4457 57.1487 37.0363 55.7828C38.7199 54.3436 40.5396 54.3436 42.1324 55.7591C43.172 56.5997 44.1986 56.9304 45.2014 56.751L45.6768 58.5275C44.1013 58.8539 42.4588 58.3958 40.9179 57.1444ZM53.6625 83.0047L44.7 49.5566C45.1149 49.4637 45.5299 49.3664 45.947 49.2541C46.3641 49.1439 46.7726 49.0207 47.1767 48.8932L56.3165 83.0047L53.6625 83.0047ZM87.3534 58.0045C85.3673 59.0591 83.1823 58.7804 81.1703 57.1444C80.2517 56.3319 79.4824 56.3362 78.5141 57.166C76.2362 59.1197 73.5455 59.124 71.1055 57.1444C70.1524 56.3708 69.4176 56.3362 68.4516 57.166C66.1693 59.1219 63.4808 59.124 61.0429 57.1444C60.1245 56.3319 59.3572 56.3362 58.389 57.166C56.109 59.1197 53.4183 59.124 50.9805 57.1444C50.9091 57.0882 50.84 57.0364 50.7708 56.9866L50.1786 54.778C50.8615 54.8925 51.538 55.2232 52.1972 55.7591C53.9002 57.14 55.573 57.1487 57.1636 55.7828C58.845 54.3436 60.667 54.3436 62.2576 55.7591C63.9628 57.14 65.6355 57.1487 67.2262 55.7828C68.9098 54.3436 70.669 54.4148 72.3244 55.7591C74.0275 57.14 75.6981 57.1487 77.2887 55.7828C78.9723 54.3436 80.792 54.3436 82.3848 55.7591C84.09 57.14 85.7606 57.1487 87.3534 55.7828L87.3534 58.0045Z" fill="#4E6086"/>
</g>
<defs>
<clipPath id="clip0_1675_30815">
<rect width="100" height="100" fill="white"/>
</clipPath>
<clipPath id="clip1_1675_30815">
<rect width="100" height="100" rx="2.5" fill="white"/>
</clipPath>
</defs>
</svg>
