<svg width="100" height="100" viewBox="0 0 100 100" fill="none" xmlns="http://www.w3.org/2000/svg">
<g clip-path="url(#clip0_1675_30790)">
<rect width="100" height="100" fill="white"/>
<g clip-path="url(#clip1_1675_30790)">
<rect width="100" height="100" rx="2.5" fill="white"/>
<path d="M99.9647 6.54867C99.9647 2.93805 97.0339 0 93.4322 0H6.53249C2.93079 0 0 2.93805 0 6.54867V93.4513C0 97.0619 2.93079 100 6.53249 100H93.4675C97.0692 100 100 97.0619 100 93.4513V6.54867H99.9647Z" fill="#4E6086"/>
</g>
<path fill-rule="evenodd" clip-rule="evenodd" d="M19.4707 68.812C24.8707 73.292 31.4307 76.492 38.7907 77.812C59.9107 81.652 80.1907 68.892 86.2307 48.812C85.9107 48.932 85.5507 48.932 85.2707 49.012C84.3907 49.172 83.2707 48.572 82.2307 48.412C81.9507 48.332 80.5907 48.772 80.3907 48.892C80.1507 49.052 79.9907 49.172 79.8707 49.452C79.4707 50.452 79.8307 51.732 78.9507 52.092C78.1907 52.452 74.1907 55.572 69.9907 55.012C69.6707 54.972 66.0307 55.172 65.8307 55.132C65.1507 55.012 64.0707 55.092 63.8307 55.412C63.3107 56.092 62.7107 55.732 62.1507 56.052C61.3107 56.492 59.7507 57.252 59.3507 57.412C58.7507 57.692 57.3507 57.132 56.5507 57.452C55.9107 57.692 54.6707 58.652 54.3107 58.892C53.9507 59.132 53.1907 58.852 52.5507 58.972L51.4307 59.252C50.7907 59.412 49.5507 59.812 49.2707 59.812C48.4307 59.852 40.6707 59.412 39.9907 60.212C39.5507 60.692 37.8707 63.492 37.3507 63.852C36.8307 64.212 34.6307 65.732 33.1507 65.492C31.6707 65.212 29.9907 65.052 28.3107 64.812C26.3107 64.532 24.5107 64.932 22.7907 65.492C22.3907 65.612 19.8307 68.132 19.5907 68.652L19.4707 68.812Z" fill="white"/>
<path fill-rule="evenodd" clip-rule="evenodd" d="M20.4308 54.4517L21.9908 54.0517C22.5908 53.8917 22.9908 53.3317 22.9108 52.7317C22.5108 47.9317 25.6708 43.3717 30.5108 42.1717C35.7108 40.8917 40.9508 43.8517 42.5508 48.8917L42.7908 49.9317C42.9508 50.5717 43.6308 50.9717 44.3108 50.8117L57.8308 47.4517C58.4708 47.2517 58.8708 46.6117 58.7108 45.9317L58.4708 44.9317C57.4708 39.7317 60.7108 34.6117 65.9108 33.3317C70.7508 32.0917 75.6708 34.6517 77.5908 39.0917C77.8308 39.6517 78.4308 39.9317 78.9908 39.7717L80.4308 39.4117C80.8708 39.3317 81.1508 38.8917 81.0308 38.4517L80.3108 35.5717C80.1908 35.1317 79.7508 34.8517 79.3108 34.9717L77.6308 35.4117L76.6308 31.4117C75.9108 28.4917 73.5508 27.2917 70.6308 27.8917L57.1508 30.6517L51.5508 23.5717C50.5508 22.2517 48.9508 21.7317 47.3508 22.1317L21.2308 28.6517C19.3508 29.1317 18.1108 30.7317 18.1108 32.6517L18.1508 40.4117L17.4308 37.4917C17.3108 37.0517 16.8708 36.7717 16.4308 36.8917L13.5908 37.6117C13.1508 37.7317 12.9108 38.1717 13.0308 38.6117L15.5908 48.9717C15.7108 49.4117 16.1508 49.6917 16.5908 49.5717L19.4308 48.8517C19.8708 48.7317 20.1508 48.2917 20.0308 47.8517L20.4708 49.6917L19.3108 49.9717C18.8708 50.0917 18.5908 50.5317 18.7108 50.9717L19.4308 53.8517C19.5508 54.2917 19.9908 54.5317 20.4308 54.4517ZM31.7908 37.0117L39.8308 34.9717C40.1908 34.8917 40.4308 34.4917 40.3508 34.1317L38.5508 27.0117C38.4708 26.6517 38.0708 26.4117 37.7108 26.5317L29.6708 28.5317C29.2708 28.6117 29.0708 29.0117 29.1508 29.3717L30.9108 36.4917C31.0308 36.8517 31.3908 37.0917 31.7908 37.0117ZM42.3508 34.3717L54.0308 31.4117C54.2708 31.3717 54.4708 31.2117 54.5508 30.9717C54.6308 30.7317 54.5908 30.5317 54.4308 30.3317C52.9508 28.4517 51.4708 26.5717 49.9908 24.6917C49.9508 24.6517 49.9508 24.6517 49.9508 24.6517C49.4308 24.0917 48.7508 23.8517 47.8308 23.9717C47.8308 24.0117 47.7908 24.0117 47.7908 24.0117L40.9108 25.7317C40.5508 25.8117 40.3108 26.2117 40.4308 26.5717L42.3508 34.3717ZM66.2708 34.7717C70.8708 33.6117 75.5108 36.4117 76.6708 41.0117C77.7908 45.6117 75.0308 50.2517 70.4308 51.3717C65.8308 52.5317 61.1908 49.7317 60.0308 45.1717C58.9108 40.5717 61.6708 35.9317 66.2708 34.7717ZM30.8708 43.6117C35.4708 42.4917 40.1108 45.2517 41.2708 49.8517C42.3908 54.4517 39.6308 59.0917 35.0308 60.2517C30.4308 61.3717 25.7908 58.6117 24.6308 54.0117C23.5108 49.4117 26.2708 44.7717 30.8708 43.6117ZM67.2308 38.6917C69.6708 38.0517 72.1508 39.5317 72.7508 41.9717C73.3508 44.4117 71.8708 46.8917 69.4308 47.4917C67.0308 48.0917 64.5508 46.6117 63.9508 44.1717C63.3508 41.7317 64.8308 39.2917 67.2308 38.6917ZM31.8308 47.5317C34.2708 46.9317 36.7508 48.4117 37.3508 50.8117C37.9508 53.2517 36.4708 55.7317 34.0708 56.3317C31.6308 56.9317 29.1508 55.4517 28.5508 53.0517C27.9508 50.6117 29.4308 48.1317 31.8308 47.5317ZM67.9908 41.6117C68.7908 41.4117 69.6308 41.8917 69.8308 42.6917C70.0308 43.5317 69.5508 44.3717 68.7108 44.5717C67.9108 44.7717 67.0708 44.2517 66.8708 43.4517C66.6708 42.6517 67.1508 41.8117 67.9908 41.6117ZM32.5908 50.4517C33.3908 50.2517 34.2308 50.7317 34.4308 51.5717C34.6308 52.3717 34.1508 53.2117 33.3108 53.4117C32.5108 53.6117 31.6708 53.1317 31.4708 52.2917C31.2708 51.4917 31.7508 50.6517 32.5908 50.4517Z" fill="white"/>
<path fill-rule="evenodd" clip-rule="evenodd" d="M44.0318 25.8906C45.4318 25.8906 46.5118 27.0106 46.5118 28.3706C46.5118 29.7306 45.4318 30.8506 44.0318 30.8506C42.6718 30.8506 41.5918 29.7306 41.5918 28.3706C41.5918 27.0106 42.6718 25.8906 44.0318 25.8906Z" fill="white"/>
<path d="M43.3918 33.8928C42.9118 32.8928 43.6718 31.4128 44.6718 30.8928C45.3118 30.5728 46.0318 30.6128 46.5918 30.9328C47.6318 31.4928 52.6718 36.3728 53.9918 37.5328C54.5118 38.5728 53.2318 45.1328 52.2318 45.6528C51.2318 46.1728 49.9918 45.7728 49.4718 44.7728L43.3918 33.8928Z" fill="white"/>
</g>
<defs>
<clipPath id="clip0_1675_30790">
<rect width="100" height="100" fill="white"/>
</clipPath>
<clipPath id="clip1_1675_30790">
<rect width="100" height="100" rx="2.5" fill="white"/>
</clipPath>
</defs>
</svg>
