<svg width="100" height="100" viewBox="0 0 100 100" fill="none" xmlns="http://www.w3.org/2000/svg">
<g clip-path="url(#clip0_1675_30890)">
<rect width="100" height="100" fill="white"/>
<g clip-path="url(#clip1_1675_30890)">
<rect width="100" height="100" rx="2.5" fill="white"/>
<path d="M99.9647 6.54867C99.9647 2.93805 97.0339 0 93.4322 0H6.53249C2.93079 0 0 2.93805 0 6.54867V93.4513C0 97.0619 2.93079 100 6.53249 100H93.4675C97.0692 100 100 97.0619 100 93.4513V6.54867H99.9647Z" fill="#4E6086"/>
</g>
<path fill-rule="evenodd" clip-rule="evenodd" d="M17.7109 50.5347L31.7088 40.269L36.627 26.1371L51.8861 16.27L83.2869 41.3352L69.4146 50.9358L64.1185 65.7328L48.8596 75.732L17.7109 50.5347Z" fill="white"/>
<path fill-rule="evenodd" clip-rule="evenodd" d="M16.1731 50.7505L30.8281 40.0023L35.9768 25.2062L51.9523 14.8773L84.8269 41.1187L70.3037 51.169L64.7589 66.6622L48.7838 77.1314L16.1731 50.7505ZM13 51.189L29.0096 39.4476L34.6344 23.2837L52.0865 12L88 40.6672L72.1344 51.6464L66.0769 68.5715L48.625 80.0087L13 51.189Z" fill="white"/>
<path fill-rule="evenodd" clip-rule="evenodd" d="M26.5946 57.3688L40.7685 46.9734L45.7487 32.6614L61.1998 22.6718L60.5917 22.1819L45.1406 32.1715L40.1605 46.4811L25.9863 56.8765L26.5946 57.3688Z" fill="#4E6086"/>
<path fill-rule="evenodd" clip-rule="evenodd" d="M38.4208 66.3628L52.5947 55.9674L57.5749 41.6578L73.0259 31.6682L72.4179 31.1759L56.9668 41.168L51.9866 55.4776L37.8125 65.873L38.4208 66.3628Z" fill="#4E6086"/>
<path fill-rule="evenodd" clip-rule="evenodd" d="M45.157 20.241L76.7435 45.0949L76.1666 45.5536L44.5801 20.6973L45.157 20.241Z" fill="#4E6086"/>
<path fill-rule="evenodd" clip-rule="evenodd" d="M34.7781 32.747L66.3646 57.6009L65.7877 58.0595L34.2012 33.2032L34.7781 32.747Z" fill="#4E6086"/>
<path fill-rule="evenodd" clip-rule="evenodd" d="M24.1023 46.0073L55.6889 70.8612L55.1119 71.3199L23.5254 46.466L24.1023 46.0073Z" fill="#4E6086"/>
<path fill-rule="evenodd" clip-rule="evenodd" d="M37.6609 24.9651L69.2474 49.8214L68.6705 50.2776L37.084 25.4238L37.6609 24.9651Z" fill="#4E6086"/>
<path fill-rule="evenodd" clip-rule="evenodd" d="M31.6023 40.2139L63.1889 65.0702L62.6119 65.5265L31.0254 40.6726L31.6023 40.2139Z" fill="#4E6086"/>
<path d="M36.7269 81.5293C45.9271 81.5293 53.3854 74.5658 53.3854 65.9759C53.3854 57.3859 45.9271 50.4224 36.7269 50.4224C27.5266 50.4224 20.0684 57.3859 20.0684 65.9759C20.0684 74.5658 27.5266 81.5293 36.7269 81.5293Z" fill="white"/>
<path fill-rule="evenodd" clip-rule="evenodd" d="M37.0151 50.0342C46.453 50.0342 54.1065 56.6614 54.1065 64.8332C54.1065 73.0052 46.453 79.6322 37.0151 79.6322C27.5774 79.6322 19.9238 73.0052 19.9238 64.8332C19.9238 56.6614 27.5774 50.0342 37.0151 50.0342ZM37.0151 50.6004C45.7361 50.6004 52.8084 56.8492 52.8084 64.5542C52.8084 72.2596 45.7361 78.5081 37.0151 78.5081C28.2942 78.5081 21.2219 72.2596 21.2219 64.5542C21.2219 56.8492 28.2942 50.6004 37.0151 50.6004Z" fill="white"/>
<path fill-rule="evenodd" clip-rule="evenodd" d="M20.0684 66.1656C20.0684 69.5203 20.0684 72.875 20.0684 76.2297C24.9901 90.3087 48.4636 90.8168 53.8184 76.3821C53.8184 72.9765 53.8184 69.7235 53.8184 66.3181C51.9915 84.3114 22.2797 85.9887 20.0684 66.1656Z" fill="white"/>
<path fill-rule="evenodd" clip-rule="evenodd" d="M37.0166 59.9108C41.0519 59.9108 44.3244 62.7444 44.3244 66.2383C44.3244 69.7323 41.0519 72.5659 37.0166 72.5659C32.9815 72.5659 29.709 69.7323 29.709 66.2383C29.709 62.7444 32.9815 59.9108 37.0166 59.9108ZM37.0166 60.1529C40.7455 60.1529 43.7693 62.8246 43.7693 66.119C43.7693 69.4136 40.7455 72.0851 37.0166 72.0851C33.288 72.0851 30.2641 69.4136 30.2641 66.119C30.2641 62.8246 33.288 60.1529 37.0166 60.1529Z" fill="#4E6086"/>
<path fill-rule="evenodd" clip-rule="evenodd" d="M37.012 54.5312C45.6533 54.5312 52.6609 60.1669 52.6609 67.1159C52.6609 74.0652 45.6533 79.7004 37.012 79.7004C28.3711 79.7004 21.3633 74.0652 21.3633 67.1159C21.3633 60.1669 28.3711 54.5312 37.012 54.5312ZM37.012 55.0127C44.9971 55.0127 51.4725 60.3266 51.4725 66.8787C51.4725 73.431 44.9971 78.7447 37.012 78.7447C29.0273 78.7447 22.5519 73.431 22.5519 66.8787C22.5519 60.3266 29.0273 55.0127 37.012 55.0127Z" fill="#4E6086"/>
<path fill-rule="evenodd" clip-rule="evenodd" d="M39.1349 65.4307L36.8052 65.4764L34.8591 67.4719L31.5586 56.8603L39.1349 65.4307Z" fill="#4E6086"/>
<path fill-rule="evenodd" clip-rule="evenodd" d="M35.9863 67.7664L41.4578 74.0267L39.0956 66.4L38.3519 66.7554L41.1041 73.7217L36.3432 66.7674L35.9863 67.7664Z" fill="#4E6086"/>
<path fill-rule="evenodd" clip-rule="evenodd" d="M37.0151 50.7337C46.453 50.7337 54.1065 57.2053 54.1065 65.1847C54.1065 73.1649 46.453 79.6362 37.0151 79.6362C27.5774 79.6362 19.9238 73.1649 19.9238 65.1847C19.9238 57.2053 27.5774 50.7337 37.0151 50.7337ZM37.0151 51.2865C45.7361 51.2865 52.8084 57.3885 52.8084 64.9124C52.8084 72.4368 45.7361 78.5386 37.0151 78.5386C28.2942 78.5386 21.2219 72.4368 21.2219 64.9124C21.2219 57.3885 28.2942 51.2865 37.0151 51.2865Z" fill="#4E6086"/>
</g>
<defs>
<clipPath id="clip0_1675_30890">
<rect width="100" height="100" fill="white"/>
</clipPath>
<clipPath id="clip1_1675_30890">
<rect width="100" height="100" rx="2.5" fill="white"/>
</clipPath>
</defs>
</svg>
