<svg width="100" height="100" viewBox="0 0 100 100" fill="none" xmlns="http://www.w3.org/2000/svg">
<g clip-path="url(#clip0_1675_30856)">
<rect width="100" height="100" fill="white"/>
<g clip-path="url(#clip1_1675_30856)">
<rect width="100" height="100" rx="2.5" fill="white"/>
<path d="M99.9647 6.54867C99.9647 2.93805 97.0339 0 93.4322 0H6.53249C2.93079 0 0 2.93805 0 6.54867V93.4513C0 97.0619 2.93079 100 6.53249 100H93.4675C97.0692 100 100 97.0619 100 93.4513V6.54867H99.9647Z" fill="#4E6086"/>
</g>
<rect x="7.13672" y="11.7238" width="84.8162" height="76.4541" fill="white"/>
<path d="M90.8503 8H8.14976C7.52519 8 7 8.52519 7 9.14976V91.8503C7 92.4727 7.52519 93 8.14976 93H90.8503C91.4749 93 92 92.4727 92 91.8503V9.14976C92 8.52519 91.4749 8 90.8503 8ZM83.2538 61.2615C83.3728 62.1691 83.1307 63.0682 82.5753 63.7943C82.2878 64.1682 81.9334 64.4707 81.5336 64.6955C80.7643 64.3735 79.9473 64.2071 79.098 64.2071C77.9785 64.2071 76.8072 64.4945 75.6164 65.065C74.4602 65.6183 73.4466 65.7588 72.5195 65.467C72.9669 64.7473 73.2737 64.0709 73.4207 63.5026C73.7859 63.5868 74.1684 63.6366 74.5358 63.6366C75.0804 63.6366 75.5645 63.535 75.9773 63.334C76.6537 63.0077 76.9628 62.2123 76.6861 61.5122L76.3771 60.7363L78.1903 58.4714L79.407 58.3093C79.5583 58.2899 79.7118 58.2812 79.8609 58.2812C81.5703 58.2812 83.0291 59.5606 83.2538 61.2615ZM69.7553 43.11C70.9073 41.6555 72.9733 41.3725 74.3651 42.4789C75.7612 43.5854 75.9557 45.658 74.8017 47.1124C73.6476 48.5669 71.5837 48.85 70.1898 47.7435C68.7958 46.6391 68.6013 44.5644 69.7553 43.11ZM70.1725 49.44C70.1789 49.4465 70.1854 49.4529 70.1898 49.4595C70.1941 49.4616 70.1962 49.4616 70.2006 49.4638C70.2114 49.4746 70.2179 49.4854 70.2265 49.494C70.7192 49.95 70.9937 50.5551 71.0456 51.1775L72.8977 55.8392C72.9063 55.8672 72.9128 55.8953 72.9215 55.9234L74.3154 59.4353L76.7899 56.3427L79.299 53.2068L74.27 52.5888C74.2397 52.5888 74.2116 52.5909 74.1814 52.5888L72.7183 52.4072C72.4546 51.7416 72.2342 51.1862 72.1672 51.0154C72.1024 50.5335 71.9403 50.0732 71.6874 49.6669L74.4969 50.0149C74.5272 50.017 74.5531 50.0278 74.5812 50.0321L79.0007 50.5768C79.7961 50.6934 81.1057 51.8605 80.8031 53.3927L80.4466 53.3473L77.5744 56.9413L74.7346 60.4921L75.3506 62.0438C74.6871 62.3636 73.5525 62.141 73.0273 61.8385C72.5022 61.5359 72.2493 61.1945 72.1715 61.0129L70.529 56.8786C70.5161 56.8505 70.4988 56.8246 70.4858 56.7965L69.455 54.1988L67.9746 55.8002L62.3901 54.3047L66.5136 49.6842C67.4559 48.6079 69.0962 48.4977 70.1725 49.44ZM54.3118 39.6067C54.7029 37.7914 56.4319 36.6265 58.1694 37.0048C59.9091 37.3808 60.9984 39.1551 60.6072 40.9705C60.2139 42.7836 58.4849 43.9485 56.7474 43.5725C55.0098 43.1964 53.9185 41.4221 54.3118 39.6067ZM54.0243 47.0022C54.3637 45.7271 55.5998 44.9319 56.8749 45.1069L61.489 44.3613L63.8079 41.1174C64.292 40.4755 65.9431 39.8813 67.1425 40.8797L66.7535 41.4265L66.5417 46.2458L66.4704 47.8926C66.0879 48.1108 65.74 48.3896 65.446 48.7225L65.5562 46.2285L65.7032 42.8938L63.3173 46.2328C63.1249 46.5441 62.8116 46.7753 62.4226 46.838L59.103 47.3739C59.1398 47.6895 59.1203 48.0179 59.0339 48.3464L57.7674 53.0685L52.7579 51.7243L54.0243 47.0022ZM41.3773 35.507C42.5314 34.0526 44.5953 33.7695 45.9892 34.876C47.3831 35.9825 47.5777 38.0551 46.4258 39.5095C45.2717 40.9661 43.2057 41.2471 41.8139 40.1406C40.42 39.0362 40.2255 36.9637 41.3773 35.507ZM41.7944 41.8393C41.8009 41.8435 41.8074 41.85 41.8139 41.8565C41.8161 41.8586 41.8203 41.8608 41.8247 41.863C41.8333 41.8716 41.8398 41.8825 41.8506 41.8911C42.3433 42.3471 42.6179 42.9522 42.6675 43.5768L44.5197 48.2384C44.5304 48.2643 44.5348 48.2946 44.5434 48.3205L45.9373 51.8324L48.4119 48.742L50.9231 45.6061L45.8941 44.988C45.8639 44.9859 45.8358 44.9901 45.8034 44.9859L44.3424 44.8043C44.0766 44.1387 43.8562 43.5832 43.7892 43.4126C43.7265 42.9306 43.5622 42.4703 43.3094 42.0661L46.1211 42.4119C46.1513 42.4163 46.1773 42.4249 46.2032 42.4314L50.6249 42.9738C51.418 43.0905 52.7276 44.2575 52.4273 45.7898L52.0685 45.7466L49.1985 49.3384L46.3588 52.8913L46.9747 54.4409C46.309 54.7629 45.1744 54.5403 44.6493 54.2356C44.1241 53.933 43.8735 53.5937 43.7956 53.41L42.151 49.2779C42.1381 49.2476 42.1208 49.2239 42.11 49.1958L41.0769 46.5959L39.5966 48.1995L34.0122 46.7039L38.1356 42.0813C39.08 41.005 40.7182 40.8948 41.7944 41.8393ZM37.6018 37.759C37.4635 38.4613 36.7849 38.9217 36.0804 38.7855L33.312 38.2474L31.823 46.1161C30.8267 45.8503 30.1827 45.6774 29.9946 45.6277C29.3247 45.1133 27.9761 44.0781 27.0641 43.3779L28.2181 37.2706C28.4689 35.9501 29.6791 35.0683 30.9909 35.1807C31.0298 35.1807 31.0708 35.1894 31.1098 35.1915C31.1573 35.1981 31.2005 35.1959 31.2481 35.2045H31.2546L36.5775 36.2397C37.2799 36.3758 37.738 37.0566 37.6018 37.759ZM27.9999 30.5105C28.257 28.6735 29.8931 27.3833 31.6544 27.6275C33.4178 27.8739 34.6346 29.5618 34.3817 31.4009C34.1245 33.2379 32.4886 34.528 30.7272 34.2817C28.9659 34.0375 27.747 32.3496 27.9999 30.5105ZM12.1457 42.3968C12.1154 42.2433 12.1198 42.0705 12.3273 41.9495C12.4634 41.8738 13.9005 41.0137 15.3723 40.7284C17.568 40.3048 19.5174 40.5512 20.0987 41.1606L20.9372 41.0007L23.6732 36.6416C23.8548 36.2613 24.2179 35.9782 24.6652 35.9177L27.4012 35.5481C27.116 35.9804 26.9085 36.4709 26.8091 37.0026L26.5671 38.2776L25.6031 38.4073L24.3907 40.3415L23.9585 41.0288L23.5544 41.6728C23.4291 41.662 23.3015 41.6577 23.1762 41.6577C21.899 41.6577 20.6368 42.1569 19.6989 43.1164C18.3417 43.6373 16.9435 44.1235 16.0617 44.2943C15.3161 44.4412 14.2529 44.5147 14.1405 44.4758C13.2955 44.1516 12.7638 43.4989 12.2192 42.548C12.1889 42.4919 12.1565 42.453 12.1457 42.3968ZM38.8899 57.179C38.4295 57.6826 38.0449 58.251 37.7359 58.7761C37.5327 58.5384 37.3339 58.2899 37.1416 58.024C36.115 56.4702 34.9847 56.1762 33.2428 57.0104C29.1345 58.9814 25.1904 57.9289 22.3917 54.0734C21.2981 52.5628 20.237 52.2235 18.493 53.0599C16.522 54.0043 14.5921 54.2463 12.807 53.8249V50.9333C14.1426 51.452 15.6251 51.3266 17.2417 50.5507C20.2716 49.1028 22.8218 49.9002 24.7214 52.5174C26.6751 55.2124 29.1236 55.8801 31.9894 54.5035C35.0192 53.0534 37.6883 53.7687 39.4669 56.468C39.4842 56.4918 39.5036 56.5134 39.5209 56.5372C39.3091 56.7425 39.0974 56.9543 38.8899 57.179ZM34.9307 52.3337C33.7831 52.3337 32.5837 52.6276 31.367 53.209C29.1431 54.2787 27.4379 53.8184 25.8819 51.6746C24.3778 49.5998 22.4565 48.4761 20.3148 48.4069C20.0317 47.979 19.8437 47.4906 19.7746 46.9698C19.6557 46.0621 19.8978 45.1609 20.4553 44.4347C21.108 43.5832 22.0999 43.0927 23.1762 43.0927C23.9347 43.0927 24.6566 43.3391 25.2595 43.8015L29.1215 46.7666L29.3484 46.9395L29.625 47.0151C30.1869 47.1642 34.8269 48.4069 40.9084 50.0364L42.4601 53.9395C42.4644 53.9524 42.4688 53.9632 42.4752 53.974C42.5249 54.0907 42.5898 54.2074 42.6654 54.3241C42.0408 54.5921 41.3298 55.0243 40.6058 55.5905C39.1687 53.4597 37.2085 52.3337 34.9307 52.3337ZM67.2679 64.7819C66.9891 65.0866 66.7363 65.4173 66.5136 65.7458C65.5217 64.3561 64.413 64.1141 62.7403 64.9137C58.632 66.8847 54.6879 65.8344 51.8913 61.9746C50.7956 60.4683 49.7345 60.1268 47.9905 60.9632C45.5397 62.1388 43.1516 62.2296 41.0272 61.3025C41.3579 61.0604 42.1467 60.3645 42.6697 59.7897C42.8815 59.5584 43.076 59.325 43.2619 59.0938C44.3403 59.2623 45.5008 59.0506 46.7391 58.4563C49.7713 57.0061 52.3214 57.8036 54.2189 60.4207C56.1726 63.1157 58.6211 63.7856 61.489 62.409C64.2271 61.0971 66.6692 61.5618 68.4262 63.6538C68.0329 63.9953 67.6439 64.3713 67.2679 64.7819ZM64.4303 60.237C63.2827 60.237 62.0833 60.5309 60.8666 61.1144C58.6427 62.1821 56.9355 61.7217 55.3816 59.5779C53.8277 57.4362 51.8286 56.3038 49.6027 56.3038C48.481 56.3038 47.3097 56.5912 46.1189 57.1617C45.449 57.4837 44.8266 57.6631 44.2387 57.7041C44.6342 57.045 44.9065 56.4269 45.0426 55.8996C45.4079 55.986 45.7904 56.0336 46.1599 56.0336C46.7024 56.0336 47.1865 55.932 47.5993 55.7332C48.2779 55.4047 48.5869 54.6094 48.3081 53.9114L48.0013 53.1355L48.7901 52.1479C54.0028 53.5439 59.438 55.0006 63.9311 56.2043C65.1521 56.5328 66.3062 56.8419 67.3651 57.125C68.0459 57.3065 68.6877 57.4794 69.2864 57.6393L70.8381 61.5423C70.8424 61.5553 70.8467 61.5661 70.8532 61.5791C70.9029 61.6958 70.9677 61.8104 71.0412 61.9248C70.5852 62.1215 70.0838 62.4068 69.563 62.7655C68.1906 61.108 66.4337 60.237 64.4303 60.237ZM87.4681 73.7398C85.1686 73.4956 83.0701 72.2011 81.3888 69.88C80.2952 68.3715 79.2319 68.0323 77.4901 68.8664C74.6806 70.2129 71.9532 70.148 69.6127 68.7411C70.0017 68.4256 70.6154 67.8659 71.0477 67.3925C71.2659 67.1548 71.467 66.915 71.6571 66.6772C73.0316 67.265 74.5617 67.1635 76.2366 66.3595C79.2687 64.9116 81.821 65.709 83.7185 68.3262C84.8164 69.839 86.0698 70.7143 87.4681 70.9455L87.4681 73.7398Z" fill="#4E6086"/>
</g>
<defs>
<clipPath id="clip0_1675_30856">
<rect width="100" height="100" fill="white"/>
</clipPath>
<clipPath id="clip1_1675_30856">
<rect width="100" height="100" rx="2.5" fill="white"/>
</clipPath>
</defs>
</svg>
