<svg width="100" height="100" viewBox="0 0 100 100" fill="none" xmlns="http://www.w3.org/2000/svg">
<g clip-path="url(#clip0_1675_30861)">
<rect width="100" height="100" fill="white"/>
<g clip-path="url(#clip1_1675_30861)">
<rect width="100" height="100" rx="2.5" fill="white"/>
<path d="M99.9647 6.54867C99.9647 2.93805 97.0339 0 93.4322 0H6.53249C2.93079 0 0 2.93805 0 6.54867V93.4513C0 97.0619 2.93079 100 6.53249 100H93.4675C97.0692 100 100 97.0619 100 93.4513V6.54867H99.9647Z" fill="#4E6086"/>
</g>
<path d="M43.7345 26.3244C43.7345 26.3244 41.865 25.4616 40.2113 24.7425C38.5576 23.9516 36.5444 24.7425 35.8254 26.3963C35.0344 28.05 31.9427 35.0244 31.8708 35.1682C31.7989 35.3839 31.727 35.5277 31.727 35.7434C31.727 36.4624 32.0146 37.1095 32.6617 37.469C31.8708 39.2666 31.727 39.4823 31.5113 39.9856C30.9361 41.2798 31.5113 42.7897 32.8055 43.3649C34.0997 43.9401 35.9692 44.8029 35.9692 44.8029L43.8064 26.2525L43.7345 26.3244Z" fill="white"/>
<path d="M71.4164 67.5226L67.318 28.2646C67.4618 26.7547 66.599 25.101 64.8734 24.2382L61.0627 32.5787C61.0627 32.5787 53.0097 28.9836 52.3626 28.4803C51.4998 28.1208 50.4932 27.3299 48.3362 28.0489C46.1791 28.7679 45.3163 30.8531 45.3163 30.925C45.3163 30.925 39.6362 44.2266 39.2047 45.2333C38.7733 46.168 38.5576 47.1027 38.4857 48.1093C38.4857 48.6845 38.3419 53.3581 38.3419 57.4564C38.1262 59.6854 37.9824 61.3391 37.9824 61.3391L34.8188 73.9218L41.0023 71.6209C41.0023 71.6209 43.8783 62.6333 44.0221 62.13C44.1659 61.6267 44.3097 61.1953 44.3097 60.6201C44.3097 60.3325 44.5254 57.3126 44.6692 54.2209C44.7411 52.9267 44.813 51.9919 44.813 51.9919L54.4478 55.8027C54.7354 58.2473 55.8858 68.673 56.3172 73.2027L61.7098 71.2614C61.7098 71.2614 59.8403 55.2275 59.5527 52.4953C59.5527 52.4234 59.5527 51.8481 59.1932 51.5605C58.8337 51.201 58.1866 50.9134 58.1866 50.9134C57.8271 50.8415 50.9246 47.8217 48.1924 46.5994L53.513 34.5919C53.513 34.5919 61.9974 38.4746 62.2131 38.5465C62.4288 38.6184 62.6445 38.6903 62.8602 38.5465C63.0759 38.4746 63.2916 38.3308 63.3635 38.1151C63.3635 38.1151 63.3635 38.1151 63.3635 38.0432L64.442 35.5985L68.2528 68.673L71.5602 67.5226H71.4164Z" fill="white"/>
<path d="M51.4285 17.337C53.226 14.8924 56.6054 14.2453 58.9781 15.9709C61.4227 17.6965 61.926 21.0759 60.1285 23.5924C58.331 26.109 54.9516 26.6842 52.5789 24.9585C50.1343 23.2329 49.631 19.8536 51.4285 17.337Z" fill="white"/>
<path d="M77.5993 71.4782L45.7472 83.7014L46.1067 79.7469L75.0828 68.6022C76.4489 68.0989 76.377 66.6609 76.8803 65.0072C76.8803 65.0072 77.0241 64.5038 77.3117 64.5038C77.3117 64.5038 79.7563 64.5038 80.0439 64.6476C80.2596 64.6476 80.4034 64.8634 80.4034 65.0791C80.4034 65.0791 80.4034 65.0791 80.4034 65.151V65.2229C80.1158 68.746 79.3249 70.7592 77.5993 71.4063V71.4782Z" fill="white"/>
<path d="M50.8521 73.7768L19 86L19.3595 82.0454L48.3356 70.9008C49.7017 70.3975 49.6298 68.9595 50.1331 67.3057C50.1331 67.3057 50.2769 66.8024 50.5645 66.8024C50.5645 66.8024 53.0092 66.8024 53.2968 66.9462C53.5125 66.9462 53.6563 67.1619 53.6563 67.3776C53.6563 67.3776 53.6563 67.3776 53.6563 67.4495V67.5214C53.3687 71.0446 52.5778 73.0578 50.8521 73.7049V73.7768Z" fill="white"/>
</g>
<defs>
<clipPath id="clip0_1675_30861">
<rect width="100" height="100" fill="white"/>
</clipPath>
<clipPath id="clip1_1675_30861">
<rect width="100" height="100" rx="2.5" fill="white"/>
</clipPath>
</defs>
</svg>
