<svg width="1037" height="302" viewBox="0 0 1037 302" fill="none" xmlns="http://www.w3.org/2000/svg">
<path d="M17.121 96.5935V30.6676C17.121 13.222 16.5687 10.1001 9.02074 9.18195L3.12964 8.4474C1.84097 7.52921 1.84097 4.59101 3.31374 3.85646C13.6232 2.93827 26.3258 2.38735 44.3673 2.38735C55.7813 2.38735 66.643 3.30554 75.1114 7.89649C83.9481 12.4874 90.3914 20.7511 90.3914 33.6058C90.3914 51.0514 76.5842 60.6005 67.3794 64.2733C66.4589 65.3751 67.3794 67.2115 68.2999 68.6806C83.0276 92.3699 92.7847 107.061 105.303 117.528C108.433 120.283 113.035 122.303 118.006 122.67C118.926 123.037 119.111 124.506 118.19 125.241C116.533 125.792 113.588 126.159 110.09 126.159C94.4416 126.159 85.0526 121.568 71.9818 103.021C67.1953 96.2262 59.6473 83.5552 53.9403 75.2915C51.1789 71.2515 48.2333 69.4151 40.8695 69.4151C32.5851 69.4151 32.2169 69.5988 32.2169 73.4552V96.5935C32.2169 115.875 32.5851 118.079 43.2627 119.548L47.1287 120.099C48.2333 121.017 47.8651 124.139 46.7605 124.69C38.4762 124.323 32.2169 124.139 24.853 124.139C17.121 124.139 10.4935 124.323 1.84097 124.69C0.736387 124.139 0.368193 121.385 1.47277 120.099L6.07519 119.548C16.7528 118.263 17.121 115.875 17.121 96.5935ZM32.2169 13.9565V56.9278C32.2169 60.2332 32.2169 62.2533 32.7692 62.9878C33.3215 63.5387 36.0829 63.906 45.4719 63.906C52.0993 63.906 59.095 63.1714 64.4338 59.1314C69.4044 55.275 73.6387 48.8477 73.6387 36.3603C73.6387 21.853 64.6179 8.08013 44.1832 8.08013C32.7692 8.08013 32.2169 8.81468 32.2169 13.9565Z" fill="white"/>
<path d="M162.631 77.1279H128.573C123.787 77.1279 123.603 77.4952 123.603 82.0861C123.603 100.634 134.464 116.426 154.163 116.426C160.238 116.426 165.393 114.59 171.1 107.428C172.941 106.877 174.229 107.979 174.413 109.632C168.338 122.119 155.083 126.71 145.51 126.71C133.544 126.71 124.155 121.568 118.816 114.59C113.293 107.428 111.084 98.7972 111.084 90.7171C111.084 68.1297 125.996 49.215 148.087 49.215C163.92 49.215 174.229 60.0496 174.229 71.0679C174.229 73.6388 173.861 75.1079 173.493 75.8425C172.941 76.9443 170.363 77.1279 162.631 77.1279ZM126.916 71.6188H139.987C153.61 71.6188 157.661 70.8842 159.133 69.7824C159.686 69.4151 160.238 68.6806 160.238 66.2933C160.238 61.1514 156.74 54.7241 146.062 54.7241C135.201 54.7241 125.812 64.6406 125.628 70.7006C125.628 71.0679 125.628 71.6188 126.916 71.6188Z" fill="white"/>
<path d="M223.396 49.215C227.631 49.215 234.81 50.1332 239.781 52.3368C241.254 53.6223 242.542 56.5605 242.542 59.6823C242.542 62.9878 240.701 66.4769 238.492 66.4769C237.572 66.4769 236.651 66.1097 235.915 65.1915C231.865 60.2332 225.053 55.4587 217.505 55.4587C204.618 55.4587 192.1 65.5587 192.1 85.0243C192.1 99.3481 202.041 116.426 221.74 116.426C232.417 116.426 237.94 111.652 242.174 105.408C243.647 105.041 245.304 106.326 245.488 107.979C239.229 121.568 225.421 126.71 214.744 126.71C204.987 126.71 195.966 123.588 189.523 117.345C183.079 111.101 178.845 102.103 178.845 90.1662C178.845 70.3333 192.836 49.215 223.396 49.215Z" fill="white"/>
<path d="M258.555 103.572V71.4352C258.555 64.2733 258.555 63.3551 253.584 60.0496L251.927 58.9478C251.191 58.2132 251.191 56.1932 252.112 55.6423C256.346 54.1732 266.103 49.3986 270.705 46.6441C271.626 46.8277 272.178 47.195 272.178 47.9295V58.5805C272.178 59.4987 272.362 60.0496 272.73 60.2332C279.174 54.9077 286.169 49.215 292.981 49.215C297.583 49.215 301.265 52.1532 301.265 56.5605C301.265 62.6205 296.295 65.0078 293.349 65.0078C291.508 65.0078 290.588 64.4569 289.299 63.7224C286.538 61.886 283.776 60.7842 281.199 60.7842C278.253 60.7842 276.044 62.4369 274.571 64.4569C272.73 67.0278 272.178 72.3533 272.178 78.597V103.572C272.178 116.794 272.546 118.997 279.542 119.548L286.169 120.099C287.458 121.017 287.09 124.139 285.801 124.69C277.149 124.323 271.81 124.139 265.367 124.139C258.739 124.139 253.216 124.323 248.43 124.69C247.141 124.139 246.773 121.017 248.061 120.099L251.559 119.548C258.371 118.446 258.555 116.794 258.555 103.572Z" fill="white"/>
<path d="M352.417 77.1279H318.359C313.573 77.1279 313.389 77.4952 313.389 82.0861C313.389 100.634 324.251 116.426 343.949 116.426C350.024 116.426 355.179 114.59 360.886 107.428C362.727 106.877 364.015 107.979 364.199 109.632C358.124 122.119 344.869 126.71 335.296 126.71C323.33 126.71 313.941 121.568 308.602 114.59C303.079 107.428 300.87 98.7972 300.87 90.7171C300.87 68.1297 315.782 49.215 337.874 49.215C353.706 49.215 364.015 60.0496 364.015 71.0679C364.015 73.6388 363.647 75.1079 363.279 75.8425C362.727 76.9443 360.149 77.1279 352.417 77.1279ZM316.703 71.6188H329.773C343.397 71.6188 347.447 70.8842 348.919 69.7824C349.472 69.4151 350.024 68.6806 350.024 66.2933C350.024 61.1514 346.526 54.7241 335.849 54.7241C324.987 54.7241 315.598 64.6406 315.414 70.7006C315.414 71.0679 315.414 71.6188 316.703 71.6188Z" fill="white"/>
<path d="M383.727 94.0226L405.635 86.1262C408.396 85.208 408.764 83.5552 408.764 80.8007L408.948 72.3533C409.132 65.5587 406.923 56.3769 395.509 56.3769C390.355 56.3769 384.095 58.9478 383.727 64.6406C383.543 67.5788 383.359 69.7824 381.886 70.8842C379.125 73.0879 374.154 74.3734 371.393 74.3734C369.736 74.3734 368.815 73.4552 368.815 71.8024C368.815 62.2533 389.618 49.215 403.057 49.215C416.312 49.215 422.756 56.9278 422.203 70.7006L421.099 102.654C420.731 111.101 422.387 118.63 429.567 118.63C431.408 118.63 433.065 118.079 434.17 117.528C435.09 116.977 436.011 116.243 436.563 116.243C437.299 116.243 437.852 117.345 437.852 118.63C437.852 119.548 431.408 126.71 422.387 126.71C417.969 126.71 413.551 125.057 410.421 121.017C409.685 119.916 408.58 118.446 407.476 118.446C406.187 118.446 403.978 120.099 400.296 122.119C396.246 124.323 392.196 126.71 387.041 126.71C381.702 126.71 377.284 125.241 374.154 122.486C370.656 119.365 368.447 114.774 368.447 109.632C368.447 102.47 371.945 98.2463 383.727 94.0226ZM382.623 107.428C382.623 110.55 384.832 118.446 394.221 118.446C397.903 118.446 403.61 115.692 405.451 113.855C407.66 111.652 407.66 109.081 407.844 105.224L408.212 94.3899C408.212 92.3698 407.476 92.0026 406.371 92.0026C405.266 92.0026 402.137 92.7371 398.823 93.839C387.961 97.5117 382.623 100.266 382.623 107.428Z" fill="white"/>
<path d="M484.959 59.4987H464.156C461.027 59.4987 460.842 60.0496 460.842 63.906V98.2463C460.842 108.897 462.131 118.63 474.282 118.63C476.122 118.63 477.779 118.263 479.252 117.712C480.909 117.161 483.302 115.141 483.855 115.141C485.327 115.141 486.064 117.161 485.695 118.263C482.382 122.119 475.754 126.71 466.365 126.71C450.533 126.71 447.219 117.895 447.219 106.877V64.8242C447.219 59.866 447.035 59.4987 443.353 59.4987H438.199C437.094 58.7641 436.91 56.7441 437.646 55.6423C442.985 53.9896 447.587 51.6023 449.428 49.9495C451.822 47.7459 455.32 42.7877 457.161 39.1149C458.081 38.7476 460.29 38.7476 461.027 40.0331V48.2968C461.027 51.6023 461.211 51.7859 464.34 51.7859H484.775C486.984 53.4386 486.616 58.3969 484.959 59.4987Z" fill="white"/>
<path d="M500.097 103.572V71.4352C500.097 64.2733 500.097 63.3551 495.127 60.0496L493.47 58.9478C492.733 58.2132 492.733 56.1932 493.654 55.6423C497.888 54.1732 508.382 49.3986 512.616 46.6441C513.536 46.6441 514.273 47.0113 514.457 47.7459C514.089 54.1732 513.72 62.9878 513.72 70.517V103.572C513.72 116.794 514.089 118.63 520.716 119.548L524.582 120.099C525.871 121.017 525.503 124.139 524.214 124.69C518.691 124.323 513.352 124.139 506.909 124.139C500.281 124.139 494.758 124.323 489.604 124.69C488.315 124.139 487.947 121.017 489.235 120.099L493.102 119.548C499.913 118.63 500.097 116.794 500.097 103.572ZM506.172 9.54923C511.695 9.54923 515.377 13.9565 515.377 19.0984C515.377 25.7094 510.775 28.6476 505.62 28.6476C499.913 28.6476 496.231 24.4239 496.231 19.4657C496.231 13.4056 500.649 9.54923 506.172 9.54923Z" fill="white"/>
<path d="M569.58 49.215C590.198 49.215 606.951 64.6405 606.951 87.228C606.951 110.183 591.119 126.71 568.107 126.71C546.936 126.71 530.367 111.835 530.367 88.8807C530.367 65.7424 547.856 49.215 569.58 49.215ZM591.119 90.1662C591.119 74.557 584.86 54.7241 567.371 54.7241C555.22 54.7241 546.199 66.2933 546.199 86.4934C546.199 103.204 553.747 121.201 569.948 121.201C586.148 121.201 591.119 104.306 591.119 90.1662Z" fill="white"/>
<path d="M626.082 103.572V71.4352C626.082 64.2733 626.082 63.3551 621.111 60.0496L619.454 58.9478C618.718 58.2132 618.718 56.1932 619.639 55.6423C623.873 54.1732 634.366 49.3986 638.048 46.6441C638.785 46.6441 639.705 47.0113 640.073 47.9295C639.705 52.1532 639.705 54.9078 639.705 56.5605C639.705 57.6623 640.441 58.5805 641.73 58.5805C649.462 53.8059 658.115 49.215 667.504 49.215C682.784 49.215 689.043 59.6823 689.043 71.9861V103.572C689.043 116.794 689.411 118.63 696.039 119.548L700.089 120.099C701.378 121.017 701.009 124.139 699.721 124.69C694.198 124.323 688.859 124.139 682.416 124.139C675.788 124.139 670.265 124.323 665.295 124.69C664.006 124.139 663.638 121.017 664.926 120.099L668.424 119.548C675.236 118.446 675.42 116.794 675.42 103.572V76.2097C675.42 65.7424 670.633 58.0296 658.115 58.0296C651.119 58.0296 645.044 60.9678 642.467 64.4569C640.073 67.5788 639.705 70.1497 639.705 75.4752V103.572C639.705 116.794 640.073 118.446 646.701 119.548L650.015 120.099C651.303 121.017 650.935 124.139 649.646 124.69C644.676 124.323 639.337 124.139 632.894 124.139C626.266 124.139 620.743 124.323 615.588 124.69C614.3 124.139 613.932 121.017 615.22 120.099L619.086 119.548C625.898 118.63 626.082 116.794 626.082 103.572Z" fill="white"/>
<path d="M820.408 93.1044C820.408 113.305 805.128 127.077 781.196 127.077C765.732 127.077 755.974 122.303 752.477 120.283C750.267 116.243 747.874 103.204 747.506 94.5735C748.427 93.288 751.188 92.9208 751.924 94.0226C754.686 103.388 762.234 121.385 783.589 121.385C799.053 121.385 806.601 111.285 806.601 100.266C806.601 92.1862 804.944 83.188 791.505 74.557L774.016 63.1714C764.811 57.1114 754.133 46.6441 754.133 31.5858C754.133 14.1402 767.757 6.10352e-05 791.689 6.10352e-05C797.396 6.10352e-05 804.024 1.1019 808.81 2.38735C811.203 3.12191 813.781 3.48919 815.254 3.48919C816.91 7.89649 818.567 18.1802 818.567 25.893C817.831 26.9948 814.885 27.5457 813.965 26.4439C811.572 17.6293 806.601 5.69283 788.928 5.69283C770.886 5.69283 767.02 17.6293 767.02 26.0766C767.02 36.7276 775.857 44.4404 782.669 48.6641L797.396 57.846C808.994 65.0078 820.408 75.6588 820.408 93.1044Z" fill="white"/>
<path d="M840.498 103.572V71.4352C840.498 64.2733 840.498 63.3551 835.528 60.0496L833.871 58.9478C833.134 58.2132 833.134 56.1932 834.055 55.6423C838.289 54.1732 848.783 49.3986 853.017 46.6441C853.937 46.6441 854.674 47.0113 854.858 47.7459C854.49 54.1732 854.121 62.9878 854.121 70.517V103.572C854.121 116.794 854.49 118.63 861.117 119.548L864.983 120.099C866.272 121.017 865.904 124.139 864.615 124.69C859.092 124.323 853.753 124.139 847.31 124.139C840.682 124.139 835.159 124.323 830.005 124.69C828.716 124.139 828.348 121.017 829.637 120.099L833.503 119.548C840.314 118.63 840.498 116.794 840.498 103.572ZM846.573 9.54923C852.096 9.54923 855.778 13.9565 855.778 19.0984C855.778 25.7094 851.176 28.6476 846.021 28.6476C840.314 28.6476 836.632 24.4239 836.632 19.4657C836.632 13.4056 841.051 9.54923 846.573 9.54923Z" fill="white"/>
<path d="M918.265 59.4987H897.462C894.333 59.4987 894.148 60.0496 894.148 63.906V98.2463C894.148 108.897 895.437 118.63 907.588 118.63C909.429 118.63 911.085 118.263 912.558 117.712C914.215 117.161 916.608 115.141 917.161 115.141C918.633 115.141 919.37 117.161 919.002 118.263C915.688 122.119 909.06 126.71 899.671 126.71C883.839 126.71 880.525 117.895 880.525 106.877V64.8242C880.525 59.866 880.341 59.4987 876.659 59.4987H871.505C870.4 58.7641 870.216 56.7441 870.952 55.6423C876.291 53.9896 880.894 51.6023 882.735 49.9495C885.128 47.7459 888.626 42.7877 890.467 39.1149C891.387 38.7476 893.596 38.7476 894.333 40.0331V48.2968C894.333 51.6023 894.517 51.7859 897.646 51.7859H918.081C920.29 53.4386 919.922 58.3969 918.265 59.4987Z" fill="white"/>
<path d="M973.352 77.1279H939.294C934.508 77.1279 934.324 77.4952 934.324 82.0861C934.324 100.634 945.185 116.426 964.884 116.426C970.959 116.426 976.114 114.59 981.821 107.428C983.662 106.877 984.95 107.979 985.134 109.632C979.059 122.119 965.804 126.71 956.231 126.71C944.265 126.71 934.876 121.568 929.537 114.59C924.014 107.428 921.805 98.7972 921.805 90.7171C921.805 68.1297 936.717 49.215 958.809 49.215C974.641 49.215 984.95 60.0496 984.95 71.0679C984.95 73.6388 984.582 75.1079 984.214 75.8425C983.662 76.9443 981.084 77.1279 973.352 77.1279ZM937.637 71.6188H950.708C964.331 71.6188 968.382 70.8842 969.854 69.7824C970.407 69.4151 970.959 68.6806 970.959 66.2933C970.959 61.1514 967.461 54.7241 956.784 54.7241C945.922 54.7241 936.533 64.6406 936.349 70.7006C936.349 71.0679 936.349 71.6188 937.637 71.6188Z" fill="white"/>
<path d="M1017.18 49.215C1024.91 49.215 1031.72 51.0514 1033.38 52.5205C1035.04 56.5605 1036.33 62.4369 1036.33 67.3951C1035.59 68.6806 1032.83 69.0479 1031.91 67.946C1028.78 59.866 1023.26 54.5405 1015.71 54.5405C1008.53 54.5405 1003.93 59.1314 1003.93 65.7424C1003.93 73.2715 1011.66 77.3115 1018.1 80.9843C1027.86 86.4934 1036.88 92.7371 1036.88 105.775C1036.88 119.732 1023.99 126.71 1010.37 126.71C1001.72 126.71 995.273 124.874 990.671 121.201C989.198 117.712 988.093 108.714 988.461 102.654C989.382 101.552 991.775 101.368 992.696 102.47C995.825 112.57 1001.72 121.385 1012.21 121.385C1018.84 121.385 1024.54 117.528 1024.54 109.632C1024.54 101.184 1017.18 96.5935 1010.37 92.7371C999.691 86.6771 992.143 80.2498 992.143 70.1497C992.143 56.7441 1003.19 49.215 1017.18 49.215Z" fill="white"/>
<path d="M15.28 266.858L37.1875 258.962C39.949 258.043 40.3172 256.391 40.3172 253.636L40.5013 245.189C40.6854 238.394 38.4762 229.212 27.0622 229.212C21.9075 229.212 15.6482 231.783 15.28 237.476C15.0959 240.414 14.9118 242.618 13.4391 243.72C10.6776 245.923 5.707 247.209 2.94555 247.209C1.28868 247.209 0.368193 246.291 0.368193 244.638C0.368193 235.089 21.1711 222.05 34.6102 222.05C47.8651 222.05 54.3085 229.763 53.7562 243.536L52.6516 275.489C52.2834 283.936 53.9403 291.466 61.1201 291.466C62.9611 291.466 64.6179 290.915 65.7225 290.364C66.643 289.813 67.5635 289.078 68.1158 289.078C68.8521 289.078 69.4044 290.18 69.4044 291.466C69.4044 292.384 62.9611 299.546 53.9403 299.546C49.522 299.546 45.1037 297.893 41.974 293.853C41.2376 292.751 40.1331 291.282 39.0285 291.282C37.7398 291.282 35.5307 292.935 31.8487 294.955C27.7986 297.158 23.7485 299.546 18.5938 299.546C13.255 299.546 8.83664 298.077 5.707 295.322C2.20916 292.2 0 287.609 0 282.467C0 275.305 3.49784 271.082 15.28 266.858ZM14.1754 280.264C14.1754 283.386 16.3846 291.282 25.7735 291.282C29.4555 291.282 35.1625 288.527 37.0034 286.691C39.2126 284.487 39.2126 281.916 39.3967 278.06L39.7649 267.225C39.7649 265.205 39.0285 264.838 37.9239 264.838C36.8193 264.838 33.6897 265.573 30.3759 266.674C19.5142 270.347 14.1754 273.102 14.1754 280.264Z" fill="white"/>
<path d="M80.6132 276.407V244.271C80.6132 237.109 80.6132 236.191 75.6426 232.885L73.9857 231.783C73.2493 231.049 73.2493 229.029 74.1698 228.478C78.404 227.009 88.8975 222.234 92.5795 219.48C93.3158 219.48 94.2363 219.847 94.6045 220.765C94.2363 224.989 94.2363 227.743 94.2363 229.396C94.2363 230.498 94.9727 231.416 96.2614 231.416C103.993 226.641 112.646 222.05 122.035 222.05C137.315 222.05 143.574 232.518 143.574 244.822V276.407C143.574 289.629 143.942 291.466 150.57 292.384L154.62 292.935C155.909 293.853 155.54 296.975 154.252 297.526C148.729 297.158 143.39 296.975 136.947 296.975C130.319 296.975 124.796 297.158 119.826 297.526C118.537 296.975 118.169 293.853 119.458 292.935L122.955 292.384C129.767 291.282 129.951 289.629 129.951 276.407V249.045C129.951 238.578 125.165 230.865 112.646 230.865C105.65 230.865 99.5751 233.803 96.9978 237.292C94.6045 240.414 94.2363 242.985 94.2363 248.311V276.407C94.2363 289.629 94.6045 291.282 101.232 292.384L104.546 292.935C105.834 293.853 105.466 296.975 104.178 297.526C99.2069 297.158 93.8681 296.975 87.4248 296.975C80.7973 296.975 75.2744 297.158 70.1197 297.526C68.831 296.975 68.4628 293.853 69.7515 292.935L73.6175 292.384C80.4291 291.466 80.6132 289.629 80.6132 276.407Z" fill="white"/>
<path d="M231.937 189.547V270.164C231.937 284.671 232.121 291.466 237.276 291.466C239.301 291.466 242.43 290.547 245.192 289.629C246.48 289.996 246.664 294.587 245.008 295.506C237.276 296.607 225.862 299.362 220.707 301.382C219.602 301.382 218.682 300.831 218.682 299.913V296.791C218.682 294.036 218.682 291.833 218.314 291.098H217.577C209.477 296.607 203.218 299.546 194.381 299.546C173.946 299.546 160.323 283.569 160.323 264.287C160.323 238.578 179.837 222.05 204.875 222.05C211.134 222.05 215.184 222.969 217.209 223.703C218.129 223.703 218.314 222.601 218.314 221.132V193.403C218.314 182.568 218.129 181.467 212.607 178.161L210.766 177.059C209.845 176.508 209.845 173.937 210.766 173.386C215.368 171.917 224.021 169.163 230.648 165.674C231.384 165.674 232.121 166.041 232.489 166.776C232.305 172.285 231.937 181.467 231.937 189.547ZM218.314 278.795V242.618C218.314 238.945 217.577 237.292 216.289 235.456C213.527 231.6 208.004 227.743 200.824 227.743C184.072 227.743 175.419 242.251 175.419 258.227C175.419 274.938 184.808 290.731 202.849 290.731C207.82 290.731 214.079 288.527 217.025 285.589C218.129 284.487 218.314 281.733 218.314 278.795Z" fill="white"/>
<path d="M342.219 187.71V269.429C342.219 288.711 342.587 291.466 353.264 292.384L359.156 292.935C360.26 293.669 359.892 296.975 358.787 297.526C348.294 297.158 342.035 296.975 334.671 296.975C327.307 296.975 320.863 297.158 309.081 297.526C307.977 296.975 307.608 293.853 309.081 292.935L315.709 292.384C326.202 291.466 327.123 288.711 327.123 269.429V187.343C327.123 181.65 327.123 181.467 321.6 181.467H311.475C303.558 181.467 293.433 181.834 288.831 186.057C284.412 190.098 282.571 194.138 280.546 198.729C279.073 199.83 276.496 198.912 275.76 197.443C278.705 189.179 281.467 177.427 282.755 170.081C283.308 169.714 285.701 169.53 286.253 170.081C287.358 175.957 293.433 175.774 301.901 175.774H376.461C386.402 175.774 388.059 175.406 390.82 170.632C391.741 170.265 393.766 170.448 394.134 171.183C392.109 178.712 390.82 193.587 391.372 199.096C390.636 200.565 387.506 200.565 386.586 199.463C386.034 194.872 384.745 188.077 381.984 186.057C377.749 182.936 370.754 181.467 360.628 181.467H347.557C342.035 181.467 342.219 181.65 342.219 187.71Z" fill="white"/>
<path d="M384.719 276.407V244.271C384.719 237.109 384.72 236.191 379.749 232.885L378.092 231.783C377.356 231.049 377.356 229.029 378.276 228.478C382.51 227.009 392.267 222.234 396.87 219.48C397.79 219.663 398.343 220.03 398.343 220.765V231.416C398.343 232.334 398.527 232.885 398.895 233.069C405.338 227.743 412.334 222.05 419.146 222.05C423.748 222.05 427.43 224.989 427.43 229.396C427.43 235.456 422.459 237.843 419.514 237.843C417.673 237.843 416.752 237.292 415.464 236.558C412.702 234.721 409.941 233.62 407.363 233.62C404.418 233.62 402.209 235.272 400.736 237.292C398.895 239.863 398.343 245.189 398.343 251.433V276.407C398.343 289.629 398.711 291.833 405.707 292.384L412.334 292.935C413.623 293.853 413.254 296.975 411.966 297.526C403.313 297.158 397.974 296.975 391.531 296.975C384.904 296.975 379.381 297.158 374.594 297.526C373.306 296.975 372.937 293.853 374.226 292.935L377.724 292.384C384.535 291.282 384.719 289.629 384.719 276.407Z" fill="white"/>
<path d="M444.113 266.858L466.02 258.962C468.782 258.043 469.15 256.391 469.15 253.636L469.334 245.189C469.518 238.394 467.309 229.212 455.895 229.212C450.74 229.212 444.481 231.783 444.113 237.476C443.929 240.414 443.745 242.618 442.272 243.72C439.51 245.923 434.54 247.209 431.778 247.209C430.121 247.209 429.201 246.291 429.201 244.638C429.201 235.089 450.004 222.05 463.443 222.05C476.698 222.05 483.141 229.763 482.589 243.536L481.484 275.489C481.116 283.936 482.773 291.466 489.953 291.466C491.794 291.466 493.451 290.915 494.555 290.364C495.476 289.813 496.396 289.078 496.948 289.078C497.685 289.078 498.237 290.18 498.237 291.466C498.237 292.384 491.794 299.546 482.773 299.546C478.355 299.546 473.936 297.893 470.807 293.853C470.07 292.751 468.966 291.282 467.861 291.282C466.572 291.282 464.363 292.935 460.681 294.955C456.631 297.158 452.581 299.546 447.426 299.546C442.088 299.546 437.669 298.077 434.54 295.322C431.042 292.2 428.833 287.609 428.833 282.467C428.833 275.305 432.33 271.082 444.113 266.858ZM443.008 280.264C443.008 283.386 445.217 291.282 454.606 291.282C458.288 291.282 463.995 288.527 465.836 286.691C468.045 284.487 468.045 281.916 468.229 278.06L468.598 267.225C468.598 265.205 467.861 264.838 466.757 264.838C465.652 264.838 462.522 265.573 459.209 266.674C448.347 270.347 443.008 273.102 443.008 280.264Z" fill="white"/>
<path d="M509.446 276.407V244.271C509.446 237.109 509.446 236.191 504.475 232.885L502.818 231.783C502.082 231.049 502.082 229.029 503.002 228.478C507.237 227.009 517.73 222.234 521.964 219.48C522.885 219.48 523.621 219.847 523.805 220.581C523.437 227.009 523.069 235.823 523.069 243.352V276.407C523.069 289.629 523.437 291.466 530.065 292.384L533.931 292.935C535.219 293.853 534.851 296.975 533.562 297.526C528.04 297.158 522.701 296.975 516.257 296.975C509.63 296.975 504.107 297.158 498.952 297.526C497.664 296.975 497.295 293.853 498.584 292.935L502.45 292.384C509.262 291.466 509.446 289.629 509.446 276.407ZM515.521 182.385C521.044 182.385 524.726 186.792 524.726 191.934C524.726 198.545 520.123 201.483 514.969 201.483C509.262 201.483 505.58 197.259 505.58 192.301C505.58 186.241 509.998 182.385 515.521 182.385Z" fill="white"/>
<path d="M563.096 189.547V276.407C563.096 289.629 563.464 291.466 570.092 292.384L574.51 292.935C575.799 293.853 575.431 296.975 574.142 297.526C568.067 297.158 562.728 296.975 556.284 296.975C549.657 296.975 544.134 297.158 538.611 297.526C537.322 296.975 536.954 293.853 538.243 292.935L542.477 292.384C549.289 291.466 549.473 289.629 549.473 276.407V193.403C549.473 182.568 549.289 181.467 543.766 178.161L541.925 177.059C541.004 176.508 541.004 173.937 541.925 173.386C546.527 171.917 555.18 169.163 561.807 165.674C562.544 165.674 563.28 166.041 563.648 166.776C563.464 172.285 563.096 181.467 563.096 189.547Z" fill="white"/>
<path d="M607.585 222.05C615.317 222.05 622.128 223.887 623.785 225.356C625.442 229.396 626.731 235.272 626.731 240.231C625.994 241.516 623.233 241.883 622.312 240.782C619.183 232.701 613.66 227.376 606.112 227.376C598.932 227.376 594.33 231.967 594.33 238.578C594.33 246.107 602.062 250.147 608.505 253.82C618.262 259.329 627.283 265.573 627.283 278.611C627.283 292.567 614.396 299.546 600.773 299.546C592.12 299.546 585.677 297.709 581.075 294.036C579.602 290.547 578.497 281.549 578.865 275.489C579.786 274.387 582.179 274.204 583.1 275.305C586.229 285.405 592.12 294.22 602.614 294.22C609.241 294.22 614.948 290.364 614.948 282.467C614.948 274.02 607.585 269.429 600.773 265.573C590.095 259.513 582.547 253.085 582.547 242.985C582.547 229.58 593.593 222.05 607.585 222.05Z" fill="white"/>
<path d="M667.244 269.429V199.647C667.244 186.057 666.508 182.568 658.223 181.834L652.332 181.283C650.859 180.181 651.043 177.427 652.516 176.692C662.457 175.774 674.976 175.223 692.097 175.223C703.695 175.223 714.741 176.141 723.025 180.365C730.941 184.221 737.017 191.567 737.017 203.319C737.017 216.541 729.285 223.336 718.239 228.478C718.239 230.314 719.711 230.865 721.737 231.232C731.678 233.069 746.406 242.251 746.406 261.9C746.406 283.202 730.573 297.526 697.436 297.526C692.097 297.526 683.076 296.975 675.344 296.975C667.244 296.975 660.985 297.342 654.173 297.526C653.069 296.975 652.7 294.036 653.805 292.935L657.119 292.384C666.876 290.731 667.244 288.711 667.244 269.429ZM682.34 239.496V266.674C682.34 273.285 682.708 282.651 686.206 286.691C689.704 290.915 695.227 291.833 700.75 291.833C717.134 291.833 729.653 284.487 729.653 266.124C729.653 251.616 722.289 234.721 693.017 234.721C683.076 234.721 682.34 235.823 682.34 239.496ZM682.34 186.792V224.07C682.34 229.212 682.524 229.58 691.913 229.212C710.691 228.478 720.816 222.969 720.816 205.707C720.816 187.71 707.377 180.916 693.386 180.916C689.336 180.916 686.574 181.283 684.917 182.017C683.076 182.568 682.34 183.487 682.34 186.792Z" fill="#FCBA19"/>
<path d="M757.83 237.109C757.83 216.725 767.035 199.279 781.026 188.445C794.465 177.977 811.586 172.836 830.732 172.836C840.674 172.836 854.665 174.856 863.317 177.243C865.527 177.794 866.815 178.161 868.472 177.977C868.656 182.201 869.577 193.77 871.049 204.972C870.129 206.258 867.368 206.441 866.079 205.339C863.317 192.852 855.033 178.528 828.339 178.528C800.172 178.528 776.24 196.341 776.24 234.354C776.24 272.918 800.725 294.22 830.916 294.22C854.665 294.22 865.158 278.795 869.393 267.96C870.681 267.042 873.443 267.409 874.179 268.694C872.89 278.244 868.104 290.364 865.342 293.853C863.133 294.22 860.924 294.955 858.899 295.689C854.849 297.158 841.594 299.913 829.812 299.913C813.243 299.913 797.411 296.607 783.972 287.609C769.244 277.509 757.83 260.798 757.83 237.109Z" fill="#FCBA19"/>
</svg>
