<svg width="48" height="48" viewBox="0 0 48 48" fill="none" xmlns="http://www.w3.org/2000/svg">
<path d="M47.3513 0H0.648648C0.295495 0 0 0.295495 0 0.648648V47.3513C0 47.7045 0.295495 48 0.648648 48H47.3513C47.7045 48 48 47.7045 48 47.3513V0.648648C48 0.295495 47.7045 0 47.3513 0Z" fill="white"/>
<path d="M35.4453 34.4805C36.3894 33.9687 38.7966 33.457 39.3372 35.1579C39.8777 36.8588 40.4254 39.1435 38.3498 40.1814C36.5912 41.0606 35.6615 40.1381 35.2435 38.2931C34.9696 37.0895 34.2417 37.0606 34.0759 36.7219C33.5281 35.6264 34.0831 35.23 35.4525 34.4877L35.4453 34.4805Z" fill="#003366"/>
<path d="M12.3389 33.7517C11.4452 33.3697 9.15333 34.213 8.49027 35.7193C7.45964 38.0616 9.04522 39.64 10.8182 40.5121C12.3317 41.2616 12.865 40.8869 13.2254 38.5013C13.4344 37.6941 14.4867 37.1319 14.5155 36.3175C14.5155 35.013 13.5714 34.2779 12.3389 33.7517Z" fill="#003366"/>
<path d="M32.8577 42.6881C32.1442 43.0629 31.2289 43.5169 29.7875 43.5169C28.0794 43.5169 27.1857 43.0341 26.6884 42.6305C26.1406 42.1908 26.0469 41.7872 25.3839 40.6341C24.7785 39.5746 24.7929 38.7602 25.2686 38.1692C25.946 37.3332 27.5532 36.9512 29.6433 36.9512C31.4451 36.9512 32.2379 37.3043 33.3478 37.7728C34.4361 38.2341 35.092 41.5061 32.8577 42.6809V42.6881Z" fill="#003366"/>
<path d="M23.7695 41.2105C23.6902 39.9564 22.3209 37.506 20.3605 37.2321C16.4398 36.6916 14.5227 37.506 14.2848 40.1871C14.0686 42.6231 15.6686 43.1636 19.5893 43.697C23.5101 44.2303 23.8992 43.1204 23.7695 41.2033V41.2105Z" fill="#003366"/>
<path d="M35.0558 24.3253C35.0558 21.637 34.054 18.9559 32.1945 17.082C32.281 18.2928 31.8558 21.9325 28.7062 25.3775C25.9675 28.3685 24.7423 32.3901 25.7224 35.2298C31.0053 34.401 35.0558 29.846 35.0558 24.3253Z" fill="#003366"/>
<path d="M21.1385 4.07227C21.1385 4.07227 24.0935 9.29028 20.4971 12.6128C16.6124 16.2092 13.1962 18.4506 12.9511 23.9209C12.6772 29.9461 16.8863 34.2633 22.2917 35.229C21.4917 31.4092 22.998 26.6957 26.2556 23.1353C28.7493 20.411 29.3547 17.42 29.4484 14.7101C29.5421 12.0002 29.7511 6.54434 21.1313 4.07227H21.1385Z" fill="#003366"/>
</svg>
