<svg width="34" height="34" viewBox="0 0 34 34" fill="none" xmlns="http://www.w3.org/2000/svg">
<mask id="path-1-outside-1_7175_3603" maskUnits="userSpaceOnUse" x="0" y="0" width="34" height="34" fill="black">
<rect fill="white" width="34" height="34"/>
<path d="M2 17C2 8.71573 8.71573 2 17 2C25.2843 2 32 8.71573 32 17C32 25.2843 25.2843 32 17 32C8.71573 32 2 25.2843 2 17Z"/>
</mask>
<path d="M2 17C2 8.71573 8.71573 2 17 2C25.2843 2 32 8.71573 32 17C32 25.2843 25.2843 32 17 32C8.71573 32 2 25.2843 2 17Z" fill="#2F6127" fill-opacity="0.9"/>
<path d="M17 32V30C9.8203 30 4 24.1797 4 17H2H0C0 26.3888 7.61116 34 17 34V32ZM32 17H30C30 24.1797 24.1797 30 17 30V32V34C26.3888 34 34 26.3888 34 17H32ZM17 2V4C24.1797 4 30 9.8203 30 17H32H34C34 7.61116 26.3888 0 17 0V2ZM17 2V0C7.61116 0 0 7.61116 0 17H2H4C4 9.8203 9.8203 4 17 4V2Z" fill="white" mask="url(#path-1-outside-1_7175_3603)"/>
<g clip-path="url(#clip0_7175_3603)">
<path d="M19.7312 9.17504C20.05 9.44066 20.0906 9.91254 19.825 10.2313L17.9781 12.4407L25.3438 21.2532C25.6063 21.5688 25.75 21.9657 25.75 22.375V23.25C25.75 24.2157 24.9656 25 24 25H17H10C9.03438 25 8.25 24.2157 8.25 23.25V22.375C8.25 21.9657 8.39375 21.5688 8.65625 21.2532L16.0219 12.4407L14.175 10.2313C13.9094 9.91254 13.9531 9.44066 14.2688 9.17504C14.5844 8.90941 15.0594 8.95316 15.325 9.26879L17 11.2719L18.675 9.26879C18.9406 8.95004 19.4125 8.90941 19.7312 9.17504ZM9.80938 22.2125C9.77188 22.2563 9.75 22.3157 9.75 22.3719V23.2469C9.75 23.3844 9.8625 23.4969 10 23.4969H11.9375L16.4094 17.7875C16.55 17.6063 16.7688 17.5 17 17.5C17.2312 17.5 17.45 17.6063 17.5906 17.7875L22.0625 23.5H24C24.1375 23.5 24.25 23.3875 24.25 23.25V22.375C24.25 22.3157 24.2281 22.2594 24.1906 22.2157L17 13.6094L9.80938 22.2125ZM13.8438 23.5H17H20.1562L17 19.4657L13.8438 23.5Z" fill="white"/>
</g>
<defs>
<clipPath id="clip0_7175_3603">
<rect width="18" height="16" fill="white" transform="translate(8 9)"/>
</clipPath>
</defs>
</svg>
