<svg width="32" height="28" viewBox="0 0 32 28" fill="none" xmlns="http://www.w3.org/2000/svg">
<path d="M31.0575 2.26833C29.118 1.32125 27.1771 0.960938 25.2371 0.960938C19.0787 0.960355 12.9208 4.58972 6.76239 4.58972C5.21792 4.58972 3.67444 4.36154 2.12997 3.79109C1.95647 3.72706 1.78247 3.69679 1.61247 3.69679C0.751988 3.69679 0 4.47214 0 5.54844V24.016C0 24.7512 0.361494 25.448 0.941985 25.7309C2.88145 26.6785 4.82242 27.0388 6.76239 27.0388C12.9208 27.0388 19.0792 23.4095 25.2376 23.4095C26.7821 23.4095 28.3256 23.6377 29.87 24.2081C30.0435 24.2721 30.2175 24.3024 30.3875 24.3024C31.248 24.3024 32 23.5271 32 22.4508V3.98376C31.9995 3.24799 31.638 2.55181 31.0575 2.26833ZM2.39996 6.7947C3.40595 7.08808 4.45593 7.23535 5.53591 7.31452C5.24192 9.0253 3.94994 10.3146 2.39996 10.3146V6.7947ZM2.39996 23.3844V20.6032C4.11844 20.6032 5.50891 22.1906 5.58541 24.1773C4.45893 24.0719 3.40595 23.81 2.39996 23.3844ZM15.9998 19.588C13.7903 19.588 11.9998 17.0856 11.9998 13.9999C11.9998 10.9136 13.7908 8.41177 15.9998 8.41177C18.2087 8.41177 19.9997 10.9136 19.9997 13.9999C19.9997 17.0867 18.2082 19.588 15.9998 19.588ZM29.5995 21.2051C28.7236 20.9495 27.8141 20.8063 26.8836 20.7138C27.1771 19.1957 28.2586 18.0431 29.5995 17.8452V21.2051ZM29.5995 7.4612C28.0551 7.2336 26.8566 5.73238 26.8091 3.8784C27.7861 4.00472 28.7136 4.24105 29.5995 4.61534V7.4612Z" fill="#003366"/>
</svg>
