<svg width="32" height="32" viewBox="0 0 32 32" fill="none" xmlns="http://www.w3.org/2000/svg">
<path d="M4 3H18C18.55 3 19 3.45 19 4V18.6688C19.9062 17.7875 20.9125 17.0125 22 16.3563V4C22 1.79375 20.2062 0 18 0H4C1.79375 0 0 1.79375 0 4V28C0 30.2062 1.79375 32 4 32H14V30.5C14 29.9937 14.025 29.4937 14.0688 29H4C3.45 29 3 28.55 3 28V4C3 3.45 3.45 3 4 3ZM9 25C8.45 25 8 25.45 8 26C8 26.55 8.45 27 9 27H13C13.55 27 14 26.55 14 26C14 25.45 13.55 25 13 25H9ZM30.5 16C22.4937 16 16 22.4937 16 30.5C16 31.3312 16.6688 32 17.5 32C18.3312 32 19 31.3312 19 30.5C19 24.15 24.15 19 30.5 19C31.3312 19 32 18.3312 32 17.5C32 16.6688 31.3312 16 30.5 16ZM30 32C30.5304 32 31.0391 31.7893 31.4142 31.4142C31.7893 31.0391 32 30.5304 32 30C32 29.4696 31.7893 28.9609 31.4142 28.5858C31.0391 28.2107 30.5304 28 30 28C29.4696 28 28.9609 28.2107 28.5858 28.5858C28.2107 28.9609 28 29.4696 28 30C28 30.5304 28.2107 31.0391 28.5858 31.4142C28.9609 31.7893 29.4696 32 30 32ZM32 23.5C32 22.6688 31.3312 22 30.5 22C25.8062 22 22 25.8062 22 30.5C22 31.3312 22.6688 32 23.5 32C24.3312 32 25 31.3312 25 30.5C25 27.4625 27.4625 25 30.5 25C31.3312 25 32 24.3312 32 23.5Z" fill="#003366"/>
</svg>
