<svg width="34" height="34" viewBox="0 0 34 34" fill="none" xmlns="http://www.w3.org/2000/svg">
<mask id="path-1-outside-1_7175_3611" maskUnits="userSpaceOnUse" x="0" y="0" width="34" height="34" fill="black">
<rect fill="white" width="34" height="34"/>
<path d="M2 17C2 8.71573 8.71573 2 17 2C25.2843 2 32 8.71573 32 17C32 25.2843 25.2843 32 17 32C8.71573 32 2 25.2843 2 17Z"/>
</mask>
<path d="M2 17C2 8.71573 8.71573 2 17 2C25.2843 2 32 8.71573 32 17C32 25.2843 25.2843 32 17 32C8.71573 32 2 25.2843 2 17Z" fill="#2F6127" fill-opacity="0.9"/>
<path d="M17 32V30C9.8203 30 4 24.1797 4 17H2H0C0 26.3888 7.61116 34 17 34V32ZM32 17H30C30 24.1797 24.1797 30 17 30V32V34C26.3888 34 34 26.3888 34 17H32ZM17 2V4C24.1797 4 30 9.8203 30 17H32H34C34 7.61116 26.3888 0 17 0V2ZM17 2V0C7.61116 0 0 7.61116 0 17H2H4C4 9.8203 9.8203 4 17 4V2Z" fill="white" mask="url(#path-1-outside-1_7175_3611)"/>
<path d="M22.4937 10.0742C22.6148 10.1554 22.6875 10.2916 22.6875 10.4375V17C22.6875 17.1789 22.5786 17.3398 22.4125 17.4062L22.25 17C22.4125 17.4062 22.4125 17.4062 22.4125 17.4062L22.4102 17.4071L22.4048 17.4093L22.3848 17.4171C22.3675 17.4239 22.3424 17.4337 22.3101 17.4461C22.2456 17.4708 22.1526 17.5059 22.0372 17.5479C21.8066 17.6317 21.485 17.7436 21.1209 17.8557C20.4074 18.0752 19.4775 18.3125 18.75 18.3125C18.0091 18.3125 17.3952 18.0669 16.8619 17.8535L16.8375 17.8437C16.2827 17.6218 15.8103 17.4375 15.25 17.4375C14.6374 17.4375 13.8164 17.6381 13.1172 17.8553C12.7744 17.9618 12.4726 18.0685 12.2567 18.1485C12.2325 18.1575 12.2094 18.1661 12.1875 18.1743V23.5625C12.1875 23.8041 11.9916 24 11.75 24C11.5084 24 11.3125 23.8041 11.3125 23.5625V10.4375C11.3125 10.1959 11.5084 10 11.75 10C11.9916 10 12.1875 10.1959 12.1875 10.4375V10.6845C12.3853 10.6152 12.6216 10.5361 12.8792 10.4568C13.5926 10.2373 14.5225 10 15.25 10C15.9857 10 16.5834 10.2423 17.1058 10.4541C17.1186 10.4592 17.1312 10.4644 17.1439 10.4695C17.6876 10.6897 18.1618 10.875 18.75 10.875C19.3626 10.875 20.1836 10.6744 20.8828 10.4572C21.2256 10.3507 21.5274 10.244 21.7433 10.164C21.8511 10.124 21.9372 10.0908 21.9959 10.0678C22.0253 10.0563 22.0477 10.0473 22.0627 10.0413L22.0793 10.0346L22.0831 10.0331L22.084 10.0327M21.8125 11.0696C21.6203 11.1378 21.3919 11.2153 21.1424 11.2928C20.4332 11.5131 19.5042 11.75 18.75 11.75C17.9745 11.75 17.3569 11.4998 16.822 11.2832L16.8154 11.2805C16.2667 11.0582 15.8089 10.875 15.25 10.875C14.665 10.875 13.8449 11.0752 13.1365 11.2932C12.7897 11.3999 12.4824 11.5067 12.2618 11.5869C12.2358 11.5964 12.211 11.6055 12.1875 11.6142V17.2429C12.3797 17.1747 12.6081 17.0972 12.8576 17.0197C13.5668 16.7994 14.4958 16.5625 15.25 16.5625C15.9909 16.5625 16.6048 16.8081 17.1381 17.0215L17.1625 17.0313C17.7173 17.2532 18.1897 17.4375 18.75 17.4375C19.335 17.4375 20.1551 17.2373 20.8635 17.0193C21.2103 16.9126 21.5176 16.8058 21.7382 16.7256C21.7642 16.7161 21.789 16.707 21.8125 16.6983V11.0696Z" fill="white"/>
<path d="M22.4125 17.4062C22.5786 17.3398 22.6875 17.1789 22.6875 17V10.4375C22.6875 10.2916 22.6148 10.1554 22.4937 10.0742L22.084 10.0327L22.0831 10.0331L22.0793 10.0346L22.0627 10.0413C22.0477 10.0473 22.0253 10.0563 21.9959 10.0678C21.9372 10.0908 21.8511 10.124 21.7433 10.164C21.5274 10.244 21.2256 10.3507 20.8828 10.4572C20.1836 10.6744 19.3626 10.875 18.75 10.875C18.1618 10.875 17.6876 10.6897 17.1439 10.4695C17.1312 10.4644 17.1186 10.4592 17.1058 10.4541C16.5834 10.2423 15.9857 10 15.25 10C14.5225 10 13.5926 10.2373 12.8791 10.4568C12.6216 10.5361 12.3853 10.6152 12.1875 10.6845V10.4375C12.1875 10.1959 11.9916 10 11.75 10C11.5084 10 11.3125 10.1959 11.3125 10.4375V23.5625C11.3125 23.8041 11.5084 24 11.75 24C11.9916 24 12.1875 23.8041 12.1875 23.5625V18.1743C12.2094 18.1661 12.2325 18.1575 12.2567 18.1485C12.4726 18.0685 12.7744 17.9618 13.1172 17.8553C13.8164 17.6381 14.6374 17.4375 15.25 17.4375C15.8103 17.4375 16.2827 17.6218 16.8375 17.8437L16.8619 17.8535C17.3952 18.0669 18.0091 18.3125 18.75 18.3125C19.4775 18.3125 20.4074 18.0752 21.1209 17.8557C21.485 17.7436 21.8066 17.6317 22.0372 17.5479C22.1526 17.5059 22.2456 17.4708 22.3101 17.4461C22.3424 17.4337 22.3675 17.4239 22.3848 17.4171L22.4048 17.4093L22.4102 17.4071L22.4125 17.4062ZM22.4125 17.4062L22.25 17C22.4125 17.4062 22.4125 17.4062 22.4125 17.4062ZM21.1424 11.2928C21.3919 11.2153 21.6203 11.1378 21.8125 11.0696V16.6983C21.789 16.707 21.7642 16.7161 21.7382 16.7256C21.5176 16.8058 21.2103 16.9126 20.8635 17.0193C20.1551 17.2373 19.335 17.4375 18.75 17.4375C18.1897 17.4375 17.7173 17.2532 17.1625 17.0313L17.1381 17.0215C16.6048 16.8081 15.9909 16.5625 15.25 16.5625C14.4958 16.5625 13.5668 16.7994 12.8576 17.0197C12.6081 17.0972 12.3797 17.1747 12.1875 17.2429V11.6142C12.211 11.6055 12.2358 11.5964 12.2618 11.5869C12.4824 11.5067 12.7897 11.3999 13.1365 11.2932C13.8449 11.0752 14.665 10.875 15.25 10.875C15.8089 10.875 16.2667 11.0582 16.8154 11.2805L16.822 11.2832C17.3569 11.4998 17.9745 11.75 18.75 11.75C19.5042 11.75 20.4332 11.5131 21.1424 11.2928Z" stroke="white" stroke-width="0.75" stroke-linecap="round" stroke-linejoin="round"/>
</svg>
