<svg width="50" height="61" viewBox="0 0 50 61" fill="none" xmlns="http://www.w3.org/2000/svg">
<path d="M47.195 1.80304C47.69 2.13504 47.9871 2.6919 47.9871 3.28796V30.1074C47.9871 30.8385 47.5419 31.496 46.8631 31.7675L46.1991 30.1074C46.8631 31.7675 46.8634 31.7674 46.8631 31.7675L46.8539 31.7712L46.8318 31.78L46.7502 31.8121C46.6794 31.8399 46.5766 31.8799 46.4448 31.9305C46.1812 32.0316 45.8012 32.1749 45.3295 32.3465C44.387 32.6892 43.0727 33.1464 41.5845 33.6043C38.6688 34.5014 34.8687 35.4713 31.8954 35.4713C28.8676 35.4713 26.3586 34.4674 24.1791 33.5953L24.0795 33.5555C21.8122 32.6485 19.8815 31.8954 17.5917 31.8954C15.088 31.8954 11.7328 32.7152 8.87553 33.6029C7.47432 34.0382 6.24113 34.4741 5.35873 34.8011C5.25991 34.8378 5.16555 34.873 5.07593 34.9067V56.9269C5.07593 57.9144 4.27543 58.7149 3.28796 58.7149C2.3005 58.7149 1.5 57.9144 1.5 56.9269V3.28796C1.5 2.3005 2.3005 1.5 3.28796 1.5C4.27543 1.5 5.07593 2.3005 5.07593 3.28796V4.29728C5.88447 4.01438 6.85002 3.69088 7.90255 3.36703C10.8182 2.4699 14.6183 1.5 17.5917 1.5C20.5981 1.5 23.041 2.49027 25.1761 3.35577C25.2281 3.37684 25.2799 3.39783 25.3315 3.41874C27.5536 4.31877 29.4917 5.07593 31.8954 5.07593C34.3991 5.07593 37.7542 4.2561 40.6115 3.36846C42.0127 2.93316 43.2459 2.4972 44.1283 2.17017C44.569 2.00686 44.9208 1.87123 45.1607 1.77712C45.2807 1.73007 45.3725 1.69344 45.4335 1.66896L45.5013 1.64158L45.5172 1.63514L45.5206 1.63376M44.4111 5.87133C43.6259 6.15001 42.6923 6.46654 41.6724 6.7834C38.7743 7.68372 34.9776 8.65186 31.8954 8.65186C28.7262 8.65186 26.2021 7.62949 24.0161 6.74406L23.989 6.73312C21.7465 5.82483 19.8759 5.07593 17.5917 5.07593C15.2011 5.07593 11.8494 5.89399 8.95417 6.78483C7.5369 7.22091 6.28101 7.6577 5.37965 7.98547C5.27329 8.02415 5.17194 8.06128 5.07593 8.09668V31.1C5.8612 30.8213 6.79472 30.5048 7.81465 30.1879C10.7127 29.2876 14.5094 28.3195 17.5917 28.3195C20.6195 28.3195 23.1285 29.3234 25.308 30.1955L25.4076 30.2353C27.6749 31.1422 29.6056 31.8954 31.8954 31.8954C34.2859 31.8954 37.6377 31.0773 40.5329 30.1865C41.9502 29.7504 43.2061 29.3136 44.1074 28.9858C44.2138 28.9472 44.3151 28.91 44.4111 28.8746V5.87133Z" fill="#003366"/>
<path d="M46.8631 31.7675C47.5419 31.496 47.9871 30.8385 47.9871 30.1074V3.28796C47.9871 2.6919 47.69 2.13504 47.195 1.80304L45.5206 1.63376L45.5172 1.63514L45.5013 1.64158L45.4335 1.66896C45.3725 1.69344 45.2807 1.73007 45.1607 1.77712C44.9208 1.87123 44.569 2.00686 44.1283 2.17017C43.2459 2.4972 42.0127 2.93316 40.6115 3.36846C37.7542 4.2561 34.3991 5.07593 31.8954 5.07593C29.4917 5.07593 27.5536 4.31877 25.3315 3.41874C25.2799 3.39783 25.2281 3.37684 25.1761 3.35577C23.041 2.49027 20.5981 1.5 17.5917 1.5C14.6183 1.5 10.8182 2.4699 7.90255 3.36703C6.85002 3.69088 5.88447 4.01438 5.07593 4.29728V3.28796C5.07593 2.3005 4.27543 1.5 3.28796 1.5C2.3005 1.5 1.5 2.3005 1.5 3.28796V56.9269C1.5 57.9144 2.3005 58.7149 3.28796 58.7149C4.27543 58.7149 5.07593 57.9144 5.07593 56.9269V34.9067C5.16555 34.873 5.25991 34.8378 5.35873 34.8011C6.24113 34.4741 7.47432 34.0382 8.87553 33.6029C11.7328 32.7152 15.088 31.8954 17.5917 31.8954C19.8815 31.8954 21.8122 32.6485 24.0795 33.5555L24.1791 33.5953C26.3586 34.4674 28.8676 35.4713 31.8954 35.4713C34.8687 35.4713 38.6688 34.5014 41.5845 33.6043C43.0727 33.1464 44.387 32.6892 45.3295 32.3465C45.8012 32.1749 46.1812 32.0316 46.4448 31.9305C46.5766 31.8799 46.6794 31.8399 46.7502 31.8121L46.8318 31.78L46.8539 31.7712L46.8631 31.7675ZM46.8631 31.7675L46.1991 30.1074C46.8631 31.7675 46.8634 31.7674 46.8631 31.7675ZM41.6724 6.7834C42.6923 6.46654 43.6259 6.15001 44.4111 5.87133V28.8746C44.3151 28.91 44.2138 28.9472 44.1074 28.9858C43.2061 29.3136 41.9502 29.7504 40.5329 30.1865C37.6377 31.0773 34.2859 31.8954 31.8954 31.8954C29.6056 31.8954 27.6749 31.1422 25.4076 30.2353L25.308 30.1955C23.1285 29.3234 20.6195 28.3195 17.5917 28.3195C14.5094 28.3195 10.7127 29.2876 7.81465 30.1879C6.79472 30.5048 5.8612 30.8213 5.07593 31.1V8.09668C5.17194 8.06128 5.27329 8.02415 5.37965 7.98547C6.28101 7.6577 7.53691 7.22091 8.95417 6.78483C11.8494 5.89399 15.2011 5.07593 17.5917 5.07593C19.8759 5.07593 21.7465 5.82483 23.989 6.73312L24.0161 6.74406C26.2021 7.62949 28.7262 8.65186 31.8954 8.65186C34.9776 8.65186 38.7743 7.68372 41.6724 6.7834Z" stroke="#003366" stroke-width="3" stroke-linecap="round" stroke-linejoin="round"/>
</svg>
