<svg width="41" height="40" viewBox="0 0 41 40" fill="none" xmlns="http://www.w3.org/2000/svg">
<path d="M39.6036 35.0048C39.4162 34.9975 38.4505 34.7741 38.0252 34.6804C37.8955 34.6516 37.7586 34.666 37.636 34.7237C37.1964 34.9327 36.1369 35.4444 36.0288 35.4948C35.9351 35.5093 35.4955 35.4516 34.5802 35.6174C34.3135 35.6678 33.1676 35.675 32.8793 35.7111C31.9423 35.8408 31.4234 36.5471 30.8324 36.2876C30.6739 36.2156 28.7496 35.8768 28.6342 35.8264C28.2955 35.6822 27.7261 35.5957 27.5459 35.7327C27.2072 36.0354 26.9189 35.7687 26.5946 35.8624C26.0901 35.9993 25.1748 36.2084 24.9441 36.2516C24.5982 36.2876 23.9279 35.8336 23.4739 35.8984C23.1207 35.9561 22.3279 36.3237 22.1045 36.3885C21.8955 36.4894 21.5135 36.23 21.1892 36.2228H20.555C20.209 36.2228 19.5171 36.2948 19.3441 36.2444C18.9045 36.1723 16.1802 35.0264 15.7045 35.3579C15.5604 35.466 14.8396 35.9561 14.0829 35.9993C13.3838 36.0426 12.6486 35.6534 12.4829 35.7183C12.173 35.8408 11.1712 36.2156 10.4144 35.884C9.67928 35.5669 8.46847 36.0282 7.61802 35.7039C6.62342 35.293 6.10451 35.3219 4.70631 35.1417C4.16577 35.0696 3.20721 35.6678 2.39279 35.675C1.71532 35.6822 1.07387 35.293 0.627028 35.1561C0.230631 35.0336 0 35.1561 0 35.1561V39.884H40.1081V35.0048C40.1081 35.0048 39.7405 34.9831 39.5748 34.9831L39.6036 35.0048Z" fill="#003366"/>
<path d="M15.1137 7.87806C16.1128 7.87806 16.9227 7.05846 16.9227 6.04743C16.9227 5.0364 16.1128 4.2168 15.1137 4.2168C14.1146 4.2168 13.3047 5.0364 13.3047 6.04743C13.3047 7.05846 14.1146 7.87806 15.1137 7.87806Z" fill="#003366"/>
<path d="M20.101 7.87806C21.1001 7.87806 21.91 7.05846 21.91 6.04743C21.91 5.0364 21.1001 4.2168 20.101 4.2168C19.1019 4.2168 18.292 5.0364 18.292 6.04743C18.292 7.05846 19.1019 7.87806 20.101 7.87806Z" fill="#003366"/>
<path d="M23.2725 6.04743C23.2725 7.05644 24.0797 7.87806 25.0815 7.87806C26.0833 7.87806 26.8905 7.05644 26.8905 6.04743C26.8905 5.03842 26.0833 4.2168 25.0815 4.2168C24.0797 4.2168 23.2725 5.03842 23.2725 6.04743Z" fill="#003366"/>
<path d="M22.7172 3.66126C23.7163 3.66126 24.5262 2.84166 24.5262 1.83063C24.5262 0.819602 23.7163 0 22.7172 0C21.7181 0 20.9082 0.819602 20.9082 1.83063C20.9082 2.84166 21.7181 3.66126 22.7172 3.66126Z" fill="#003366"/>
<path d="M17.7367 3.66126C18.7358 3.66126 19.5458 2.84166 19.5458 1.83063C19.5458 0.819602 18.7358 0 17.7367 0C16.7377 0 15.9277 0.819602 15.9277 1.83063C15.9277 2.84166 16.7377 3.66126 17.7367 3.66126Z" fill="#003366"/>
<path d="M6.17679 30.6086H8.18039V33.6284C8.18039 33.8158 8.33175 33.9672 8.51913 33.9672H11.8056C12.0723 33.9672 12.2957 33.787 12.2957 33.5563V30.6158H27.9209V33.5563C27.9209 33.787 28.1444 33.9672 28.411 33.9672H31.6687C31.8705 33.9672 32.0362 33.8014 32.0362 33.5996V30.6086H34.0399C34.3714 30.6086 34.6381 30.3419 34.6381 30.0104V28.7636C34.6381 28.432 34.3714 28.1654 34.0399 28.1654H33.8164V23.5455C33.8164 22.5293 32.9948 21.7005 31.9714 21.7005H30.7317C30.7534 21.6212 30.7678 21.5347 30.7678 21.441V11.841C30.7678 10.8753 30.3065 10.0248 29.6074 9.49149V1.25365C29.6074 0.886081 29.3047 0.583378 28.9372 0.583378C28.5696 0.583378 28.2669 0.886081 28.2669 1.25365V8.95095C28.166 8.93653 28.0579 8.91491 27.957 8.91491H12.2885C12.2885 8.91491 12.2813 8.91491 12.2741 8.91491V1.24644C12.2741 0.878873 11.9714 0.576172 11.6038 0.576172C11.2362 0.576172 10.9335 0.878873 10.9335 1.24644V9.28968C10.0687 9.78698 9.47769 10.7311 9.47769 11.8266V21.4266C9.47769 21.5131 9.49211 21.5996 9.51373 21.6861H8.27409C7.25787 21.6861 6.42904 22.5077 6.42904 23.5311V28.1509H6.20562C5.87409 28.1509 5.60742 28.4176 5.60742 28.7491V29.996C5.60742 30.3275 5.87409 30.5942 6.20562 30.5942L6.17679 30.6086ZM25.6074 24.5834H14.5876V24.5041C14.5876 23.8482 15.1498 23.3149 15.8417 23.3149H24.3606C25.0453 23.3149 25.6146 23.8482 25.6146 24.5041V24.5834H25.6074ZM14.5876 25.2176H25.6074V26.3852H14.5876V25.2176ZM14.5876 27.0194H25.6074V28.1654H14.5876V27.0194ZM32.1155 25.16V28.1654H28.4182V25.16H32.1155ZM27.9281 11.0771C28.2957 11.0771 28.5912 11.423 28.5912 11.8482V16.6915H11.5966V11.8482C11.5966 11.423 11.8921 11.0771 12.2597 11.0771H27.9281ZM8.07949 25.16H11.7768V28.1654H8.07949V25.16Z" fill="#003366"/>
</svg>
