<svg width="15" height="17" viewBox="0 0 15 17" fill="none" xmlns="http://www.w3.org/2000/svg">
  <path d="M5.9194 15.8382V11.8581C5.9194 11.5803 6.20326 11.2965 6.48712 11.2965H8.758C9.04186 11.2965 9.32572 11.5803 9.32572 11.8642V15.8382C9.32572 16.1518 9.5799 16.4059 9.89344 16.4059H14.4352C14.7488 16.4059 15.0029 16.1518 15.0029 15.8382V7.89014C15.0029 7.73957 14.9431 7.59517 14.8366 7.4887L13.2998 5.95182V2.21293C13.2998 1.89938 13.0456 1.64521 12.732 1.64521H11.5966C11.2831 1.64521 11.0289 1.89938 11.0289 2.21293V3.68093L8.024 0.676047C7.80229 0.454338 7.44283 0.454338 7.22112 0.676047L0.408469 7.4887C0.302001 7.59517 0.242188 7.73957 0.242188 7.89014V15.8382C0.242188 16.1518 0.496365 16.4059 0.809908 16.4059H5.35168C5.66522 16.4059 5.9194 16.1518 5.9194 15.8382Z" fill="#2464A4"/>
</svg>
