<svg width="32" height="32" viewBox="0 0 32 32" fill="none" xmlns="http://www.w3.org/2000/svg">
<path d="M11.3439 2.8082C12.3564 1.2082 14.1251 0.251953 16.0001 0.251953C17.8751 0.251953 19.6439 1.2082 20.6564 2.8082L24.5501 8.93945L24.9626 6.95195C25.1314 6.13945 25.9251 5.6207 26.7314 5.7832C27.5376 5.9457 28.0626 6.7457 27.9001 7.55195L26.6876 13.452C26.6001 13.8707 26.3376 14.2332 25.9689 14.4457C25.6001 14.6582 25.1501 14.7082 24.7439 14.5707L19.0314 12.6707C18.2439 12.4082 17.8189 11.5582 18.0814 10.777C18.3439 9.9957 19.1939 9.56445 19.9751 9.82695L21.9876 10.4957L18.1251 4.41445C17.6689 3.6957 16.8626 3.25195 16.0001 3.25195C15.1376 3.25195 14.3314 3.6957 13.8751 4.41445L12.5314 6.5332C12.0939 7.2207 11.1939 7.4332 10.4939 7.01445C9.76886 6.5832 9.55011 5.63945 10.0001 4.92695L11.3439 2.8082ZM27.4376 16.2207C28.1376 15.802 29.0376 16.0145 29.4751 16.702L31.1501 19.3395C31.7001 20.2082 31.9939 21.2145 32.0001 22.2395C32.0189 25.277 29.5626 27.752 26.5251 27.752H17.9501L19.5001 29.127C20.1189 29.677 20.1751 30.627 19.6251 31.2457C19.0751 31.8645 18.1251 31.9207 17.5064 31.3707L13.0064 27.3707C12.6876 27.0832 12.5001 26.677 12.5001 26.252C12.5001 25.827 12.6814 25.4145 13.0064 25.1332L17.5064 21.1332C18.1251 20.5832 19.0751 20.6395 19.6251 21.2582C20.1751 21.877 20.1189 22.827 19.5001 23.377L17.9439 24.752H26.5251C27.9001 24.752 29.0126 23.6332 29.0001 22.2582C29.0001 21.7957 28.8626 21.3395 28.6126 20.9457L26.9376 18.3082C26.4876 17.5957 26.7064 16.652 27.4314 16.2207H27.4376ZM7.96261 16.452L7.54386 14.402L3.38761 20.9457C3.13761 21.3395 3.00636 21.7957 3.00011 22.2582C2.99386 23.6332 4.10636 24.752 5.47511 24.752H8.50011C9.33136 24.752 10.0001 25.4207 10.0001 26.252C10.0001 27.0832 9.33136 27.752 8.50011 27.752H5.47511C2.43761 27.752 -0.0186434 25.2832 0.000106637 22.2457C0.00635664 21.2207 0.300107 20.2145 0.850107 19.3457L4.92511 12.927L2.97511 13.5707C2.18761 13.8332 1.33761 13.4082 1.08136 12.6207C0.825107 11.8332 1.24386 10.9832 2.03136 10.727L7.74386 8.82695C8.15011 8.68945 8.59386 8.73945 8.96886 8.95195C9.34386 9.16445 9.60011 9.52695 9.68761 9.9457L10.9001 15.8457C11.0689 16.6582 10.5439 17.452 9.73136 17.6145C8.91886 17.777 8.12511 17.2582 7.96261 16.4457V16.452Z" fill="#003366"/>
</svg>
