<svg width="33" height="22" viewBox="0 0 33 22" fill="none" xmlns="http://www.w3.org/2000/svg">
<path d="M29.2296 21.7559C31.1907 21.7559 32.7852 20.1614 32.7852 18.2003V14.6447C32.7852 14.1559 32.374 13.7725 31.9129 13.6114C30.8685 13.2503 30.1185 12.2559 30.1185 11.0892C30.1185 9.92253 30.8685 8.92808 31.9129 8.56697C32.374 8.40586 32.7852 8.02253 32.7852 7.53364V3.97808C32.7852 2.01697 31.1907 0.422525 29.2296 0.422525H4.34071C2.3796 0.422525 0.785156 2.01697 0.785156 3.97808V7.53364C0.785156 8.02253 1.19627 8.40586 1.65738 8.56697C2.70182 8.92808 3.45182 9.92253 3.45182 11.0892C3.45182 12.2559 2.70182 13.2503 1.65738 13.6114C1.19627 13.7725 0.785156 14.1559 0.785156 14.6447V18.2003C0.785156 20.1614 2.3796 21.7559 4.34071 21.7559H29.2296ZM9.67405 6.64475V15.5336H23.8963V6.64475H9.67405ZM26.5629 16.4225C26.5629 17.4059 25.7685 18.2003 24.7852 18.2003H8.78516C7.80182 18.2003 7.00738 17.4059 7.00738 16.4225V5.75586C7.00738 4.77253 7.80182 3.97808 8.78516 3.97808H24.7852C25.7685 3.97808 26.5629 4.77253 26.5629 5.75586V16.4225Z" fill="#003366"/>
</svg>
