<svg width="42" height="68" viewBox="0 0 42 68" fill="none" xmlns="http://www.w3.org/2000/svg">
<path d="M17.6182 67.876H23.7865V46.0755H17.6182V67.876Z" fill="#003366"/>
<path d="M0.894351 45.8182C8.8614 41.1705 12.6235 36.5194 12.6235 36.5194C9.74698 36.2997 2.8886 32.9803 5.76512 30.3235C8.41851 27.8863 16.166 19.2568 15.9428 19.0371C14.6179 18.814 10.4129 17.0428 11.961 15.0519C13.5091 13.0575 16.1659 8.4098 18.38 3.7655C19.2621 1.99085 19.928 0 20.5905 0C21.2564 0 21.9224 1.99085 22.8046 3.7655C25.0186 8.4098 27.8951 13.2806 29.4466 15.0519C30.9913 17.0428 26.7863 18.814 25.4614 19.0371C25.2417 19.0371 32.9856 27.8863 35.6424 30.3235C38.5224 32.7572 31.8803 36.2997 28.7807 36.5194C28.7807 36.5194 32.5428 40.9474 40.5099 45.8182C44.4951 48.2519 34.6332 54.997 20.6797 54.997C6.72968 54.997 -3.09089 48.2519 0.894351 45.8182Z" fill="#003366"/>
</svg>
