<svg width="21" height="40" viewBox="0 0 21 40" fill="none" xmlns="http://www.w3.org/2000/svg">
<path d="M19.0847 8.59099C19.0847 9.41982 18.9694 10.2198 18.746 10.9838L18.6955 11.1568L16.6054 18.1261H4.04326L2.23425 10.991C2.01082 10.227 1.89551 9.42703 1.89551 8.5982C1.89551 3.84865 5.74416 0 10.4937 0C15.2433 0 19.0919 3.84865 19.0919 8.5982L19.0847 8.59099Z" fill="#003366"/>
<path d="M20.5626 36.0154C20.5626 36.0154 17.7662 39.309 10.4292 39.309C3.09229 39.309 0.295898 36.0154 0.295898 36.0154L0.533735 24.0586H20.3247L20.5626 36.0154Z" fill="#003366"/>
<path d="M20.4178 24.0565C20.4178 26.7881 15.9422 29.0007 10.4286 29.0007C4.91513 29.0007 0.439453 26.7881 0.439453 24.0565C0.439453 23.3574 0.727742 22.7016 1.25387 22.0962L4.15837 18.125H16.4899L19.6034 22.0962C20.1295 22.6944 20.4178 23.3574 20.4178 24.0565Z" fill="#003366"/>
<path d="M10.4288 29.4405C7.6973 29.4405 5.11712 28.9072 3.17117 27.9486C1.12432 26.9396 0 25.5558 0 24.0567C0 23.2711 0.309909 22.5216 0.908107 21.8225L3.7982 17.8657C3.87748 17.7504 4.01441 17.6855 4.15135 17.6855H16.4829C16.6198 17.6855 16.7423 17.7504 16.8288 17.8513L19.9351 21.8153C20.5405 22.5144 20.8504 23.2639 20.8504 24.0567C20.8504 25.5558 19.7261 26.9324 17.6793 27.9486C15.7333 28.9144 13.1532 29.4405 10.4216 29.4405H10.4288ZM4.38198 18.5648L1.60721 22.3558C1.60721 22.3558 1.59279 22.3774 1.58558 22.3846C1.11712 22.918 0.879277 23.4801 0.879277 24.0567C0.879277 26.5 5.25405 28.5612 10.4288 28.5612C15.6036 28.5612 19.9784 26.5 19.9784 24.0567C19.9784 23.4873 19.7405 22.9252 19.2721 22.3846C19.2721 22.3846 19.2649 22.3702 19.2577 22.363L16.2739 18.5576H4.37477L4.38198 18.5648Z" fill="white"/>
<path d="M10.4868 26.184C13.7587 26.184 16.4111 24.8836 16.4111 23.2795C16.4111 21.6754 13.7587 20.375 10.4868 20.375C7.21491 20.375 4.5625 21.6754 4.5625 23.2795C4.5625 24.8836 7.21491 26.184 10.4868 26.184Z" fill="white"/>
</svg>
