<svg width="59" height="67" viewBox="0 0 59 67" fill="none" xmlns="http://www.w3.org/2000/svg">
<path d="M31.323 1.02334C30.7401 0.375657 29.8981 0 29.0172 0C28.1364 0 27.2944 0.375657 26.7115 1.02334L8.05815 21.7493C7.24206 22.656 7.03481 23.9773 7.52705 25.0913C8.01929 26.2053 9.13331 26.9437 10.3639 26.9437H11.8924L3.86115 36.3222C3.07097 37.2419 2.88962 38.5373 3.39481 39.6383C3.90001 40.7394 5.00107 41.4519 6.21872 41.4519H9.32761L0.622721 53.0584C-0.0897327 54.004 -0.193362 55.2605 0.324786 56.3098C0.842934 57.359 1.93105 58.0326 3.10983 58.0326H20.7269H25.9084V63.2141C25.9084 64.9369 27.2944 66.323 29.0172 66.323C30.7401 66.323 32.1261 64.9369 32.1261 63.2141V58.0326H37.3076H54.9247C56.1034 58.0326 57.1786 57.372 57.7097 56.3098C58.2408 55.2476 58.1242 53.991 57.4118 53.0584L48.7069 41.4519H51.8158C53.0334 41.4519 54.1345 40.7394 54.6397 39.6383C55.1449 38.5373 54.9635 37.2419 54.1733 36.3222L46.142 26.9437H47.6706C48.9012 26.9437 50.0152 26.2183 50.5074 25.1043C50.9997 23.9903 50.8054 22.669 49.9763 21.7622L31.323 1.0363V1.02334ZM32.1261 51.8148V27.98C32.1261 26.2572 30.7401 24.8711 29.0172 24.8711C27.2944 24.8711 25.9084 26.2572 25.9084 27.98V51.8148H20.7269H9.32761L18.0325 40.2083C18.745 39.2627 18.8486 38.0062 18.3304 36.9569C17.8123 35.9077 16.7242 35.2341 15.5454 35.2341H12.9806L21.0119 25.8556C21.802 24.9359 21.9834 23.6405 21.4782 22.5394C20.973 21.4384 19.8719 20.7259 18.6543 20.7259H17.346L29.0172 7.75927L40.6885 20.7259H39.3802C38.1626 20.7259 37.0615 21.4384 36.5563 22.5394C36.0511 23.6405 36.2325 24.9359 37.0226 25.8556L45.0539 35.2341H42.4891C41.3103 35.2341 40.2352 35.8947 39.7041 36.9569C39.173 38.0191 39.2895 39.2756 40.002 40.2083L48.7069 51.8148H37.3076H32.1261Z" fill="#003366"/>
</svg>
