<svg width="34" height="34" viewBox="0 0 34 34" fill="none" xmlns="http://www.w3.org/2000/svg">
<mask id="path-1-outside-1_7175_3618" maskUnits="userSpaceOnUse" x="0" y="0" width="34" height="34" fill="black">
<rect fill="white" width="34" height="34"/>
<path d="M2 17C2 8.71573 8.71573 2 17 2C25.2843 2 32 8.71573 32 17C32 25.2843 25.2843 32 17 32C8.71573 32 2 25.2843 2 17Z"/>
</mask>
<path d="M2 17C2 8.71573 8.71573 2 17 2C25.2843 2 32 8.71573 32 17C32 25.2843 25.2843 32 17 32C8.71573 32 2 25.2843 2 17Z" fill="#2F6127" fill-opacity="0.9"/>
<path d="M17 32V30C9.8203 30 4 24.1797 4 17H2H0C0 26.3888 7.61116 34 17 34V32ZM32 17H30C30 24.1797 24.1797 30 17 30V32V34C26.3888 34 34 26.3888 34 17H32ZM17 2V4C24.1797 4 30 9.8203 30 17H32H34C34 7.61116 26.3888 0 17 0V2ZM17 2V0C7.61116 0 0 7.61116 0 17H2H4C4 9.8203 9.8203 4 17 4V2Z" fill="white" mask="url(#path-1-outside-1_7175_3618)"/>
<path d="M17.5555 9.24688C17.4149 9.09063 17.2118 9 16.9993 9C16.7868 9 16.5836 9.09063 16.443 9.24688L11.943 14.2469C11.7461 14.4656 11.6961 14.7844 11.8149 15.0531C11.9336 15.3219 12.2024 15.5 12.4993 15.5H12.868L10.9305 17.7625C10.7399 17.9844 10.6961 18.2969 10.818 18.5625C10.9399 18.8281 11.2055 19 11.4993 19H12.2493L10.1493 21.8C9.97738 22.0281 9.95238 22.3313 10.0774 22.5844C10.2024 22.8375 10.4649 23 10.7493 23H14.9993H16.2493V24.25C16.2493 24.6656 16.5836 25 16.9993 25C17.4149 25 17.7493 24.6656 17.7493 24.25V23H18.9993H23.2493C23.5336 23 23.793 22.8406 23.9211 22.5844C24.0493 22.3281 24.0211 22.025 23.8493 21.8L21.7493 19H22.4993C22.793 19 23.0586 18.8281 23.1805 18.5625C23.3024 18.2969 23.2586 17.9844 23.068 17.7625L21.1305 15.5H21.4993C21.7961 15.5 22.0649 15.325 22.1836 15.0563C22.3024 14.7875 22.2555 14.4688 22.0555 14.25L17.5555 9.25V9.24688ZM17.7493 21.5V15.75C17.7493 15.3344 17.4149 15 16.9993 15C16.5836 15 16.2493 15.3344 16.2493 15.75V21.5H14.9993H12.2493L14.3493 18.7C14.5211 18.4719 14.5461 18.1687 14.4211 17.9156C14.2961 17.6625 14.0336 17.5 13.7493 17.5H13.1305L15.068 15.2375C15.2586 15.0156 15.3024 14.7031 15.1805 14.4375C15.0586 14.1719 14.793 14 14.4993 14H14.1836L16.9993 10.8719L19.8149 14H19.4993C19.2055 14 18.9399 14.1719 18.818 14.4375C18.6961 14.7031 18.7399 15.0156 18.9305 15.2375L20.868 17.5H20.2493C19.9649 17.5 19.7055 17.6594 19.5774 17.9156C19.4493 18.1719 19.4774 18.475 19.6493 18.7L21.7493 21.5H18.9993H17.7493Z" fill="white"/>
</svg>
