<svg width="40" height="40" viewBox="0 0 40 40" fill="none" xmlns="http://www.w3.org/2000/svg">
<path d="M39.7189 37.8811C39.7189 37.8811 37.6505 36.0721 37.6144 32.0793V0H33.1676V1.93153H6.55135V0H2.1045V32.0793C2.06847 36.0721 0 37.8811 0 37.8811L0.0360369 37.8955H0V39.8559H39.7261V37.8955H39.6901L39.7261 37.8811H39.7189ZM21.1171 8.93694H18.5946C18.4649 8.93694 18.4649 8.81442 18.4937 8.74955C18.7027 8.1946 19.236 7.80541 19.8631 7.7982C20.4901 7.7982 21.0234 8.1946 21.2324 8.74955C21.2541 8.80721 21.2541 8.93694 21.1315 8.93694H21.1171ZM18.3856 3.01261L6.55135 15.7838V3.01261H18.3856ZM6.55135 32.0793V17.3766L19.3369 3.57478V7.13514C18.3712 7.37297 17.6577 8.23784 17.6577 9.26847V9.67928V14.7099C17.6577 15.2288 18.0829 15.6541 18.6018 15.6541H21.1099C21.6288 15.6541 22.0541 15.2288 22.0541 14.7099V9.67928V9.26847C22.0541 8.24504 21.355 7.3946 20.418 7.14955V3.01982H33.1676V32.0865C33.1315 36.0793 31.0631 37.8883 31.0631 37.8883L31.0991 37.9027H22.7892C22.6955 37.5856 22.3063 37.4054 21.6865 37.3189C21.8378 35.7117 21.427 33.6577 20.4829 32.3315C20.2955 32.1009 20.036 31.8991 19.8342 31.7478C19.9928 31.409 20.1441 31.0414 20.2811 30.6306C20.2811 30.6306 20.555 29.982 20.627 29.6793C20.627 29.6793 21.3766 29.7514 21.9604 30.1478C22.2703 30.3568 22.5874 30.5874 22.7243 30.7243C22.9694 30.9189 23.1784 30.9982 23.3802 30.9766C23.5027 31.0342 23.6324 31.0847 23.7405 31.1063C23.6757 31.0559 23.6036 30.9982 23.5315 30.9405C23.5748 30.9189 23.618 30.8901 23.6613 30.8613C23.7838 30.9189 23.9135 30.9838 24.0144 30.9694C23.9351 30.9117 23.8559 30.8396 23.7694 30.7676C23.791 30.7459 23.8198 30.7387 23.8414 30.7099C23.8414 30.7027 23.8487 30.6955 23.8559 30.6883C23.9712 30.7459 24.1009 30.8324 24.1946 30.8108C24.1153 30.7459 24.036 30.6523 23.9496 30.5658C23.9496 30.5658 23.9496 30.5514 23.9568 30.5514C23.964 30.5369 23.9712 30.5225 23.9784 30.5081C23.9856 30.4937 23.9928 30.4721 24 30.4577C24.1081 30.5081 24.2378 30.5802 24.3243 30.5586C24.173 30.4432 24.036 30.2487 23.8631 30.1478C23.827 30.1189 23.791 30.0901 23.7477 30.0541L23.5315 29.8595C23.4667 29.7946 23.409 29.7153 23.3586 29.6216C23.2 29.2324 22.991 28.8865 22.6955 28.5766L23.3153 28.3748C24.0793 28.1874 25.0811 27.4523 25.7009 26.7604C26.018 26.4288 26.0685 26.2703 26.2775 25.9892C26.3423 25.8883 26.3928 25.809 26.4288 25.7369C26.4649 25.7153 26.7532 25.5279 26.7532 25.5279C26.6811 25.4919 26.573 25.5279 26.4721 25.5495C26.4721 25.4991 26.4577 25.4559 26.4288 25.4054C26.5297 25.3333 26.6667 25.2468 26.6667 25.2468C26.5802 25.2108 26.4505 25.2613 26.3351 25.2973C26.3135 25.2757 26.3063 25.2613 26.2847 25.2396C26.2703 25.2252 26.2559 25.218 26.2414 25.2108C26.3423 25.146 26.4432 25.0883 26.5081 25.0595C26.4 25.0162 26.227 25.0811 26.0829 25.1099C26.0468 25.0955 26.0108 25.0811 25.9748 25.0667C26.0685 25.009 26.155 24.9658 26.2342 24.9297C25.9964 24.9514 25.5784 25.0162 25.3117 25.1892C25.2396 25.2252 25.1676 25.2613 25.0883 25.3045C24.1081 25.773 24.1874 26.5441 22.8829 26.0829C22.7243 25.9964 22.5153 25.8739 22.3135 25.7586C22.3135 25.3838 22.2703 25.0306 22.191 24.6775C22.1622 24.209 22.364 23.8991 22.6523 23.3369C22.7027 23.2432 22.7459 23.1496 22.7964 23.0414C22.9766 22.5586 23.2144 22.1117 23.582 21.7153C24.1081 21.182 24.418 21.0162 24.0793 20.2667C24.1874 19.6324 23.7838 19.7478 23.4378 19.9496C23.2 20.0144 22.9622 20.0505 22.7171 20.1081C22.0901 19.5171 21.1748 20.0505 20.5189 20.3532C19.7477 19.7189 18.5441 20.2883 19.4739 21.182C18.9838 21.6144 18.2703 22.6234 18.2703 22.6234C17.4991 23.8775 16.6919 24.2162 16.4757 24.7928C16.2378 25.7081 15.9712 26.7387 15.3009 27.4378C14.6162 28.1658 13.9027 29.0018 13.4486 30.0036C12.9946 31.0054 12.7207 32.6559 13.1315 33.9532C13.3189 34.5441 13.2901 35.409 13.2973 36.1802V36.1946C13.3045 36.8649 13.2685 37.4919 13.1676 37.8739C13.1676 37.8739 13.1676 37.8955 13.1604 37.9315H8.57658L8.61261 37.9171C8.61261 37.9171 6.54415 36.1081 6.50811 32.1153L6.55135 32.0793ZM16.7496 37.8883C16.6919 37.8162 16.627 37.7514 16.5477 37.7009L16.5333 37.6865C16.5333 37.6865 16.5189 37.6865 16.5045 37.6721C16.1153 37.4342 15.5676 37.3694 15.5676 37.3694C15.8054 36.5261 16.8937 35.9351 17.1099 35.0054C17.1099 35.0054 17.4631 35.2072 17.9243 35.5027C17.9676 35.5315 18.0108 35.5532 18.0613 35.582C18.1982 35.6685 18.3423 35.7694 18.5009 35.8775C18.5369 35.8991 18.5658 35.9279 18.6018 35.9496C18.6739 36 18.7459 36.0577 18.818 36.1153C18.9117 36.1946 19.0198 36.2739 19.1279 36.3676C19.6829 36.836 19.6973 37.5423 19.6901 37.8811H16.7568L16.7496 37.8883Z" fill="#003366"/>
</svg>
