<svg width="16" height="16" viewBox="0 0 16 16" fill="none" xmlns="http://www.w3.org/2000/svg">
<g clip-path="url(#clip0_13817_214139)">
<path d="M8 0C8.48125 0 8.94063 0.190625 9.28125 0.53125L15.4688 6.71875C15.8094 7.05937 16 7.51875 16 8C16 8.48125 15.8094 8.94063 15.4688 9.28125L9.28125 15.4688C8.94063 15.8094 8.48125 16 8 16C7.51875 16 7.05937 15.8094 6.71875 15.4688L0.53125 9.28125C0.190625 8.94063 0 8.48125 0 8C0 7.51875 0.190625 7.05937 0.53125 6.71875L6.71875 0.53125C7.05937 0.190625 7.51875 0 8 0ZM8 1.5C7.91875 1.5 7.8375 1.53125 7.78125 1.59063L1.59063 7.78125C1.53125 7.84062 1.5 7.91875 1.5 8C1.5 8.08125 1.53125 8.1625 1.59063 8.21875L7.78125 14.4094C7.84062 14.4688 7.91875 14.5 8 14.5C8.08125 14.5 8.1625 14.4688 8.21875 14.4094L14.4094 8.21875C14.4688 8.15938 14.5 8.08125 14.5 8C14.5 7.91875 14.4688 7.8375 14.4094 7.78125L8.21875 1.59063C8.15938 1.53125 8.08125 1.5 8 1.5ZM8 12C7.73478 12 7.48043 11.8946 7.29289 11.7071C7.10536 11.5196 7 11.2652 7 11C7 10.7348 7.10536 10.4804 7.29289 10.2929C7.48043 10.1054 7.73478 10 8 10C8.26522 10 8.51957 10.1054 8.70711 10.2929C8.89464 10.4804 9 10.7348 9 11C9 11.2652 8.89464 11.5196 8.70711 11.7071C8.51957 11.8946 8.26522 12 8 12ZM8 4C8.56875 4 9.02187 4.48438 8.98125 5.05312L8.75 8.30313C8.72188 8.69688 8.39375 9 8.00313 9C7.60938 9 7.28437 8.69688 7.25625 8.30313L7.025 5.05312C6.97813 4.48438 7.43125 4 8 4Z" fill="#003366"/>
</g>
<defs>
<clipPath id="clip0_13817_214139">
<rect width="16" height="16" fill="white"/>
</clipPath>
</defs>
</svg>
