<svg width="24" height="24" viewBox="0 0 24 24" fill="none" xmlns="http://www.w3.org/2000/svg">
<path fill-rule="evenodd" clip-rule="evenodd" d="M12.5309 2.46936C12.6007 2.53903 12.6561 2.6218 12.6939 2.71291C12.7318 2.80403 12.7512 2.90171 12.7512 3.00036C12.7512 3.09902 12.7318 3.1967 12.6939 3.28781C12.6561 3.37893 12.6007 3.4617 12.5309 3.53136L4.06038 12.0004L12.5309 20.4694C12.6717 20.6102 12.7508 20.8012 12.7508 21.0004C12.7508 21.1995 12.6717 21.3905 12.5309 21.5314C12.39 21.6722 12.199 21.7513 11.9999 21.7513C11.8007 21.7513 11.6097 21.6722 11.4689 21.5314L2.46888 12.5314C2.39903 12.4617 2.34362 12.3789 2.30581 12.2878C2.268 12.1967 2.24854 12.099 2.24854 12.0004C2.24854 11.9017 2.268 11.804 2.30581 11.7129C2.34362 11.6218 2.39903 11.539 2.46888 11.4694L11.4689 2.46936C11.5385 2.39952 11.6213 2.34411 11.7124 2.3063C11.8035 2.26849 11.9012 2.24902 11.9999 2.24902C12.0985 2.24902 12.1962 2.26849 12.2873 2.3063C12.3784 2.34411 12.4612 2.39952 12.5309 2.46936Z" fill="#003366"/>
<path fill-rule="evenodd" clip-rule="evenodd" d="M18.5309 2.46936C18.6007 2.53903 18.6561 2.6218 18.6939 2.71291C18.7318 2.80403 18.7512 2.90171 18.7512 3.00036C18.7512 3.09902 18.7318 3.1967 18.6939 3.28781C18.6561 3.37893 18.6007 3.4617 18.5309 3.53136L10.0604 12.0004L18.5309 20.4694C18.6006 20.5391 18.6559 20.6219 18.6937 20.713C18.7314 20.8041 18.7508 20.9017 18.7508 21.0004C18.7508 21.099 18.7314 21.1966 18.6937 21.2877C18.6559 21.3788 18.6006 21.4616 18.5309 21.5314C18.4611 21.6011 18.3784 21.6564 18.2873 21.6941C18.1961 21.7319 18.0985 21.7513 17.9999 21.7513C17.9013 21.7513 17.8036 21.7319 17.7125 21.6941C17.6214 21.6564 17.5386 21.6011 17.4689 21.5314L8.46888 12.5314C8.39903 12.4617 8.34362 12.3789 8.30581 12.2878C8.268 12.1967 8.24854 12.099 8.24854 12.0004C8.24854 11.9017 8.268 11.804 8.30581 11.7129C8.34362 11.6218 8.39903 11.539 8.46888 11.4694L17.4689 2.46936C17.5385 2.39952 17.6213 2.34411 17.7124 2.3063C17.8035 2.26849 17.9012 2.24902 17.9999 2.24902C18.0985 2.24902 18.1962 2.26849 18.2873 2.3063C18.3784 2.34411 18.4612 2.39952 18.5309 2.46936Z" fill="#003366"/>
</svg>
