<svg width="24" height="24" viewBox="0 0 24 24" fill="none" xmlns="http://www.w3.org/2000/svg">
<path fill-rule="evenodd" clip-rule="evenodd" d="M5.46888 2.46936C5.53854 2.39952 5.62131 2.34411 5.71243 2.3063C5.80354 2.26849 5.90123 2.24902 5.99988 2.24902C6.09853 2.24902 6.19621 2.26849 6.28733 2.3063C6.37844 2.34411 6.46121 2.39952 6.53088 2.46936L15.5309 11.4694C15.6007 11.539 15.6561 11.6218 15.6939 11.7129C15.7318 11.804 15.7512 11.9017 15.7512 12.0004C15.7512 12.099 15.7318 12.1967 15.6939 12.2878C15.6561 12.3789 15.6007 12.4617 15.5309 12.5314L6.53088 21.5314C6.39005 21.6722 6.19904 21.7513 5.99988 21.7513C5.80071 21.7513 5.60971 21.6722 5.46888 21.5314C5.32805 21.3905 5.24893 21.1995 5.24893 21.0004C5.24893 20.8012 5.32805 20.6102 5.46888 20.4694L13.9394 12.0004L5.46888 3.53136C5.39903 3.4617 5.34362 3.37893 5.30581 3.28781C5.268 3.1967 5.24854 3.09902 5.24854 3.00036C5.24854 2.90171 5.268 2.80403 5.30581 2.71291C5.34362 2.6218 5.39903 2.53903 5.46888 2.46936Z" fill="#003366"/>
<path fill-rule="evenodd" clip-rule="evenodd" d="M11.4689 2.46936C11.5385 2.39952 11.6213 2.34411 11.7124 2.3063C11.8035 2.26849 11.9012 2.24902 11.9999 2.24902C12.0985 2.24902 12.1962 2.26849 12.2873 2.3063C12.3784 2.34411 12.4612 2.39952 12.5309 2.46936L21.5309 11.4694C21.6007 11.539 21.6561 11.6218 21.6939 11.7129C21.7318 11.804 21.7512 11.9017 21.7512 12.0004C21.7512 12.099 21.7318 12.1967 21.6939 12.2878C21.6561 12.3789 21.6007 12.4617 21.5309 12.5314L12.5309 21.5314C12.39 21.6722 12.199 21.7513 11.9999 21.7513C11.8007 21.7513 11.6097 21.6722 11.4689 21.5314C11.328 21.3905 11.2489 21.1995 11.2489 21.0004C11.2489 20.8012 11.328 20.6102 11.4689 20.4694L19.9394 12.0004L11.4689 3.53136C11.399 3.4617 11.3436 3.37893 11.3058 3.28781C11.268 3.1967 11.2485 3.09902 11.2485 3.00036C11.2485 2.90171 11.268 2.80403 11.3058 2.71291C11.3436 2.6218 11.399 2.53903 11.4689 2.46936Z" fill="#003366"/>
</svg>
