<svg width="17" height="16" viewBox="0 0 17 16" fill="none" xmlns="http://www.w3.org/2000/svg">
<path d="M5.5 1.5H2C1.725 1.5 1.5 1.725 1.5 2V14C1.5 14.275 1.725 14.5 2 14.5H10C10.275 14.5 10.5 14.275 10.5 14V12.5H12V14C12 15.1031 11.1031 16 10 16H2C0.896875 16 0 15.1031 0 14V2C0 0.896875 0.896875 0 2 0H6.17188C6.70312 0 7.2125 0.209375 7.5875 0.584375L11.4156 4.41563C11.7906 4.79063 12 5.3 12 5.83125V8.00313H10.5V6.50313H7.75C6.50625 6.50313 5.5 5.49688 5.5 4.25313V1.50312V1.5ZM7.75 9.5H14.4406L13.4719 8.53125C13.1781 8.2375 13.1781 7.7625 13.4719 7.47188C13.7656 7.18125 14.2406 7.17813 14.5312 7.47188L16.7812 9.72188C17.075 10.0156 17.075 10.4906 16.7812 10.7812L14.5312 13.0312C14.2375 13.325 13.7625 13.325 13.4719 13.0312C13.1813 12.7375 13.1781 12.2625 13.4719 11.9719L14.4406 11.0031H7.75C7.33437 11.0031 7 10.6687 7 10.2531C7 9.8375 7.33437 9.50313 7.75 9.50313V9.5ZM9.87813 5L7 2.12188V4.25C7 4.66563 7.33437 5 7.75 5H9.87813Z" fill="#003366"/>
</svg>
