<svg width="18" height="18" viewBox="0 0 18 18" fill="none" xmlns="http://www.w3.org/2000/svg">
<path d="M2.38125 9.08438C2.57187 8.60938 2.50625 8.06563 2.20625 7.65C1.75312 7.02187 1.5 6.28438 1.5 5.5C1.5 3.4125 3.39062 1.5 6 1.5C8.60938 1.5 10.5 3.4125 10.5 5.5C10.5 7.5875 8.60938 9.5 6 9.5C5.50313 9.5 5.02812 9.42813 4.58437 9.29688C4.2625 9.2 3.91563 9.21875 3.60313 9.34375L2.02813 9.975L2.38438 9.08438H2.38125ZM0 5.5C0 6.61875 0.3625 7.65937 0.990625 8.525L0.059375 10.85C0.01875 10.95 0 11.0563 0 11.1625C0 11.625 0.375 12 0.8375 12C0.94375 12 1.05 11.9781 1.15 11.9406L4.15938 10.7375C4.74063 10.9094 5.35938 11 6 11C9.3125 11 12 8.5375 12 5.5C12 2.4625 9.3125 0 6 0C2.6875 0 0 2.4625 0 5.5ZM12 17C12.6438 17 13.2594 16.9062 13.8406 16.7375L16.85 17.9406C16.95 17.9812 17.0562 18 17.1625 18C17.625 18 18 17.625 18 17.1625C18 17.0562 17.9781 16.95 17.9406 16.85L17.0125 14.525C17.6375 13.6562 18.0031 12.6156 18.0031 11.5C18.0031 8.925 16.075 6.76562 13.4719 6.16563C13.4219 6.675 13.3125 7.1625 13.1562 7.63125C15.1531 8.09375 16.5063 9.73438 16.5063 11.5031C16.5063 12.2875 16.2531 13.025 15.8 13.6531C15.5 14.0687 15.4344 14.6094 15.625 15.0875L15.9812 15.9781L14.4062 15.3469C14.0938 15.2219 13.7469 15.2063 13.425 15.3C12.9812 15.4313 12.5062 15.5031 12.0094 15.5031C9.75312 15.5031 8.0375 14.075 7.6125 12.3406C7.125 12.4406 6.62187 12.4969 6.10938 12.5031C6.62187 15.0625 9.06875 17.0031 12.0094 17.0031L12 17Z" fill="#003366"/>
</svg>
