<svg width="14" height="18" viewBox="0 0 14 18" fill="none" xmlns="http://www.w3.org/2000/svg">
<path d="M7 0C7.89687 0 8.71562 0.50625 9.11875 1.30938L9.37187 1.81875C10.1156 1.6375 10.9125 1.85625 11.4656 2.40625L11.5938 2.54688C12.1594 3.21875 12.275 4.16563 11.8906 4.95625L11.8 5.12187L11.5719 5.5H11.9438C13.0781 5.5 13.9969 6.41875 13.9969 7.55312C13.9969 8.19687 13.6938 8.8 13.1875 9.1875L13.0844 9.25937L11.7406 10.1562L11.9594 10.2656L12.075 10.3281C12.6438 10.6656 13 11.2781 13 11.9469C13 12.6937 12.5563 13.3656 11.8813 13.6656L11.7437 13.7219L9.95 14.3562C9.06875 14.6687 8.30313 15.2344 7.75 15.9844V17.2469C7.75 17.6625 7.41563 17.9969 7 17.9969C6.58437 17.9969 6.25 17.6594 6.25 17.2469V15.9875C5.73438 15.2875 5.03438 14.7437 4.22813 14.4187L4.05312 14.3531L2.25625 13.7188C1.50312 13.4531 1 12.7406 1 11.9438C1 11.2313 1.40313 10.5813 2.04063 10.2625L2.25625 10.1531L0.9125 9.25625C0.34375 8.88125 0 8.24063 0 7.55312C0 6.41875 0.91875 5.5 2.05312 5.5H2.425L2.2 5.12187C1.675 4.24687 1.8125 3.12812 2.53437 2.40625L2.65625 2.29375C3.2 1.825 3.93438 1.65 4.62813 1.81562L4.88438 1.30625L4.96562 1.15937C5.38437 0.446875 6.15938 0 7 0ZM7 1.5C6.7125 1.5 6.44688 1.64062 6.2875 1.875L6.225 1.98125L5.82812 2.775C5.58125 3.26562 5.02188 3.50625 4.50313 3.35313L4.4 3.31875L4.375 3.30938C4.14062 3.21563 3.875 3.25313 3.67812 3.4L3.59375 3.46563C3.35938 3.7 3.3125 4.06562 3.48438 4.35L3.9375 5.10625C4.4375 5.94062 3.8375 7 2.86875 7H2.05312C1.74687 7 1.5 7.25 1.5 7.55312C1.5 7.7375 1.59375 7.90937 1.74688 8.0125L3.45 9.15L3.59063 9.25625C4.19375 9.79063 4.13438 10.7625 3.46875 11.2188L3.31562 11.3062L2.7125 11.6094C2.58438 11.675 2.50312 11.8062 2.5 11.95C2.5 12.1125 2.60312 12.2562 2.75625 12.3094L4.55 12.9438L4.78438 13.0312C5.3125 13.2406 5.80312 13.525 6.25 13.8656V6.75L6.25313 6.67188C6.29063 6.29375 6.6125 6 7 6C7.3875 6 7.70625 6.29375 7.74375 6.67188L7.75 6.75V13.8687C8.2625 13.475 8.83437 13.1625 9.45 12.9438L11.2437 12.3094L11.3 12.2844C11.4219 12.2188 11.5 12.0906 11.5 11.9469C11.5 11.8375 11.4531 11.7375 11.375 11.6656L11.2875 11.6062L10.6844 11.3031C9.825 10.875 9.75313 9.67813 10.55 9.14688L12.2531 8.00937C12.4062 7.90625 12.5 7.73438 12.5 7.55C12.5 7.24375 12.2531 6.99687 11.9469 6.99687H11.1313C10.1594 6.99687 9.5625 5.9375 10.0625 5.10313L10.5156 4.34688L10.5688 4.2375C10.6719 3.975 10.6094 3.66875 10.4062 3.46563C10.2281 3.2875 9.96875 3.21562 9.72812 3.27187L9.62813 3.30625L9.60312 3.31562C9.09375 3.51875 8.51562 3.325 8.22812 2.86875L8.175 2.775L7.77812 1.98125C7.62812 1.6875 7.32812 1.5 7 1.5Z" fill="#003366"/>
</svg>
