<svg width="16" height="16" viewBox="0 0 16 16" fill="none" xmlns="http://www.w3.org/2000/svg">
<path d="M1 2.75C1 1.23125 2.23125 0 3.75 0H12.75C13.9937 0 15 1.00625 15 2.25V10.25C15 11.0312 14.6031 11.7188 14 12.1219V14.5H14.25C14.6656 14.5 15 14.8344 15 15.25C15 15.6656 14.6656 16 14.25 16H3.5C2.11875 16 1 14.8813 1 13.5V2.75ZM2.5 13.5C2.5 14.0531 2.94687 14.5 3.5 14.5H12.5V12.5H3.5C2.94687 12.5 2.5 12.9469 2.5 13.5ZM2.5 11.2094C2.80625 11.075 3.14375 11 3.5 11H12.75C13.1656 11 13.5 10.6656 13.5 10.25V2.25C13.5 1.83438 13.1656 1.5 12.75 1.5H3.75C3.05938 1.5 2.5 2.05938 2.5 2.75V11.2094ZM10.45 6.75H9.60938C9.56875 7.36562 9.45312 7.92813 9.28438 8.39688C9.875 8.04063 10.3094 7.45 10.45 6.75ZM5.55 6.75C5.69063 7.44688 6.125 8.04063 6.71562 8.39688C6.54688 7.92813 6.43125 7.36562 6.39062 6.75H5.55ZM7.75938 8.30313C7.85938 8.51875 7.94375 8.63437 8 8.69687C8.05625 8.6375 8.14062 8.52188 8.24062 8.30313C8.41563 7.925 8.55625 7.3875 8.60313 6.75H7.39062C7.44063 7.3875 7.57812 7.925 7.75313 8.30313H7.75938ZM7.75938 4.19688C7.58437 4.575 7.44375 5.1125 7.39687 5.75H8.60938C8.55937 5.1125 8.42188 4.575 8.24687 4.19688C8.14687 3.98125 8.0625 3.86562 8.00625 3.80312C7.95 3.8625 7.86562 3.97813 7.76562 4.19688H7.75938ZM10.45 5.75C10.3094 5.05312 9.875 4.45937 9.28438 4.10313C9.45312 4.57188 9.56875 5.13438 9.60938 5.75H10.45ZM6.39062 5.75C6.43125 5.13438 6.54688 4.57188 6.71562 4.10313C6.125 4.45937 5.69063 5.05 5.55 5.75H6.39062ZM4.25 6.25C4.25 5.25544 4.64509 4.30161 5.34835 3.59835C6.05161 2.89509 7.00544 2.5 8 2.5C8.99456 2.5 9.94839 2.89509 10.6517 3.59835C11.3549 4.30161 11.75 5.25544 11.75 6.25C11.75 7.24456 11.3549 8.19839 10.6517 8.90165C9.94839 9.60491 8.99456 10 8 10C7.00544 10 6.05161 9.60491 5.34835 8.90165C4.64509 8.19839 4.25 7.24456 4.25 6.25Z" fill="#013366"/>
</svg>
