<svg width="21" height="21" viewBox="0 0 21 21" fill="none" xmlns="http://www.w3.org/2000/svg">
<path d="M14.6275 8.37639C14.6275 6.7185 13.9689 5.12852 12.7966 3.95622C11.6243 2.78391 10.0343 2.12532 8.37639 2.12532C6.7185 2.12532 5.12852 2.78391 3.95622 3.95622C2.78391 5.12852 2.12532 6.7185 2.12532 8.37639C2.12532 10.0343 2.78391 11.6243 3.95622 12.7966C5.12852 13.9689 6.7185 14.6275 8.37639 14.6275C10.0343 14.6275 11.6243 13.9689 12.7966 12.7966C13.9689 11.6243 14.6275 10.0343 14.6275 8.37639ZM13.4202 14.7486C12.0372 15.8464 10.283 16.5028 8.37639 16.5028C3.88734 16.5028 0.25 12.8654 0.25 8.37639C0.25 3.88734 3.88734 0.25 8.37639 0.25C12.8654 0.25 16.5028 3.88734 16.5028 8.37639C16.5028 10.283 15.8464 12.0372 14.7486 13.4202L19.9799 18.6516C20.3472 19.0188 20.3472 19.6127 19.9799 19.976C19.6127 20.3394 19.0188 20.3433 18.6555 19.976L13.4202 14.7486Z" fill="#003366" stroke="#003366" stroke-width="0.5"/>
</svg>
