<svg width="41" height="41" viewBox="0 0 41 41" fill="none" xmlns="http://www.w3.org/2000/svg">
<path d="M0.0449219 20.1113C0.0449219 9.06563 8.99923 0.111328 20.0449 0.111328C31.0906 0.111328 40.0449 9.06563 40.0449 20.1113C40.0449 31.157 31.0906 40.1113 20.0449 40.1113C8.99923 40.1113 0.0449219 31.157 0.0449219 20.1113Z" fill="#4F8747"/>
<g clip-path="url(#clip0_3676_310)">
    <path d="M22.7762 12.2865C23.0949 12.5521 23.1355 13.024 22.8699 13.3427L21.023 15.5521L28.3887 24.3646C28.6512 24.6802 28.7949 25.0771 28.7949 25.4865V26.3615C28.7949 27.3271 28.0105 28.1115 27.0449 28.1115H20.0449H13.0449C12.0793 28.1115 11.2949 27.3271 11.2949 26.3615V25.4865C11.2949 25.0771 11.4387 24.6802 11.7012 24.3646L19.0668 15.5521L17.2199 13.3427C16.9543 13.024 16.998 12.5521 17.3137 12.2865C17.6293 12.0209 18.1043 12.0646 18.3699 12.3802L20.0449 14.3834L21.7199 12.3802C21.9855 12.0615 22.4574 12.0209 22.7762 12.2865ZM12.8543 25.324C12.8168 25.3677 12.7949 25.4271 12.7949 25.4834V26.3584C12.7949 26.4959 12.9074 26.6084 13.0449 26.6084H14.9824L19.4543 20.899C19.5949 20.7177 19.8137 20.6115 20.0449 20.6115C20.2762 20.6115 20.4949 20.7177 20.6355 20.899L25.1074 26.6115H27.0449C27.1824 26.6115 27.2949 26.499 27.2949 26.3615V25.4865C27.2949 25.4271 27.273 25.3709 27.2355 25.3271L20.0449 16.7209L12.8543 25.324ZM16.8887 26.6115H20.0449H23.2012L20.0449 22.5771L16.8887 26.6115Z" fill="white"/>
</g>
<defs>
    <clipPath id="clip0_3676_310">
        <rect width="18" height="16" fill="white" transform="translate(11.0449 12.1113)"/>
    </clipPath>
</defs>
</svg>
