<svg width="41" height="41" viewBox="0 0 41 41" fill="none" xmlns="http://www.w3.org/2000/svg">
    <path d="M0.0449219 20.1113C0.0449219 9.06563 8.99923 0.111328 20.0449 0.111328C31.0906 0.111328 40.0449 9.06563 40.0449 20.1113C40.0449 31.157 31.0906 40.1113 20.0449 40.1113C8.99923 40.1113 0.0449219 31.157 0.0449219 20.1113Z" fill="#4F8747"/>
    <path d="M25.5386 13.1855C25.6597 13.2667 25.7324 13.403 25.7324 13.5488V20.1113C25.7324 20.2902 25.6235 20.4511 25.4574 20.5175L25.2949 20.1113C25.4574 20.5175 25.4575 20.5175 25.4574 20.5175L25.4551 20.5184L25.4497 20.5206L25.4298 20.5285C25.4125 20.5352 25.3873 20.545 25.355 20.5574C25.2905 20.5821 25.1976 20.6172 25.0821 20.6592C24.8515 20.7431 24.5299 20.8549 24.1658 20.967C23.4523 21.1865 22.5225 21.4238 21.7949 21.4238C21.054 21.4238 20.4401 21.1782 19.9068 20.9648L19.8824 20.955C19.3276 20.7331 18.8552 20.5488 18.2949 20.5488C17.6823 20.5488 16.8613 20.7494 16.1622 20.9666C15.8193 21.0731 15.5175 21.1798 15.3016 21.2598C15.2774 21.2688 15.2544 21.2774 15.2324 21.2857V26.6738C15.2324 26.9155 15.0365 27.1113 14.7949 27.1113C14.5533 27.1113 14.3574 26.9155 14.3574 26.6738V13.5488C14.3574 13.3072 14.5533 13.1113 14.7949 13.1113C15.0365 13.1113 15.2324 13.3072 15.2324 13.5488V13.7958C15.4303 13.7266 15.6665 13.6474 15.9241 13.5682C16.6375 13.3487 17.5674 13.1113 18.2949 13.1113C19.0306 13.1113 19.6283 13.3536 20.1508 13.5654C20.1635 13.5706 20.1762 13.5757 20.1888 13.5808C20.7325 13.8011 21.2068 13.9863 21.7949 13.9863C22.4076 13.9863 23.2285 13.7857 23.9277 13.5685C24.2706 13.462 24.5723 13.3553 24.7882 13.2753C24.896 13.2354 24.9821 13.2022 25.0408 13.1791C25.0702 13.1676 25.0927 13.1587 25.1076 13.1527L25.1242 13.146L25.1281 13.1444L25.1289 13.1441M24.8574 14.181C24.6653 14.2491 24.4368 14.3266 24.1873 14.4041C23.4781 14.6244 22.5491 14.8613 21.7949 14.8613C21.0194 14.8613 20.4018 14.6112 19.8669 14.3945L19.8603 14.3918C19.3116 14.1696 18.8539 13.9863 18.2949 13.9863C17.71 13.9863 16.8898 14.1865 16.1814 14.4045C15.8346 14.5112 15.5273 14.6181 15.3067 14.6983C15.2807 14.7077 15.2559 14.7168 15.2324 14.7255V20.3542C15.4246 20.286 15.653 20.2086 15.9026 20.131C16.6117 19.9107 17.5407 19.6738 18.2949 19.6738C19.0358 19.6738 19.6497 19.9195 20.183 20.1329L20.2074 20.1426C20.7622 20.3645 21.2346 20.5488 21.7949 20.5488C22.3799 20.5488 23.2 20.3487 23.9084 20.1307C24.2552 20.024 24.5625 19.9171 24.7831 19.8369C24.8091 19.8274 24.8339 19.8183 24.8574 19.8097V14.181Z" fill="white"/>
    <path d="M25.4574 20.5175C25.6235 20.4511 25.7324 20.2902 25.7324 20.1113V13.5488C25.7324 13.403 25.6597 13.2667 25.5386 13.1855L25.1289 13.1441L25.1281 13.1444L25.1242 13.146L25.1076 13.1527C25.0927 13.1587 25.0702 13.1676 25.0408 13.1791C24.9821 13.2022 24.896 13.2354 24.7882 13.2753C24.5723 13.3553 24.2706 13.462 23.9277 13.5685C23.2285 13.7857 22.4076 13.9863 21.7949 13.9863C21.2068 13.9863 20.7325 13.8011 20.1888 13.5808C20.1762 13.5757 20.1635 13.5706 20.1508 13.5654C19.6283 13.3536 19.0306 13.1113 18.2949 13.1113C17.5674 13.1113 16.6375 13.3487 15.9241 13.5682C15.6665 13.6474 15.4303 13.7266 15.2324 13.7958V13.5488C15.2324 13.3072 15.0365 13.1113 14.7949 13.1113C14.5533 13.1113 14.3574 13.3072 14.3574 13.5488V26.6738C14.3574 26.9155 14.5533 27.1113 14.7949 27.1113C15.0365 27.1113 15.2324 26.9155 15.2324 26.6738V21.2857C15.2544 21.2774 15.2774 21.2688 15.3016 21.2598C15.5175 21.1798 15.8193 21.0731 16.1622 20.9666C16.8613 20.7494 17.6823 20.5488 18.2949 20.5488C18.8552 20.5488 19.3276 20.7331 19.8824 20.955L19.9068 20.9648C20.4401 21.1782 21.054 21.4238 21.7949 21.4238C22.5225 21.4238 23.4523 21.1865 24.1658 20.967C24.5299 20.8549 24.8515 20.7431 25.0821 20.6592C25.1976 20.6172 25.2905 20.5821 25.355 20.5574C25.3873 20.545 25.4125 20.5352 25.4298 20.5285L25.4497 20.5206L25.4552 20.5184L25.4574 20.5175ZM25.4574 20.5175L25.2949 20.1113C25.4574 20.5175 25.4575 20.5175 25.4574 20.5175ZM24.1873 14.4041C24.4368 14.3266 24.6653 14.2491 24.8574 14.181V19.8097C24.8339 19.8183 24.8091 19.8274 24.7831 19.8369C24.5625 19.9171 24.2552 20.024 23.9084 20.1307C23.2 20.3487 22.3799 20.5488 21.7949 20.5488C21.2346 20.5488 20.7622 20.3645 20.2074 20.1426L20.183 20.1329C19.6497 19.9195 19.0358 19.6738 18.2949 19.6738C17.5407 19.6738 16.6117 19.9107 15.9026 20.131C15.653 20.2086 15.4246 20.286 15.2324 20.3542V14.7255C15.2559 14.7168 15.2807 14.7077 15.3067 14.6983C15.5273 14.6181 15.8346 14.5112 16.1814 14.4045C16.8898 14.1865 17.71 13.9863 18.2949 13.9863C18.8539 13.9863 19.3116 14.1696 19.8603 14.3918L19.8669 14.3945C20.4018 14.6112 21.0194 14.8613 21.7949 14.8613C22.5491 14.8613 23.4781 14.6244 24.1873 14.4041Z" stroke="white" stroke-width="0.75" stroke-linecap="round" stroke-linejoin="round"/>
</svg>
