<svg width="100" height="100" viewBox="0 0 100 100" fill="none" xmlns="http://www.w3.org/2000/svg">
<g clip-path="url(#clip0_1675_30822)">
<rect width="100" height="100" fill="white"/>
<g clip-path="url(#clip1_1675_30822)">
<rect width="100" height="100" rx="2.5" fill="white"/>
<path d="M99.9647 6.54867C99.9647 2.93805 97.0339 0 93.4322 0H6.53249C2.93079 0 0 2.93805 0 6.54867V93.4513C0 97.0619 2.93079 100 6.53249 100H93.4675C97.0692 100 100 97.0619 100 93.4513V6.54867H99.9647Z" fill="#4E6086"/>
</g>
<rect x="8.33203" y="10.5292" width="82.427" height="81.2324" fill="white"/>
<path d="M90.8524 8H8.14976C7.52736 8 7 8.52736 7 9.1497V91.8524C7 92.4749 7.52736 93 8.14976 93H90.8524C91.4749 93 92 92.4749 92 91.8524V9.1497C92 8.52736 91.4749 8 90.8524 8ZM14.5403 83.7136V45.0637C30.1415 45.0637 52.2782 51.1214 58.2927 59.3466L48.4983 64.8338C47.1973 65.6573 47.4048 66.3316 48.9651 66.3316H59.9027C57.1882 76.089 32.0477 83.7136 14.5403 83.7136ZM62.9715 35.9134H14.5878V21.786H62.9715V35.9134ZM81.3002 77.0162C81.365 80.6837 78.4496 83.7092 74.7908 83.7741C71.1233 83.8453 68.0978 80.9235 68.0264 77.2647H68.0351L68.0501 77.1394C67.8882 69.5192 68.3657 60.4467 68.1215 51.2316C67.6072 51.0781 67.1339 50.769 66.7383 50.3498C65.5606 49.0942 65.6168 47.1167 66.8724 45.9368C67.1685 45.6536 67.484 45.4656 67.8362 45.323C67.7692 44.3051 67.8795 15.5813 67.8795 15.5813H69.8915C69.8915 15.5813 69.8179 44.5861 69.8591 45.1911C70.3821 45.3403 70.8899 45.6385 71.2898 46.0621C72.474 47.3156 72.4157 49.2951 71.1601 50.4795C70.8338 50.7863 70.4491 51.0177 70.0622 51.1602C70.3043 60.1938 69.9131 69.1972 70.0881 77.215C70.1336 79.7328 72.2255 81.7555 74.7498 81.7058C77.2739 81.6604 79.2838 79.5792 79.2384 77.0551C79.2211 76.4218 78.6895 74.868 78.4452 74.3234L76.0788 76.8541L77.0556 66.0225L80.6367 73.9495C81.473 75.808 81.3002 77.0162 81.3002 77.0162ZM84.5159 35.9392H74.6374V21.7838H84.5159V35.9392Z" fill="#4E6086"/>
<path d="M42.0005 56.1524C40.2911 56.1524 38.8906 57.4771 38.8906 59.1175C38.8906 60.7448 40.2911 62.0739 42.0005 62.0739C43.7121 62.0739 45.1126 60.7448 45.1126 59.1175C45.1126 57.4771 43.7121 56.1524 42.0005 56.1524Z" fill="#4E6086"/>
<path d="M32.9004 53.1841C33.0517 53.1279 33.3889 52.3348 32.9739 52.4212C28.7467 53.2792 24.1543 59.3433 24.1543 63.9811C24.1543 68.5326 28.6516 74.5579 32.7513 75.5066C33.1641 75.6039 32.8464 74.8043 32.7016 74.7588C29.4167 73.7366 26.9984 67.8886 26.9984 63.9811C26.9984 60.0047 29.0817 54.5931 32.9004 53.1841Z" fill="#4E6086"/>
</g>
<defs>
<clipPath id="clip0_1675_30822">
<rect width="100" height="100" fill="white"/>
</clipPath>
<clipPath id="clip1_1675_30822">
<rect width="100" height="100" rx="2.5" fill="white"/>
</clipPath>
</defs>
</svg>
