<svg width="100" height="100" viewBox="0 0 100 100" fill="none" xmlns="http://www.w3.org/2000/svg">
<g clip-path="url(#clip0_1675_30807)">
<rect width="100" height="100" fill="white"/>
<g clip-path="url(#clip1_1675_30807)">
<rect width="100" height="100" rx="2.5" fill="white"/>
<path d="M99.9647 6.54867C99.9647 2.93805 97.0339 0 93.4322 0H6.53249C2.93079 0 0 2.93805 0 6.54867V93.4513C0 97.0619 2.93079 100 6.53249 100H93.4675C97.0692 100 100 97.0619 100 93.4513V6.54867H99.9647Z" fill="#4E6086"/>
</g>
<g clip-path="url(#clip2_1675_30807)">
<rect width="100" height="100" rx="2.5" fill="white"/>
<path d="M99.9647 6.54867C99.9647 2.93805 97.0339 0 93.4322 0H6.53249C2.93079 0 0 2.93805 0 6.54867V93.4513C0 97.0619 2.93079 100 6.53249 100H93.4675C97.0692 100 100 97.0619 100 93.4513V6.54867H99.9647Z" fill="#4E6086"/>
</g>
<path d="M67.0831 10L60.9997 16.4167L52.4997 18.75C50.0831 18.5833 47.5831 21.0833 47.1664 22.5833L46.3331 30.0833C46.3331 30.0833 37.9997 29.3333 34.3331 28.8333C30.6664 28.4167 27.9997 30.4167 27.5831 34.5833C27.4164 36.3333 26.6664 45.75 26.4164 49.5833C26.0831 53.4167 27.8331 56.1667 32.7497 57C36.0831 57.5833 48.9997 59.5833 48.9997 59.5833L57.8331 69.5C58.5831 70.4167 59.9997 70.8333 61.5831 70.8333L47.7498 82.9167L43.7498 89.9167H86.9997V10H67.0831ZM64.6664 68.1667C61.4164 64.3333 53.2497 54.5833 52.9164 54.25C52.4997 53.75 51.9998 53.5 51.4164 53.4167C50.8331 53.4167 36.4997 50.5833 36.4997 50.5833L37.7497 35.25L49.6664 36.4167C49.6664 36.4167 49.6664 36.4167 49.7497 36.4167C50.4164 36.4167 50.9164 35.9167 50.9164 35.3333C50.9164 34.9167 51.9997 22.75 51.9997 22.75L59.4997 33.1667L65.3331 58.5833L64.5831 68.1667H64.6664Z" fill="white"/>
<path d="M33.5832 12.6672C36.8332 12.0005 39.9165 14.0838 40.5832 17.3338C41.3332 20.6672 39.2498 23.9172 36.0832 24.5838C32.9165 25.3338 29.7498 23.2505 29.0832 19.9172C28.4165 16.6672 30.4165 13.4172 33.5832 12.6672Z" fill="white"/>
<path d="M14.25 49.917C14.25 49.2503 14.5833 47.167 14.8333 44.5837C13.9167 44.417 13.1667 43.7503 13 42.7503C13 42.5003 13 42.2503 13 42.0003C13 41.7503 14 33.3337 14.25 30.917C14.5 28.5003 16.6667 26.7503 19.1667 27.0003C21.5833 27.2503 24.25 27.5837 24.25 27.5837L21.25 54.167C21.25 54.167 19.1667 53.917 17.3333 53.7503C15.5 53.5837 14.0833 51.8337 14.3333 50.0003L14.25 49.917Z" fill="white"/>
<path d="M40.416 67.5C40.416 67.5 38.8327 64 37.8327 61.9167C34.7494 61.4167 31.9993 61 31.9993 61C30.9993 60.8333 29.9993 60.5833 29.166 60.25C31.0827 64.1667 34.0827 70.25 34.0827 70.25C34.0827 70.25 33.7493 82 33.7493 84.0833C33.7493 86.3333 36.8327 89.5 39.7494 89.9167C39.916 86.6667 40.7493 69.1667 40.7493 68.75C40.7493 68.3333 40.7493 67.9167 40.4993 67.5H40.416Z" fill="white"/>
</g>
<defs>
<clipPath id="clip0_1675_30807">
<rect width="100" height="100" fill="white"/>
</clipPath>
<clipPath id="clip1_1675_30807">
<rect width="100" height="100" rx="2.5" fill="white"/>
</clipPath>
<clipPath id="clip2_1675_30807">
<rect width="100" height="100" rx="2.5" fill="white"/>
</clipPath>
</defs>
</svg>
