<svg width="100" height="100" viewBox="0 0 100 100" fill="none" xmlns="http://www.w3.org/2000/svg">
<g clip-path="url(#clip0_1675_30829)">
<rect width="100" height="100" fill="white"/>
<g clip-path="url(#clip1_1675_30829)">
<rect width="100" height="100" rx="2.5" fill="white"/>
<path d="M99.9647 6.54867C99.9647 2.93805 97.0339 0 93.4322 0H6.53249C2.93079 0 0 2.93805 0 6.54867V93.4513C0 97.0619 2.93079 100 6.53249 100H93.4675C97.0692 100 100 97.0619 100 93.4513V6.54867H99.9647Z" fill="#4E6086"/>
</g>
<rect x="11.2715" y="14.6628" width="75.2614" height="74.0648" fill="white"/>
<path d="M90.8524 8H8.14761C7.52519 8 7 8.52512 7 9.14969V91.8502C7 92.4726 7.5252 93 8.14761 93H90.8524C91.4749 93 92 92.4726 92 91.8502V9.14969C92 8.52512 91.4749 8 90.8524 8Z" fill="#4E6086"/>
<path d="M77.3895 41.0038V81.3804H71.8762V38.3629L49.4603 27.6242L27.0421 38.3954V81.3804H21.5289V41.0448L16.7202 43.3552L16.7051 34.8186L49.4603 18.9969L82.2932 34.9289L82.2975 43.3552L77.3895 41.0038Z" fill="white"/>
<path d="M48.7832 81.3767H49.9164V68.4945H48.8084L48.7832 81.3767Z" fill="white"/>
<path d="M37.1103 66.6573C37.1103 66.6573 39.9419 70.3367 41.7831 71.4671C43.6271 72.5975 46.593 73.7363 47.3066 74.5841C48.0116 75.4319 48.8623 75.8572 48.8623 75.8572V77.2758C48.8623 77.2758 48.2943 78.1208 45.8907 77.4157C43.4787 76.705 41.3578 76.705 39.7964 74.8667C38.2435 73.0256 37.2501 70.9019 37.1103 68.9209C37.0292 67.7821 37.1103 66.6573 37.1103 66.6573Z" fill="white"/>
<path d="M49.8526 76.7045C49.8526 76.7045 50.4178 73.8757 51.5538 73.3077C52.6842 72.7397 54.1001 72.8796 55.6586 71.889C57.2171 70.9013 60.7511 68.0698 61.1793 67.0792C61.6046 66.0859 62.069 65.8537 61.8843 67.5018C61.7445 68.7776 61.3191 71.3267 58.633 73.3077C57.2983 74.2898 53.8146 74.8661 53.1095 75.8567C52.4016 76.8416 51.9735 78.2602 51.1229 78.5455C50.2779 78.8282 49.707 78.1203 49.707 78.1203L49.8526 76.7045Z" fill="white"/>
<path d="M49.3582 61.3928C51.1797 61.3928 52.6599 59.9099 52.6599 58.0855C52.6599 56.264 51.1797 54.7839 49.3582 54.7839C47.5282 54.7839 46.0508 56.264 46.0508 58.0855C46.0508 59.9099 47.5282 61.3928 49.3582 61.3928Z" fill="white"/>
<path d="M49.4255 53.6283C49.4255 53.6283 49.4255 53.3456 48.8603 52.9204C48.2923 52.4979 47.4473 51.5074 47.4473 50.7995C47.4473 50.0887 47.6235 49.2186 48.1161 48.8492C48.7567 48.3708 49.4032 48.1805 50.3461 48.5667C51.4766 49.0283 51.5549 50.3713 51.4094 50.9394C51.2695 51.5074 50.5811 52.7105 50.0271 52.9539C49.4619 53.2029 49.4255 53.6283 49.4255 53.6283Z" fill="white"/>
<path d="M49.6065 52.2162H49.2539V53.7383H49.6065V52.2162Z" fill="white"/>
<path d="M46.4263 54.8696C46.4263 54.8696 46.2276 54.6709 45.5225 54.7688C44.823 54.8696 43.5247 54.7688 43.021 54.268C42.5202 53.7671 42.0305 53.0257 42.12 52.4185C42.2348 51.6266 42.5566 51.0391 43.4995 50.6418C44.6243 50.1661 45.6233 51.067 45.9227 51.5651C46.2276 52.0687 46.5914 53.409 46.3759 53.9686C46.1521 54.545 46.4263 54.8696 46.4263 54.8696Z" fill="white"/>
<path d="M45.2969 53.9953L46.3742 55.0669L46.6232 54.8208L45.5487 53.7435L45.2969 53.9953Z" fill="white"/>
<path d="M45.0809 57.9175C45.0809 57.9175 44.7983 57.9175 44.373 58.4799C43.9477 59.0508 42.96 59.8958 42.2492 59.8958C41.5413 59.8958 40.6767 59.7195 40.2989 59.2214C39.8288 58.5835 39.6358 57.9399 40.0163 56.997C40.478 55.8638 41.8239 55.7883 42.3891 55.931C42.9599 56.0737 44.1687 56.762 44.4094 57.3103C44.6556 57.8812 45.0809 57.9175 45.0809 57.9175Z" fill="white"/>
<path d="M45.1891 57.7411H43.6641V58.0909H45.1891V57.7411Z" fill="white"/>
<path d="M46.2851 61.0169C46.2851 61.0169 46.0837 61.2183 46.1844 61.9206C46.2851 62.6201 46.1843 63.9212 45.6835 64.4248C45.1826 64.9201 44.444 65.4153 43.834 65.3202C43.0365 65.2055 42.4545 64.8865 42.0544 63.9436C41.5787 62.8216 42.4797 61.8199 42.9777 61.5205C43.4758 61.2183 44.8217 60.8518 45.3813 61.0701C45.9577 61.2939 46.2851 61.0169 46.2851 61.0169Z" fill="white"/>
<path d="M45.4081 62.1482L46.4826 61.0709L46.2363 60.8136L45.1562 61.8936L45.4081 62.1482Z" fill="white"/>
<path d="M49.3276 62.363C49.3276 62.363 49.3275 62.6457 49.8984 63.0766C50.4636 63.4991 51.3142 64.4923 51.3142 65.1946C51.3142 65.9053 51.1379 66.7727 50.6398 67.1449C49.9991 67.6205 49.3556 67.8108 48.4098 67.4303C47.2765 66.9658 47.2066 65.6228 47.3493 65.0548C47.4892 64.4923 48.1775 63.2808 48.7288 63.0374C49.294 62.7884 49.3276 62.363 49.3276 62.363Z" fill="white"/>
<path d="M49.5058 62.2612H49.1504V63.7777H49.5058V62.2612Z" fill="white"/>
<path d="M52.2852 61.1013C52.2852 61.1013 52.4923 61.3056 53.189 61.2048C53.8914 61.1013 55.1925 61.2048 55.6933 61.7057C56.1942 62.2038 56.6838 62.9452 56.5943 63.5524C56.4768 64.347 56.155 64.9318 55.2148 65.3319C54.0873 65.8076 53.0883 64.9122 52.7889 64.4058C52.4923 63.9105 52.1202 62.5647 52.3356 62.0051C52.5651 61.4287 52.2852 61.1013 52.2852 61.1013Z" fill="white"/>
<path d="M53.4181 61.9821L52.3408 60.9021L52.0918 61.1539L53.1663 62.2311L53.4181 61.9821Z" fill="white"/>
<path d="M53.5332 58.2137C53.5332 58.2137 53.8158 58.2137 54.2384 57.6457C54.6664 57.0833 55.657 56.2271 56.3649 56.2271C57.07 56.2271 57.9402 56.409 58.3124 56.9042C58.7908 57.5477 58.9783 58.1913 58.5949 59.137C58.136 60.2674 56.7874 60.3374 56.2222 60.1975C55.657 60.052 54.451 59.3637 54.2047 58.8124C53.9557 58.25 53.5332 58.2137 53.5332 58.2137Z" fill="white"/>
<path d="M54.9535 58.0422H53.4258V58.3948H54.9535V58.0422Z" fill="white"/>
<path d="M52.4707 55.2557C52.4707 55.2557 52.6694 55.057 52.5658 54.3548C52.4707 53.6553 52.5658 52.3569 53.0695 51.8505C53.5704 51.3552 54.3118 50.86 54.9219 50.9524C55.7165 51.0699 56.3013 51.3861 56.7014 52.3317C57.1771 53.4537 56.2761 54.4554 55.7753 54.7576C55.2744 55.057 53.9313 55.4236 53.3717 55.211C52.7981 54.9759 52.4707 55.2557 52.4707 55.2557Z" fill="white"/>
<path d="M53.3468 54.1287L52.2695 55.2087L52.5214 55.4549L53.6015 54.3805L53.3468 54.1287Z" fill="white"/>
</g>
<defs>
<clipPath id="clip0_1675_30829">
<rect width="100" height="100" fill="white"/>
</clipPath>
<clipPath id="clip1_1675_30829">
<rect width="100" height="100" rx="2.5" fill="white"/>
</clipPath>
</defs>
</svg>
