<svg width="100" height="100" viewBox="0 0 100 100" fill="none" xmlns="http://www.w3.org/2000/svg">
<g clip-path="url(#clip0_1675_30869)">
<rect width="100" height="100" fill="white"/>
<g clip-path="url(#clip1_1675_30869)">
<rect width="100" height="100" rx="2.5" fill="white"/>
<path d="M99.9647 6.54867C99.9647 2.93805 97.0339 0 93.4322 0H6.53249C2.93079 0 0 2.93805 0 6.54867V93.4513C0 97.0619 2.93079 100 6.53249 100H93.4675C97.0692 100 100 97.0619 100 93.4513V6.54867H99.9647Z" fill="#4E6086"/>
</g>
<path d="M56.2095 24.7404C58.7708 25.5173 61.4743 24.0342 62.3281 21.3504C63.1107 18.7373 61.6877 15.9829 59.1265 15.206C56.5652 14.4291 53.7905 15.9123 53.0079 18.596C52.2253 21.2092 53.6482 23.9635 56.2095 24.7404ZM58.9842 43.5267C59.3399 44.3036 59.8379 44.798 60.6206 45.0805L68.2332 47.9055C70.0119 48.4705 72.2174 47.1992 73 45.0805L63.253 41.1961L60.0514 31.3086C60.0514 31.3086 59.9091 29.8961 57.3478 28.9779L52.2253 27.0004C52.2253 27.0004 49.9486 26.0117 48.0277 27.2829L39.0632 32.1561C39.0632 32.1561 38.2095 32.4386 37.2134 34.4161L33.6561 41.2667C32.8024 42.9617 34.083 45.4336 35.9328 46.493L41.1265 36.7467L47.8142 33.4979L44.7549 42.1848C44.4704 43.4561 44.6126 45.363 45.8221 46.8461C47.1028 48.3998 48.5257 49.9536 49.3794 50.8717L58.3439 60.053L59.2688 70.4349C56.2806 70.8586 54.4308 71.5649 51.7273 72.6243L49.8063 73.3305C49.2372 73.5424 47.8142 73.6836 47.0316 73.7543H46.1779L46.0356 75.873L46.8893 76.0143C47.6719 76.1555 49.0949 76.438 49.5929 76.7205L51.3715 77.568C54.004 78.8393 55.7826 79.6868 58.6996 80.393C59.9091 80.6755 64.1779 81.2405 66.5257 80.8874C68.8735 80.6049 71.6482 78.3449 71.7194 75.9436C71.8617 73.5424 69.3004 71.0705 66.9526 70.5761C66.2411 70.4349 65.3874 70.2936 64.5336 70.2936L63.751 58.4992C63.751 58.4992 63.8221 56.663 62.8261 55.3917L54.5731 45.7867L56.9209 38.0886L58.913 43.4561L58.9842 43.5267ZM61.332 73.4011L66.17 74.0368C67.166 74.2486 68.2332 75.4493 68.3044 75.9436C68.3044 76.438 67.0237 77.568 66.0277 77.6386L59.4111 77.2149C59.4111 77.2149 56.5652 76.0849 54.5731 75.308C56.6364 74.743 60.5494 73.613 61.332 73.3305V73.4011ZM47.6008 58.9936L48.3834 54.8974C47.4585 53.9792 46.8182 53.273 46.8182 53.273L43.0474 49.0355C43.0474 49.0355 43.0474 48.9648 43.0474 48.8942L41.2688 58.2874L34.083 64.6436C33.585 64.5024 33.2292 64.4317 32.9447 64.3611C30.0277 63.7961 28.1067 63.7961 25.1897 63.8667H23.2688C22.6996 63.8667 21.3478 63.5842 20.5652 63.3724L19.7826 63.1605L19.498 63.9374L19 65.0674L19.7115 65.4911C20.4229 65.8442 21.6324 66.6211 21.9881 67.0449L23.3399 68.4574C25.332 70.5055 26.6126 72.0593 29.1028 73.6836C30.0988 74.3193 33.7984 76.2261 36.1462 76.7205C38.4229 77.2149 41.7668 75.873 42.6917 73.6836C43.6166 71.4943 42.0514 68.3868 40.1304 67.1155C39.9881 67.0449 39.8458 66.9036 39.6324 66.833L45.9644 61.6067C46.4625 61.1124 47.3874 60.1236 47.6719 58.9936H47.6008ZM39.419 72.4124C39.2055 72.8361 37.6403 73.613 36.7154 73.4011L30.8103 70.8586C30.8103 70.8586 28.6759 68.8105 27.1107 67.398C29.1739 67.5392 32.0909 67.6805 32.0909 67.6805L38.0672 69.9405C38.7787 70.4349 39.3478 71.6355 39.3478 72.2005C39.3478 72.2005 39.3478 72.2711 39.3478 72.3418L39.419 72.4124Z" fill="white"/>
</g>
<defs>
<clipPath id="clip0_1675_30869">
<rect width="100" height="100" fill="white"/>
</clipPath>
<clipPath id="clip1_1675_30869">
<rect width="100" height="100" rx="2.5" fill="white"/>
</clipPath>
</defs>
</svg>
