<svg width="100" height="100" viewBox="0 0 100 100" fill="none" xmlns="http://www.w3.org/2000/svg">
<g clip-path="url(#clip0_1675_30797)">
<rect width="100" height="100" fill="white"/>
<g clip-path="url(#clip1_1675_30797)">
<rect width="100" height="100" rx="2.5" fill="white"/>
<path d="M99.9647 6.54867C99.9647 2.93805 97.0339 0 93.4322 0H6.53249C2.93079 0 0 2.93805 0 6.54867V93.4513C0 97.0619 2.93079 100 6.53249 100H93.4675C97.0692 100 100 97.0619 100 93.4513V6.54867H99.9647Z" fill="#4E6086"/>
</g>
<path fill-rule="evenodd" clip-rule="evenodd" d="M70.6003 65.393C72.9955 65.393 74.9212 67.4644 74.9212 69.9797C74.9212 72.495 72.9955 74.5664 70.6003 74.5664C68.1581 74.5664 66.2324 72.495 66.2324 69.9797C66.2324 67.4644 68.1581 65.393 70.6003 65.393ZM72.9955 57.1567L74.5924 57.6005L74.3106 58.5869C74.7803 58.7349 75.2029 58.9322 75.5787 59.1788L76.0953 58.291L77.5043 59.1294L76.9877 60.0172C77.3634 60.2638 77.7391 60.5597 78.1148 60.9049L78.7724 60.1651L79.9465 61.3488L79.242 62.0886C79.5238 62.4831 79.8056 62.8284 80.0874 63.2229L80.9328 62.7297L81.7312 64.2093L80.8858 64.7025C81.0737 65.1464 81.2616 65.5903 81.4025 66.0341L82.3418 65.7875L82.7645 67.4151L81.8251 67.711C81.9191 68.1549 81.966 68.6481 82.013 69.1413H82.9993V70.8181H82.013C81.966 71.3113 81.9191 71.8045 81.8251 72.2977L82.7645 72.5443L82.3418 74.1718L81.4025 73.9252C81.2616 74.3691 81.0737 74.813 80.8858 75.2569L81.7312 75.75L80.9328 77.2296L80.0874 76.7364C79.8056 77.131 79.5238 77.5255 79.242 77.8708L79.9465 78.6106L78.7724 79.7942L78.1148 79.1038C77.7391 79.3997 77.3634 79.6956 76.9877 79.9422L77.5043 80.8299L76.0953 81.7177L75.5787 80.8299C75.2029 81.0272 74.7803 81.2245 74.3106 81.3725L74.5924 82.3588L72.9955 82.8027L72.7607 81.8163C72.2911 81.915 71.8684 81.9643 71.3987 82.0136V83H69.7549V82.0136C69.2852 81.9643 68.8625 81.915 68.3929 81.8163L68.1581 82.8027L66.5612 82.3588L66.843 81.3725C66.3733 81.2245 65.9506 81.0272 65.5749 80.8299L65.0583 81.7177L63.6493 80.8299L64.1659 79.9422C63.7902 79.6956 63.4145 79.3997 63.0388 79.1038L62.3812 79.7942L61.2071 78.6106L61.9116 77.8708C61.6298 77.5255 61.348 77.131 61.0662 76.7364L60.2208 77.2296L59.4224 75.75L60.2678 75.2569C60.0799 74.813 59.892 74.3691 59.7511 73.9252L58.8118 74.1718L58.3891 72.5443L59.3284 72.2977C59.2345 71.8045 59.1875 71.3113 59.1406 70.8181H58.1543V69.1413H59.1406C59.1875 68.6481 59.2345 68.1549 59.3284 67.711L58.3891 67.4151L58.8118 65.7875L59.7511 66.0341C59.892 65.5903 60.0799 65.1464 60.2678 64.7025L59.4224 64.2093L60.2208 62.7297L61.0662 63.2229C61.348 62.8284 61.6298 62.4338 61.9116 62.0886L61.2071 61.3488L62.3812 60.1651L63.0388 60.9049C63.4145 60.5597 63.7902 60.2638 64.1659 60.0172L63.6493 59.1294L65.0583 58.291L65.5749 59.1788C65.9506 58.9322 66.3733 58.7349 66.843 58.5869L66.5612 57.6005L68.1581 57.1567L68.3929 58.143C68.8625 58.0444 69.2852 57.9951 69.7549 57.9951V56.9594H71.3987V57.9951C71.8684 57.9951 72.2911 58.0444 72.7607 58.143L72.9955 57.1567ZM70.6003 60.5104C75.5317 60.5104 79.5708 64.7518 79.5708 69.9797C79.5708 75.2075 75.5317 79.449 70.6003 79.449C65.6219 79.449 61.5828 75.2075 61.5828 69.9797C61.5828 64.7518 65.6219 60.5104 70.6003 60.5104Z" fill="white"/>
<path fill-rule="evenodd" clip-rule="evenodd" d="M59.8939 22.7788C59.7999 22.4336 59.706 22.1377 59.6121 21.7924L62.2891 21.102C62.43 21.0526 62.5239 20.954 62.5239 20.8554L62.6179 20.6088C62.6179 20.5101 62.6179 20.4115 62.5709 20.3622C62.5239 20.2635 62.43 20.2142 62.3361 20.1649L56.7941 18.7346C56.1835 18.4387 55.526 18.1921 54.8215 18.0935C51.5809 17.551 48.622 19.4251 48.1524 22.2856C47.8236 24.4063 48.9977 26.5764 51.1112 27.7107C51.1112 27.7601 51.1112 27.7601 51.1112 27.7601L58.344 32.4947C58.4849 32.5934 58.6727 32.544 58.7667 32.3961L60.5983 29.8808C60.6453 29.7822 60.6923 29.6835 60.6453 29.5849L60.4105 28.5985C60.3635 28.4012 60.1756 28.3026 59.9878 28.3519L58.8136 28.6478C58.7197 28.6478 58.5788 28.6478 58.5318 28.5492L56.5123 26.675C56.4184 26.5764 56.3714 26.4778 56.3714 26.3791L56.7002 24.0118C56.7002 23.8638 56.7941 23.7159 56.982 23.7159L59.6121 23.1734C59.7999 23.1734 59.8939 22.9761 59.8939 22.7788Z" fill="white"/>
<path fill-rule="evenodd" clip-rule="evenodd" d="M25.8903 46.353L52.1913 51.8275L67.8309 48.2765C68.1597 48.2272 68.4415 48.2272 68.7702 48.4244L75.1107 51.7782C75.3455 51.9261 75.4864 52.1727 75.4864 52.4686C75.4864 52.7645 75.3455 53.0111 75.0637 53.1591L74.4062 53.5043C74.0774 53.6523 73.7017 53.7016 73.3259 53.5537L68.2536 51.8275C67.9249 51.7288 67.5961 51.7288 67.2673 51.8275L63.5101 53.4057C63.2283 53.5043 63.0404 53.7016 62.8525 53.9482C61.1148 56.6608 56.653 61.79 56.653 64.8478C56.653 66.426 55.4319 67.7083 53.976 67.7576H53.882H45.71C45.1464 67.7576 44.6767 67.4617 44.3479 66.9192L39.4635 58.2883L31.808 54.3428C31.4793 54.1948 31.2444 53.9482 31.1505 53.5537L30.1172 50.8904C29.9763 50.4959 29.6946 50.2493 29.3658 50.052L25.8903 48.4738C25.3737 48.2272 25.0449 47.734 25.0449 47.1421V47.0928C25.0449 46.8462 25.1389 46.6489 25.2798 46.501C25.4676 46.353 25.6555 46.3037 25.8903 46.353Z" fill="white"/>
<path d="M68.7239 70.7162L59.002 43.9851L62.7123 42.5056L72.4342 69.2366L68.7239 70.7162Z" fill="white"/>
<path d="M56.6517 62.8748L31.0552 71.9496L29.7871 68.004L55.3836 58.9293L56.6517 62.8748Z" fill="white"/>
<path d="M64.6845 42.4103C65.9526 42.9035 65.7177 44.7283 65.4359 45.0242C64.9193 46.1093 63.4634 46.06 61.5847 45.4188L53.0369 42.7556L50.5947 37.8729L44.7709 42.509L53.5536 49.0191C55.4792 50.7453 55.1034 53.1619 54.3989 54.4936L51.1583 63.8149C50.4068 65.3931 49.4675 66.5768 48.1994 66.0343C47.2131 65.5411 46.9783 64.0615 47.4949 62.434L50.3129 53.5072L38.6184 47.5889C33.6869 45.1722 34.7202 41.8185 37.0215 39.5498C41.4833 35.0617 47.1662 27.4172 51.581 29.538C52.6142 29.7353 53.3657 31.3135 53.8823 31.9053L56.2776 38.9087L64.6845 42.4103Z" fill="white"/>
<path fill-rule="evenodd" clip-rule="evenodd" d="M30.399 65.393C32.8412 65.393 34.7669 67.4644 34.7669 69.9797C34.7669 72.495 32.8412 74.5664 30.399 74.5664C28.0038 74.5664 26.0781 72.495 26.0781 69.9797C26.0781 67.4644 28.0038 65.393 30.399 65.393ZM32.8412 57.1567L34.4381 57.6005L34.1563 58.5869C34.579 58.7349 35.0487 58.9322 35.4244 59.1788L35.941 58.291L37.35 59.1294L36.8334 60.0172C37.2091 60.2638 37.5848 60.5597 37.9605 60.9049L38.6181 60.1651L39.7922 61.3488L39.0877 62.0886C39.3695 62.4831 39.6513 62.8284 39.9331 63.2229L40.7785 62.7297L41.5769 64.2093L40.7315 64.7025C40.9194 65.1464 41.1073 65.5903 41.2482 66.0341L42.1875 65.7875L42.6102 67.4151L41.6709 67.711C41.7648 68.1549 41.8118 68.6481 41.8587 69.1413H42.845V70.8181H41.8587C41.8118 71.3113 41.7648 71.8045 41.6709 72.2977L42.6102 72.5443L42.1875 74.1718L41.2482 73.9252C41.1073 74.3691 40.9194 74.813 40.7315 75.2569L41.5769 75.75L40.7785 77.2296L39.9331 76.7364C39.6513 77.131 39.3695 77.5255 39.0877 77.8708L39.7922 78.6106L38.6181 79.7942L37.9605 79.1038C37.5848 79.3997 37.2091 79.6956 36.8334 79.9422L37.35 80.8299L35.941 81.7177L35.4244 80.8299C35.0487 81.0272 34.626 81.2245 34.1563 81.3725L34.4381 82.3588L32.8412 82.8027L32.6064 81.8163C32.1368 81.915 31.7141 81.9643 31.2444 82.0136V83H29.6006V82.0136C29.1309 81.9643 28.7082 81.915 28.2386 81.8163L28.0038 82.8027L26.4069 82.3588L26.6887 81.3725C26.219 81.2245 25.7964 81.0272 25.4206 80.8299L24.904 81.7177L23.495 80.8299L24.0116 79.9422C23.6359 79.6956 23.2602 79.3997 22.8845 79.1038L22.2269 79.7942L21.0528 78.6106L21.7573 77.8708C21.4755 77.5255 21.1937 77.131 20.9119 76.7364L20.0665 77.2296L19.2681 75.75L20.1135 75.2569C19.9256 74.813 19.7377 74.3691 19.5968 73.9252L18.6575 74.1718L18.2348 72.5443L19.1741 72.2977C19.0802 71.8045 19.0333 71.3113 18.9863 70.8181H18V69.1413H18.9863C19.0333 68.6481 19.0802 68.1549 19.1741 67.711L18.2348 67.4151L18.6575 65.7875L19.5968 66.0341C19.7377 65.5903 19.9256 65.1464 20.1135 64.7025L19.2681 64.2093L20.0665 62.7297L20.9119 63.2229C21.1937 62.8284 21.4755 62.4338 21.7573 62.0886L21.0528 61.3488L22.2269 60.1651L22.8845 60.9049C23.2602 60.5597 23.6359 60.2638 24.0116 60.0172L23.495 59.1294L24.904 58.291L25.4206 59.1788C25.7964 58.9322 26.219 58.7349 26.6887 58.5869L26.4069 57.6005L28.0038 57.1567L28.2386 58.143C28.7082 58.0444 29.1309 57.9951 29.6006 57.9951V56.9594H31.2444V57.9951C31.7141 57.9951 32.1368 58.0444 32.6064 58.143L32.8412 57.1567ZM30.399 60.5104C35.3774 60.5104 39.4165 64.7518 39.4165 69.9797C39.4165 75.2075 35.3774 79.449 30.399 79.449C25.4676 79.449 21.4285 75.2075 21.4285 69.9797C21.4285 64.7518 25.4676 60.5104 30.399 60.5104Z" fill="white"/>
</g>
<defs>
<clipPath id="clip0_1675_30797">
<rect width="100" height="100" fill="white"/>
</clipPath>
<clipPath id="clip1_1675_30797">
<rect width="100" height="100" rx="2.5" fill="white"/>
</clipPath>
</defs>
</svg>
