<svg width="100" height="100" viewBox="0 0 100 100" fill="none" xmlns="http://www.w3.org/2000/svg">
<g clip-path="url(#clip0_1675_30885)">
<rect width="100" height="100" fill="white"/>
<g clip-path="url(#clip1_1675_30885)">
<rect width="100" height="100" rx="2.5" fill="white"/>
<path d="M99.9647 6.54867C99.9647 2.93805 97.0339 0 93.4322 0H6.53249C2.93079 0 0 2.93805 0 6.54867V93.4513C0 97.0619 2.93079 100 6.53249 100H93.4675C97.0692 100 100 97.0619 100 93.4513V6.54867H99.9647Z" fill="#4E6086"/>
</g>
<rect x="8.51784" y="11" width="81.9632" height="79" fill="white"/>
<path d="M90.8524 8H8.14972C7.52732 8 7 8.5252 7 9.14761V91.8524C7 92.4748 7.52733 93 8.14972 93H90.8524C91.4748 93 92 92.4748 92 91.8524V9.14761C92 8.52519 91.4748 8 90.8524 8ZM79.0914 56.532L54.4177 72.1164L31.9699 14.7322C52.0707 17.412 77.624 32.9986 79.0914 56.532ZM33.2709 61.3795L41.1483 61.4421C41.9284 61.4421 42.4665 61.7058 42.9269 62.1229L53.3847 72.7798C53.3847 72.7798 49.6351 75.7233 46.3372 73.1364L40.2687 66.9316L28.6115 66.8105C26.8825 66.7954 25.4065 65.7818 24.7625 64.2927L20.5288 54.4096C20.451 54.0768 20.4077 53.7353 20.4142 53.396C20.4294 51.0403 22.3441 49.1492 24.7041 49.1773L34.574 49.2962L42.4946 45.0927C42.4946 45.0927 43.7438 48.4749 41.4379 49.9143L34.788 53.182C34.3126 53.5581 33.0007 53.4457 33.0007 53.4457L29.7742 53.4241L33.2709 61.3795ZM48.9953 77.1173L62.2734 69.4083C62.8526 69.0733 63.6501 69.3651 64.0542 70.061C64.4583 70.7591 64.3178 71.5954 63.7387 71.9326L50.4606 79.6395C49.8814 79.9766 49.084 79.6827 48.6798 78.9868C48.2757 78.2909 48.4161 77.4523 48.9953 77.1173ZM21.6158 40.1414C23.9563 40.1414 25.8625 42.041 25.8625 44.4032C25.8625 46.7524 23.9563 48.6521 21.6158 48.6521C19.2667 48.6521 17.354 46.7524 17.354 44.4032C17.354 42.041 19.2667 40.1414 21.6158 40.1414ZM84.3495 85.2845C81.7259 85.2845 79.7895 83.9446 78.3718 82.9591C77.2869 82.2069 76.3944 81.6256 75.599 81.6256C74.8967 81.6256 74.5012 81.8958 73.466 82.717L73.3449 82.8034C71.9921 83.8732 70.1897 85.2845 67.0128 85.2845C63.8511 85.2845 62.0703 83.9446 60.7736 82.9439L60.5683 82.7883C59.6044 82.0016 59.0446 81.6256 58.2213 81.6256C57.292 81.6256 56.6761 82.073 55.5696 82.9158L55.4853 82.9742C54.1864 83.9597 52.3797 85.2845 49.5205 85.2845C46.5295 85.2845 44.565 83.7738 43.2618 82.7667C42.2245 82.0081 41.5523 81.5413 40.8781 81.5413C40.2535 81.5413 39.7802 81.8677 38.758 82.6824C37.3619 83.789 35.4817 85.2845 32.1924 85.2845C28.8751 85.2845 26.8955 83.7522 25.5988 82.7451C24.7408 82.0859 24.1098 81.6472 23.4506 81.6472C22.6985 81.6472 21.9335 82.1356 20.7621 82.9591L20.6627 83.0304C19.1521 84.1088 17.2114 85.4055 14.644 85.4055V81.8525C16.0898 81.8525 17.3886 81.001 18.6204 80.1149C19.982 79.1575 21.471 78.0878 23.4506 78.0878C25.307 78.0878 26.6556 79.0732 27.7816 79.9464C28.9745 80.8605 30.122 81.7315 32.1924 81.7315C34.2498 81.7315 35.2915 80.8951 36.532 79.9096C37.6731 79.0084 38.9568 77.9883 40.8781 77.9883C42.7928 77.9883 44.1889 79.0452 45.4294 79.9528C46.6721 80.9167 47.8132 81.7315 49.5205 81.7315C51.2299 81.7315 52.2219 80.9816 53.3997 80.0955C54.6554 79.1445 56.0363 78.0726 58.2213 78.0726C60.3262 78.0726 61.6878 79.11 62.8159 80.0306C64.0131 80.9448 64.9921 81.7315 67.0128 81.7315C68.9708 81.7315 69.9693 80.9448 71.1406 80.009C72.3033 79.11 73.5373 78.0726 75.599 78.0726C77.5203 78.0726 79.0741 79.1164 80.414 80.0436C81.6632 80.9167 82.8605 81.7315 84.3495 81.7315L84.3495 85.2845Z" fill="#4E6086"/>
</g>
<defs>
<clipPath id="clip0_1675_30885">
<rect width="100" height="100" fill="white"/>
</clipPath>
<clipPath id="clip1_1675_30885">
<rect width="100" height="100" rx="2.5" fill="white"/>
</clipPath>
</defs>
</svg>
