<svg width="44" height="44" viewBox="0 0 44 44" fill="none" xmlns="http://www.w3.org/2000/svg">
<mask id="path-1-outside-1_10128_11647" maskUnits="userSpaceOnUse" x="0" y="0" width="44" height="44" fill="black">
<rect fill="white" width="44" height="44"/>
<path d="M2 22C2 10.9543 10.9543 2 22 2C33.0457 2 42 10.9543 42 22C42 33.0457 33.0457 42 22 42C10.9543 42 2 33.0457 2 22Z"/>
</mask>
<path d="M2 22M42 22M42 22M2 22M22 2M42 22M22 42M2 22M22 42V40C12.0589 40 4 31.9411 4 22H2H0C0 34.1503 9.84974 44 22 44V42ZM42 22H40C40 31.9411 31.9411 40 22 40V42V44C34.1503 44 44 34.1503 44 22H42ZM22 2V4C31.9411 4 40 12.0589 40 22H42H44C44 9.84974 34.1503 0 22 0V2ZM22 2V0C9.84974 0 0 9.84974 0 22H2H4C4 12.0589 12.0589 4 22 4V2Z" fill="white" mask="url(#path-1-outside-1_10128_11647)"/>
<path d="M13.4805 15.9902C13.4805 14.8857 14.3759 13.9902 15.4805 13.9902H28.5188C29.6234 13.9902 30.5188 14.8857 30.5188 15.9902V17.1182C30.5188 18.2228 29.6234 19.1182 28.5188 19.1182H15.4805C14.3759 19.1182 13.4805 18.2228 13.4805 17.1182V15.9902Z" fill="#656565"/>
<path d="M15.123 19.8965H28.8745V28.0098C28.8745 29.1144 27.9791 30.0098 26.8745 30.0098H17.123C16.0185 30.0098 15.123 29.1144 15.123 28.0098V19.8965Z" fill="#656565"/>
</svg>
