<svg width="40" height="40" viewBox="0 0 40 40" fill="none" xmlns="http://www.w3.org/2000/svg">
  <path d="M0 20C0 8.95431 8.95431 0 20 0C31.0457 0 40 8.95431 40 20C40 31.0457 31.0457 40 20 40C8.95431 40 0 31.0457 0 20Z" fill="#C7C7C7"/>
  <path d="M26.0815 14.1821C26.2278 14.3284 26.2689 14.5496 26.1848 14.7387L20.528 27.4666C20.4472 27.6483 20.2665 27.7649 20.0677 27.7635C19.8689 27.7622 19.6898 27.6432 19.6115 27.4605L17.569 22.6946L12.803 20.652C12.6203 20.5737 12.5013 20.3946 12.5 20.1958C12.4987 19.997 12.6153 19.8163 12.7969 19.7356L25.5249 14.0787C25.7139 13.9947 25.9352 14.0358 26.0815 14.1821Z" fill="#656565"/>
</svg>
