<svg width="46" height="46" viewBox="0 0 46 46" fill="none" xmlns="http://www.w3.org/2000/svg">
    <path d="M23 1.5C34.8741 1.5 44.5 11.1259 44.5 23C44.5 34.8741 34.8741 44.5 23 44.5C11.1259 44.5 1.5 34.8741 1.5 23C1.5 11.1259 11.1259 1.5 23 1.5Z" fill="#f8ba47"/>
    <path d="M23 1.5C34.8741 1.5 44.5 11.1259 44.5 23C44.5 34.8741 34.8741 44.5 23 44.5C11.1259 44.5 1.5 34.8741 1.5 23C1.5 11.1259 11.1259 1.5 23 1.5Z" stroke="#003366" stroke-width="3"/>
    <path d="M23.5565 15.2469C23.4159 15.0906 23.2127 15 23.0002 15C22.7877 15 22.5846 15.0906 22.444 15.2469L17.944 20.2469C17.7471 20.4656 17.6971 20.7844 17.8159 21.0531C17.9346 21.3219 18.2034 21.5 18.5002 21.5H18.869L16.9315 23.7625C16.7409 23.9844 16.6971 24.2969 16.819 24.5625C16.9409 24.8281 17.2065 25 17.5002 25H18.2502L16.1502 27.8C15.9784 28.0281 15.9534 28.3313 16.0784 28.5844C16.2034 28.8375 16.4659 29 16.7502 29H21.0002H22.2502V30.25C22.2502 30.6656 22.5846 31 23.0002 31C23.4159 31 23.7502 30.6656 23.7502 30.25V29H25.0002H29.2502C29.5346 29 29.794 28.8406 29.9221 28.5844C30.0502 28.3281 30.0221 28.025 29.8502 27.8L27.7502 25H28.5002C28.794 25 29.0596 24.8281 29.1815 24.5625C29.3034 24.2969 29.2596 23.9844 29.069 23.7625L27.1315 21.5H27.5002C27.7971 21.5 28.0659 21.325 28.1846 21.0563C28.3034 20.7875 28.2565 20.4688 28.0565 20.25L23.5565 15.25V15.2469ZM23.7502 27.5V21.75C23.7502 21.3344 23.4159 21 23.0002 21C22.5846 21 22.2502 21.3344 22.2502 21.75V27.5H21.0002H18.2502L20.3502 24.7C20.5221 24.4719 20.5471 24.1687 20.4221 23.9156C20.2971 23.6625 20.0346 23.5 19.7502 23.5H19.1315L21.069 21.2375C21.2596 21.0156 21.3034 20.7031 21.1815 20.4375C21.0596 20.1719 20.794 20 20.5002 20H20.1846L23.0002 16.8719L25.8159 20H25.5002C25.2065 20 24.9409 20.1719 24.819 20.4375C24.6971 20.7031 24.7409 21.0156 24.9315 21.2375L26.869 23.5H26.2502C25.9659 23.5 25.7065 23.6594 25.5784 23.9156C25.4502 24.1719 25.4784 24.475 25.6502 24.7L27.7502 27.5H25.0002H23.7502Z" fill="#003366"/>
</svg>
