<svg width="44" height="44" viewBox="0 0 44 44" fill="none" xmlns="http://www.w3.org/2000/svg">
<mask id="path-1-outside-1_9483_71036" maskUnits="userSpaceOnUse" x="0" y="0" width="44" height="44" fill="black">
<rect fill="white" width="44" height="44"/>
<path d="M2 22C2 10.9543 10.9543 2 22 2V2C33.0457 2 42 10.9543 42 22V22C42 33.0457 33.0457 42 22 42V42C10.9543 42 2 33.0457 2 22V22Z"/>
</mask>
<path d="M2 22C2 10.9543 10.9543 2 22 2V2C33.0457 2 42 10.9543 42 22V22C42 33.0457 33.0457 42 22 42V42C10.9543 42 2 33.0457 2 22V22Z" fill="#656565" fill-opacity="0.9"/>
<path d="M2 22M42 22M42 22M2 22M22 2M42 22M22 42M2 22M22 42V40C12.0589 40 4 31.9411 4 22H2H0C0 34.1503 9.84974 44 22 44V42ZM42 22H40C40 31.9411 31.9411 40 22 40V42V44C34.1503 44 44 34.1503 44 22H42ZM22 2V4C31.9411 4 40 12.0589 40 22H42H44C44 9.84974 34.1503 0 22 0V2ZM22 2V0C9.84974 0 0 9.84974 0 22H2H4C4 12.0589 12.0589 4 22 4V2Z" fill="white" mask="url(#path-1-outside-1_9483_71036)"/>
<path fill-rule="evenodd" clip-rule="evenodd" d="M20.9901 22.3878C13.7606 21.1204 11.9141 15.869 11.9141 11.915C19.6558 11.915 21.803 17.7452 21.9861 21.4687H22.0125C22.1957 17.7452 24.3428 11.915 32.085 11.915C32.085 15.869 30.238 21.1208 23.0075 22.3878V32.0859H20.9904L20.9901 22.3878Z" fill="white"/>
</svg>
