<svg width="41" height="41" viewBox="0 0 41 41" fill="none" xmlns="http://www.w3.org/2000/svg">
    <path d="M0.0449219 20.1113C0.0449219 9.06563 8.99923 0.111328 20.0449 0.111328C31.0906 0.111328 40.0449 9.06563 40.0449 20.1113C40.0449 31.157 31.0906 40.1113 20.0449 40.1113C8.99923 40.1113 0.0449219 31.157 0.0449219 20.1113Z" fill="#4F8747"/>
    <g clip-path="url(#clip0_3676_273)">
        <path d="M15.5884 12.584C16.0884 11.9902 17.0009 11.9902 17.5009 12.584L21.1196 16.8777C21.3071 17.0996 21.3478 17.4121 21.2259 17.6777C21.104 17.9434 20.8384 18.1121 20.5446 18.1121H20.104L22.129 20.6434C22.3103 20.8684 22.3446 21.1777 22.2196 21.4371C22.0946 21.6965 21.8321 21.8621 21.5446 21.8621H20.7415L22.6821 24.6121H22.7946V18.8621C22.7946 18.4465 23.129 18.1121 23.5446 18.1121C23.9603 18.1121 24.2946 18.4465 24.2946 18.8621V24.6121H27.8478L25.6821 21.5434C25.5196 21.3152 25.5009 21.0152 25.629 20.7652C25.7571 20.5152 26.0134 20.359 26.2946 20.359H26.9853L24.9603 17.8277C24.779 17.6027 24.7446 17.2934 24.8696 17.034C24.9946 16.7746 25.2571 16.609 25.5446 16.609H25.9321L23.5446 13.7777L21.6728 15.9996L20.6665 14.8652L22.5884 12.584C23.0884 11.9902 24.0009 11.9902 24.5009 12.584L28.1196 16.8777C28.3071 17.0996 28.3478 17.4121 28.2259 17.6777C28.104 17.9434 27.8384 18.1121 27.5446 18.1121H27.104L29.129 20.6434C29.3103 20.8684 29.3446 21.1777 29.2196 21.4371C29.0946 21.6965 28.8321 21.8621 28.5446 21.8621H27.7415L29.9071 24.9309C30.0696 25.159 30.0884 25.459 29.9603 25.709C29.8321 25.959 29.5759 26.1152 29.2946 26.1152H24.2946V27.3652C24.2946 27.7809 23.9603 28.1152 23.5446 28.1152C23.129 28.1152 22.7946 27.7809 22.7946 27.3652V26.1152H22.2946H21.5446H18.0446H17.2946V27.3652C17.2946 27.7809 16.9603 28.1152 16.5446 28.1152C16.129 28.1152 15.7946 27.7809 15.7946 27.3652V26.1152H14.5446L10.7946 26.1121C10.5134 26.1121 10.2571 25.9559 10.129 25.7059C10.0009 25.4559 10.0196 25.1559 10.1821 24.9277L12.3478 21.8621H11.5446C11.2571 21.8621 10.9946 21.6965 10.8696 21.4371C10.7446 21.1777 10.779 20.8684 10.9603 20.6434L12.9853 18.1121H12.5446C12.254 18.1121 11.9884 17.9434 11.8634 17.6777C11.7384 17.4121 11.7821 17.1027 11.9696 16.8777L15.5884 12.584ZM18.0446 24.6121H20.8478L18.6821 21.5434C18.5196 21.3152 18.5009 21.0152 18.629 20.7652C18.7571 20.5152 19.0134 20.359 19.2946 20.359H19.9853L17.9603 17.8277C17.779 17.6027 17.7446 17.2934 17.8696 17.034C17.9946 16.7746 18.2571 16.609 18.5446 16.609H18.9321L16.5446 13.7777L14.1571 16.6121H14.5446C14.8321 16.6121 15.0946 16.7777 15.2196 17.0371C15.3446 17.2965 15.3103 17.6059 15.129 17.8309L13.104 20.3621H13.7946C14.0759 20.3621 14.3321 20.5184 14.4603 20.7684C14.5884 21.0184 14.5696 21.3184 14.4071 21.5465L12.2415 24.6121H14.5446H15.7946V18.8621C15.7946 18.4465 16.129 18.1121 16.5446 18.1121C16.9603 18.1121 17.2946 18.4465 17.2946 18.8621V24.6121H18.0446Z" fill="white"/>
    </g>
    <defs>
        <clipPath id="clip0_3676_273">
            <rect width="24" height="16" fill="white" transform="translate(8.04492 12.1113)"/>
        </clipPath>
    </defs>
</svg>
