<svg width="40" height="40" viewBox="0 0 40 40" fill="none" xmlns="http://www.w3.org/2000/svg">
     <path d="M0 20C0 8.95431 8.95431 0 20 0C31.0457 0 40 8.95431 40 20C40 31.0457 31.0457 40 20 40C8.95431 40 0 31.0457 0 20Z" fill="#C7C7C7"/>
    <g clip-path="url(#clip0_4272_41311)">
      <path d="M24.5 18C24.5 15.5156 22.4844 13.5 20 13.5C17.5156 13.5 15.5 15.5156 15.5 18C15.5 18.3875 15.6406 18.9875 15.9781 19.7875C16.3063 20.5625 16.7719 21.4187 17.3063 22.2844C18.1969 23.7281 19.2281 25.1219 20 26.1156C20.775 25.1219 21.8063 23.7281 22.6938 22.2844C23.2281 21.4187 23.6938 20.5625 24.0219 19.7875C24.3594 18.9875 24.5 18.3875 24.5 18ZM26 18C26 20.7312 22.3438 25.5938 20.7406 27.6C20.3562 28.0781 19.6438 28.0781 19.2594 27.6C17.6562 25.5938 14 20.7312 14 18C14 14.6875 16.6875 12 20 12C23.3125 12 26 14.6875 26 18ZM21 18C21 17.7348 20.8946 17.4804 20.7071 17.2929C20.5196 17.1054 20.2652 17 20 17C19.7348 17 19.4804 17.1054 19.2929 17.2929C19.1054 17.4804 19 17.7348 19 18C19 18.2652 19.1054 18.5196 19.2929 18.7071C19.4804 18.8946 19.7348 19 20 19C20.2652 19 20.5196 18.8946 20.7071 18.7071C20.8946 18.5196 21 18.2652 21 18ZM17.5 18C17.5 17.337 17.7634 16.7011 18.2322 16.2322C18.7011 15.7634 19.337 15.5 20 15.5C20.663 15.5 21.2989 15.7634 21.7678 16.2322C22.2366 16.7011 22.5 17.337 22.5 18C22.5 18.663 22.2366 19.2989 21.7678 19.7678C21.2989 20.2366 20.663 20.5 20 20.5C19.337 20.5 18.7011 20.2366 18.2322 19.7678C17.7634 19.2989 17.5 18.663 17.5 18Z" fill="#656565"/>
    </g>
  <defs>
    <clipPath id="clip0_4272_41311">
      <rect width="12" height="16" fill="white" transform="translate(14 12)"/>
    </clipPath>
  </defs>
</svg>
