<svg width="46" height="46" viewBox="0 0 46 46" fill="none" xmlns="http://www.w3.org/2000/svg">
    <path d="M23 1.5C34.8741 1.5 44.5 11.1259 44.5 23C44.5 34.8741 34.8741 44.5 23 44.5C11.1259 44.5 1.5 34.8741 1.5 23C1.5 11.1259 11.1259 1.5 23 1.5Z" fill="#f8ba47"/>
    <path d="M23 1.5C34.8741 1.5 44.5 11.1259 44.5 23C44.5 34.8741 34.8741 44.5 23 44.5C11.1259 44.5 1.5 34.8741 1.5 23C1.5 11.1259 11.1259 1.5 23 1.5Z" stroke="#003366" stroke-width="3"/>
    <g clip-path="url(#clip0_3945_61090)">
        <path d="M25.7312 15.1752C26.05 15.4408 26.0906 15.9127 25.825 16.2314L23.9781 18.4408L31.3438 27.2533C31.6063 27.5689 31.75 27.9658 31.75 28.3752V29.2502C31.75 30.2158 30.9656 31.0002 30 31.0002H23H16C15.0344 31.0002 14.25 30.2158 14.25 29.2502V28.3752C14.25 27.9658 14.3938 27.5689 14.6562 27.2533L22.0219 18.4408L20.175 16.2314C19.9094 15.9127 19.9531 15.4408 20.2688 15.1752C20.5844 14.9095 21.0594 14.9533 21.325 15.2689L23 17.272L24.675 15.2689C24.9406 14.9502 25.4125 14.9095 25.7312 15.1752ZM15.8094 28.2127C15.7719 28.2564 15.75 28.3158 15.75 28.372V29.247C15.75 29.3845 15.8625 29.497 16 29.497H17.9375L22.4094 23.7877C22.55 23.6064 22.7688 23.5002 23 23.5002C23.2312 23.5002 23.45 23.6064 23.5906 23.7877L28.0625 29.5002H30C30.1375 29.5002 30.25 29.3877 30.25 29.2502V28.3752C30.25 28.3158 30.2281 28.2595 30.1906 28.2158L23 19.6095L15.8094 28.2127ZM19.8438 29.5002H23H26.1562L23 25.4658L19.8438 29.5002Z" fill="#003366"/>
    </g>
    <defs>
        <clipPath id="clip0_3945_61090">
            <rect width="18" height="16" fill="white" transform="translate(14 15)"/>
        </clipPath>
    </defs>
</svg>
