<svg width="44" height="44" viewBox="0 0 44 44" fill="none" xmlns="http://www.w3.org/2000/svg">
<mask id="path-1-outside-1_9483_71075" maskUnits="userSpaceOnUse" x="0" y="0" width="44" height="44" fill="black">
<rect fill="white" width="44" height="44"/>
<path d="M2 22C2 10.9543 10.9543 2 22 2V2C33.0457 2 42 10.9543 42 22V22C42 33.0457 33.0457 42 22 42V42C10.9543 42 2 33.0457 2 22V22Z"/>
</mask>
<path d="M2 22C2 10.9543 10.9543 2 22 2V2C33.0457 2 42 10.9543 42 22V22C42 33.0457 33.0457 42 22 42V42C10.9543 42 2 33.0457 2 22V22Z" fill="#656565" fill-opacity="0.9"/>
<path d="M2 22M42 22M42 22M2 22M22 2M42 22M22 42M2 22M22 42V40C12.0589 40 4 31.9411 4 22H2H0C0 34.1503 9.84974 44 22 44V42ZM42 22H40C40 31.9411 31.9411 40 22 40V42V44C34.1503 44 44 34.1503 44 22H42ZM22 2V4C31.9411 4 40 12.0589 40 22H42H44C44 9.84974 34.1503 0 22 0V2ZM22 2V0C9.84974 0 0 9.84974 0 22H2H4C4 12.0589 12.0589 4 22 4V2Z" fill="white" mask="url(#path-1-outside-1_9483_71075)"/>
<path d="M28.4154 20.3667C28.6891 20.6403 28.7707 21.0521 28.6227 21.4101C28.4746 21.7673 28.1256 22.0005 27.7389 22.0005H17.2116V30.614C17.2116 31.1425 16.7827 31.5714 16.2542 31.5714C15.7258 31.5714 15.2969 31.1425 15.2969 30.614V13.387C15.2969 12.8586 15.7258 12.4297 16.2542 12.4297H27.7389C28.1256 12.4297 28.4746 12.663 28.6227 13.0201C28.7707 13.3781 28.6891 13.789 28.4154 14.0636L25.2642 17.2156L28.4154 20.3667Z" fill="white"/>
</svg>
