<svg width="44" height="44" viewBox="0 0 44 44" fill="none" xmlns="http://www.w3.org/2000/svg">
<mask id="path-1-outside-1_10105_36793" maskUnits="userSpaceOnUse" x="0" y="0" width="44" height="44" fill="black">
<rect fill="white" width="44" height="44"/>
<path d="M2 22C2 10.9543 10.9543 2 22 2C33.0457 2 42 10.9543 42 22C42 33.0457 33.0457 42 22 42C10.9543 42 2 33.0457 2 22Z"/>
</mask>
<path d="M2 22C2 10.9543 10.9543 2 22 2C33.0457 2 42 10.9543 42 22C42 33.0457 33.0457 42 22 42C10.9543 42 2 33.0457 2 22Z" fill="#F2F2F2"/>
<path d="M2 22M42 22M42 22M2 22M22 2M42 22M22 42M2 22M22 42V40C12.0589 40 4 31.9411 4 22H2H0C0 34.1503 9.84974 44 22 44V42ZM42 22H40C40 31.9411 31.9411 40 22 40V42V44C34.1503 44 44 34.1503 44 22H42ZM22 2V4C31.9411 4 40 12.0589 40 22H42H44C44 9.84974 34.1503 0 22 0V2ZM22 2V0C9.84974 0 0 9.84974 0 22H2H4C4 12.0589 12.0589 4 22 4V2Z" fill="white" mask="url(#path-1-outside-1_10105_36793)"/>
<path d="M20.9102 33.9951H23.0903V26.2899H20.9102V33.9951Z" fill="#656565"/>
<path d="M14.9997 26.1992C17.8156 24.5565 19.1453 22.9126 19.1453 22.9126C18.1286 22.8349 15.7045 21.6617 16.7212 20.7227C17.6591 19.8613 20.3973 16.8112 20.3185 16.7336C19.8502 16.6547 18.364 16.0287 18.9111 15.325C19.4583 14.6202 20.3973 12.9775 21.1799 11.336C21.4917 10.7087 21.727 10.0051 21.9611 10.0051C22.1965 10.0051 22.4319 10.7087 22.7437 11.336C23.5262 12.9775 24.5429 14.699 25.0913 15.325C25.6372 16.0287 24.151 16.6547 23.6827 16.7336C23.6051 16.7336 26.3421 19.8613 27.2811 20.7227C28.299 21.5829 25.9515 22.8349 24.8559 22.9126C24.8559 22.9126 26.1856 24.4776 29.0015 26.1992C30.4101 27.0594 26.9245 29.4434 21.9927 29.4434C17.0621 29.4434 13.5911 27.0594 14.9997 26.1992Z" fill="#656565"/>
</svg>
