<svg width="46" height="46" viewBox="0 0 46 46" fill="none" xmlns="http://www.w3.org/2000/svg">
    <path d="M23 1.5C34.8741 1.5 44.5 11.1259 44.5 23C44.5 34.8741 34.8741 44.5 23 44.5C11.1259 44.5 1.5 34.8741 1.5 23C1.5 11.1259 11.1259 1.5 23 1.5Z" fill="#557447"/>
    <path d="M23 1.5C34.8741 1.5 44.5 11.1259 44.5 23C44.5 34.8741 34.8741 44.5 23 44.5C11.1259 44.5 1.5 34.8741 1.5 23C1.5 11.1259 11.1259 1.5 23 1.5Z" stroke="white" stroke-width="3"/>
    <path d="M28.4937 16.0742C28.6148 16.1554 28.6875 16.2916 28.6875 16.4375V23C28.6875 23.1789 28.5786 23.3398 28.4125 23.4062L28.25 23C28.4125 23.4062 28.4125 23.4062 28.4125 23.4062L28.4102 23.4071L28.4048 23.4093L28.3848 23.4171C28.3675 23.4239 28.3424 23.4337 28.3101 23.4461C28.2456 23.4708 28.1526 23.5059 28.0372 23.5479C27.8066 23.6317 27.485 23.7436 27.1209 23.8557C26.4074 24.0752 25.4775 24.3125 24.75 24.3125C24.0091 24.3125 23.3952 24.0669 22.8619 23.8535L22.8375 23.8437C22.2827 23.6218 21.8103 23.4375 21.25 23.4375C20.6374 23.4375 19.8164 23.6381 19.1172 23.8553C18.7744 23.9618 18.4726 24.0685 18.2567 24.1485C18.2325 24.1575 18.2094 24.1661 18.1875 24.1743V29.5625C18.1875 29.8041 17.9916 30 17.75 30C17.5084 30 17.3125 29.8041 17.3125 29.5625V16.4375C17.3125 16.1959 17.5084 16 17.75 16C17.9916 16 18.1875 16.1959 18.1875 16.4375V16.6845C18.3853 16.6152 18.6216 16.5361 18.8792 16.4568C19.5926 16.2373 20.5225 16 21.25 16C21.9857 16 22.5834 16.2423 23.1058 16.4541C23.1186 16.4592 23.1312 16.4644 23.1439 16.4695C23.6876 16.6897 24.1618 16.875 24.75 16.875C25.3626 16.875 26.1836 16.6744 26.8828 16.4572C27.2256 16.3507 27.5274 16.244 27.7433 16.164C27.8511 16.124 27.9372 16.0908 27.9959 16.0678C28.0253 16.0563 28.0477 16.0473 28.0627 16.0413L28.0793 16.0346L28.0831 16.0331L28.084 16.0327M27.8125 17.0696C27.6203 17.1378 27.3919 17.2153 27.1424 17.2928C26.4332 17.5131 25.5042 17.75 24.75 17.75C23.9745 17.75 23.3569 17.4998 22.822 17.2832L22.8154 17.2805C22.2667 17.0582 21.8089 16.875 21.25 16.875C20.665 16.875 19.8449 17.0752 19.1365 17.2932C18.7897 17.3999 18.4824 17.5067 18.2618 17.5869C18.2358 17.5964 18.211 17.6055 18.1875 17.6142V23.2429C18.3797 23.1747 18.6081 23.0972 18.8576 23.0197C19.5668 22.7994 20.4958 22.5625 21.25 22.5625C21.9909 22.5625 22.6048 22.8081 23.1381 23.0215L23.1625 23.0313C23.7173 23.2532 24.1897 23.4375 24.75 23.4375C25.335 23.4375 26.1551 23.2373 26.8635 23.0193C27.2103 22.9126 27.5176 22.8058 27.7382 22.7256C27.7642 22.7161 27.789 22.707 27.8125 22.6983V17.0696Z" fill="white"/>
    <path d="M28.4125 23.4062C28.5786 23.3398 28.6875 23.1789 28.6875 23V16.4375C28.6875 16.2916 28.6148 16.1554 28.4937 16.0742L28.084 16.0327L28.0831 16.0331L28.0793 16.0346L28.0627 16.0413C28.0477 16.0473 28.0253 16.0563 27.9959 16.0678C27.9372 16.0908 27.8511 16.124 27.7433 16.164C27.5274 16.244 27.2256 16.3507 26.8828 16.4572C26.1836 16.6744 25.3626 16.875 24.75 16.875C24.1618 16.875 23.6876 16.6897 23.1439 16.4695C23.1312 16.4644 23.1186 16.4592 23.1058 16.4541C22.5834 16.2423 21.9857 16 21.25 16C20.5225 16 19.5926 16.2373 18.8791 16.4568C18.6216 16.5361 18.3853 16.6152 18.1875 16.6845V16.4375C18.1875 16.1959 17.9916 16 17.75 16C17.5084 16 17.3125 16.1959 17.3125 16.4375V29.5625C17.3125 29.8041 17.5084 30 17.75 30C17.9916 30 18.1875 29.8041 18.1875 29.5625V24.1743C18.2094 24.1661 18.2325 24.1575 18.2567 24.1485C18.4726 24.0685 18.7744 23.9618 19.1172 23.8553C19.8164 23.6381 20.6374 23.4375 21.25 23.4375C21.8103 23.4375 22.2827 23.6218 22.8375 23.8437L22.8619 23.8535C23.3952 24.0669 24.0091 24.3125 24.75 24.3125C25.4775 24.3125 26.4074 24.0752 27.1209 23.8557C27.485 23.7436 27.8066 23.6317 28.0372 23.5479C28.1526 23.5059 28.2456 23.4708 28.3101 23.4461C28.3424 23.4337 28.3675 23.4239 28.3848 23.4171L28.4048 23.4093L28.4102 23.4071L28.4125 23.4062ZM28.4125 23.4062L28.25 23C28.4125 23.4062 28.4125 23.4062 28.4125 23.4062ZM27.1424 17.2928C27.3919 17.2153 27.6203 17.1378 27.8125 17.0696V22.6983C27.789 22.707 27.7642 22.7161 27.7382 22.7256C27.5176 22.8058 27.2103 22.9126 26.8635 23.0193C26.1551 23.2373 25.335 23.4375 24.75 23.4375C24.1897 23.4375 23.7173 23.2532 23.1625 23.0313L23.1381 23.0215C22.6048 22.8081 21.9909 22.5625 21.25 22.5625C20.4958 22.5625 19.5668 22.7994 18.8576 23.0197C18.6081 23.0972 18.3797 23.1747 18.1875 23.2429V17.6142C18.211 17.6055 18.2358 17.5964 18.2618 17.5869C18.4824 17.5067 18.7897 17.3999 19.1365 17.2932C19.8449 17.0752 20.665 16.875 21.25 16.875C21.8089 16.875 22.2667 17.0582 22.8154 17.2805L22.822 17.2832C23.3569 17.4998 23.9745 17.75 24.75 17.75C25.5042 17.75 26.4332 17.5131 27.1424 17.2928Z" stroke="white" stroke-width="0.75" stroke-linecap="round" stroke-linejoin="round"/>
</svg>
