<svg width="44" height="44" viewBox="0 0 44 44" fill="none" xmlns="http://www.w3.org/2000/svg">
<mask id="path-1-outside-1_9483_71027" maskUnits="userSpaceOnUse" x="0" y="0" width="44" height="44" fill="black">
<rect fill="white" width="44" height="44"/>
<path d="M2 22C2 10.9543 10.9543 2 22 2V2C33.0457 2 42 10.9543 42 22V22C42 33.0457 33.0457 42 22 42V42C10.9543 42 2 33.0457 2 22V22Z"/>
</mask>
<path d="M2 22C2 10.9543 10.9543 2 22 2V2C33.0457 2 42 10.9543 42 22V22C42 33.0457 33.0457 42 22 42V42C10.9543 42 2 33.0457 2 22V22Z" fill="#656565" fill-opacity="0.9"/>
<path d="M2 22M42 22M42 22M2 22M22 2M42 22M22 42M2 22M22 42V40C12.0589 40 4 31.9411 4 22H2H0C0 34.1503 9.84974 44 22 44V42ZM42 22H40C40 31.9411 31.9411 40 22 40V42V44C34.1503 44 44 34.1503 44 22H42ZM22 2V4C31.9411 4 40 12.0589 40 22H42H44C44 9.84974 34.1503 0 22 0V2ZM22 2V0C9.84974 0 0 9.84974 0 22H2H4C4 12.0589 12.0589 4 22 4V2Z" fill="white" mask="url(#path-1-outside-1_9483_71027)"/>
<path d="M20.9062 33.9961H23.0864V26.2909H20.9062V33.9961Z" fill="white"/>
<path d="M14.9958 26.1972C17.8117 24.5545 19.1414 22.9106 19.1414 22.9106C18.1247 22.833 15.7006 21.6598 16.7173 20.7207C17.6551 19.8593 20.3934 16.8093 20.3146 16.7316C19.8463 16.6528 18.3601 16.0268 18.9072 15.3231C19.4544 14.6182 20.3934 12.9755 21.1759 11.334C21.4877 10.7068 21.7231 10.0031 21.9572 10.0031C22.1926 10.0031 22.428 10.7068 22.7398 11.334C23.5223 12.9755 24.539 14.6971 25.0874 15.3231C25.6333 16.0268 24.1471 16.6528 23.6788 16.7316C23.6012 16.7316 26.3382 19.8593 27.2772 20.7207C28.2951 21.5809 25.9476 22.833 24.852 22.9106C24.852 22.9106 26.1817 24.4757 28.9976 26.1972C30.4061 27.0574 26.9205 29.4414 21.9888 29.4414C17.0582 29.4414 13.5872 27.0574 14.9958 26.1972Z" fill="white"/>
</svg>
