<svg width="44" height="44" viewBox="0 0 44 44" fill="none" xmlns="http://www.w3.org/2000/svg">
<mask id="path-1-outside-1_10105_36725" maskUnits="userSpaceOnUse" x="0" y="0" width="44" height="44" fill="black">
<rect fill="white" width="44" height="44"/>
<path d="M2 22C2 10.9543 10.9543 2 22 2C33.0457 2 42 10.9543 42 22C42 33.0457 33.0457 42 22 42C10.9543 42 2 33.0457 2 22Z"/>
</mask>
<path d="M2 22C2 10.9543 10.9543 2 22 2C33.0457 2 42 10.9543 42 22C42 33.0457 33.0457 42 22 42C10.9543 42 2 33.0457 2 22Z" fill="white"/>
<path d="M2 22M42 22M42 22M2 22M22 2M42 22M22 42M2 22M22 42V40C12.0589 40 4 31.9411 4 22H2H0C0 34.1503 9.84974 44 22 44V42ZM42 22H40C40 31.9411 31.9411 40 22 40V42V44C34.1503 44 44 34.1503 44 22H42ZM22 2V4C31.9411 4 40 12.0589 40 22H42H44C44 9.84974 34.1503 0 22 0V2ZM22 2V0C9.84974 0 0 9.84974 0 22H2H4C4 12.0589 12.0589 4 22 4V2Z" fill="#4F8747" mask="url(#path-1-outside-1_10105_36725)"/>
<path d="M35.5159 24.641C35.5169 24.6415 34.7151 23.4593 34.7151 23.4593L31.8833 17.1714L30.4295 15.4698L29.6878 13.021C29.4795 12.559 29.0715 11.3119 28.5462 11.2004C28.1036 11.1058 27.3835 11.9108 27.1644 12.3669L26.3479 14.214L25.5229 16.5703C25.2875 16.3511 24.9104 16.3062 24.5901 15.9816C24.2352 15.6224 23.9306 14.9985 23.5551 15.1127C23.2202 15.1657 22.987 15.3053 22.8095 15.6559L20.7087 17.7654L19.7451 21.4402L17.4316 19.4259L16.6276 18.0819L15.4081 16.7688C15.0878 16.3306 15.2247 15.7738 14.7556 15.809L14.0409 15.7836C13.5637 15.828 13.5469 15.9827 13.278 16.4767L12.0937 17.9818L11.4764 19.8133L10.1476 21.5608L9.86625 22.8009L8.32644 25.2345L7.80867 26.6185C8.05213 26.1661 7.06257 27.0432 7.06257 27.0432C6.7834 27.5588 7.13399 27.8693 6.73633 28.6084H13.2207H14.2649H37.0703L36.9112 27.4971L36.0991 26.5032L35.6679 25.5672L35.5159 24.641Z" fill="#4F8747"/>
<path d="M19.2046 25.613C19.6294 25.6192 20.0996 25.61 20.5254 25.5627C20.912 25.5198 21.4046 25.4332 21.7681 25.1985L21.7677 25.1981C22.2573 24.8823 22.5522 24.342 22.7496 23.8893C22.9575 23.4127 23.1294 22.8542 23.2846 22.3648C23.448 21.8497 23.595 21.4035 23.7637 21.0535C23.8585 20.8569 23.9401 20.736 24.0011 20.6628C24.0744 20.7007 24.1668 20.7534 24.2856 20.8261C24.4425 20.9221 24.663 21.0622 24.8693 21.1653C25.0504 21.2558 25.3871 21.4082 25.7629 21.3674C26.2693 21.3126 26.6155 20.9599 26.8015 20.7433C27.0107 20.4996 27.2042 20.1967 27.3567 19.9606C27.4964 19.7444 27.6095 19.5742 27.7117 19.4439C27.7744 19.5266 27.8472 19.6319 27.9301 19.7637C28.0426 19.9426 28.224 20.251 28.358 20.456C28.4948 20.6651 28.6971 20.9551 28.9588 21.1483L28.9596 21.1487C29.2391 21.3545 29.5718 21.4236 29.7953 21.4566C30.0373 21.4922 30.3018 21.5034 30.5126 21.5132C30.7439 21.524 30.9221 21.5334 31.0681 21.5552C31.0967 21.5595 31.1202 21.5647 31.1395 21.5687C31.1453 21.586 31.1535 21.6065 31.1605 21.6317C31.2058 21.7952 31.2373 22.0018 31.2793 22.2776C31.3169 22.5245 31.3649 22.8414 31.4493 23.1205C31.5252 23.3712 31.6852 23.7916 32.0846 24.0402C32.852 24.5172 33.6402 24.1778 34.0679 23.9606C34.2944 23.8455 34.5558 23.6899 34.7309 23.5924C34.935 23.4789 35.0839 23.4076 35.2032 23.3709L34.7312 21.8342C34.441 21.9233 34.1687 22.0658 33.949 22.1881C33.7003 22.3265 33.5346 22.4288 33.3399 22.5277C33.1751 22.6114 33.0646 22.6502 32.9912 22.6656C32.9902 22.6621 32.9888 22.6585 32.9877 22.6549C32.9425 22.5056 32.9097 22.3068 32.8684 22.0355C32.8315 21.7932 32.786 21.4788 32.7095 21.2025C32.6409 20.9549 32.5001 20.5447 32.1428 20.2777C31.8632 20.0688 31.5289 19.9988 31.3051 19.9654C31.0627 19.9292 30.7982 19.9174 30.5871 19.9075C30.3553 19.8967 30.1766 19.888 30.0295 19.8663C29.96 19.8561 29.9193 19.8456 29.8991 19.8398C29.8896 19.8297 29.8757 19.8148 29.8579 19.793C29.8152 19.7405 29.7643 19.6694 29.7034 19.5763C29.5632 19.3619 29.4655 19.1858 29.2909 18.9081C29.144 18.6746 28.9568 18.3947 28.7369 18.1727C28.5325 17.9664 28.1548 17.6625 27.6325 17.6991C27.113 17.7358 26.7556 18.0893 26.5665 18.3054C26.3541 18.5482 26.1596 18.8511 26.0062 19.0884C25.8352 19.3531 25.7052 19.5531 25.5822 19.6963C25.5763 19.7032 25.5702 19.7093 25.5647 19.7153C25.4443 19.6531 25.311 19.5691 25.1245 19.455C24.9523 19.3496 24.719 19.2089 24.4829 19.1166C24.2735 19.0347 23.8551 18.9057 23.4265 19.1075C22.866 19.3718 22.5314 19.9088 22.3161 20.3553C22.0894 20.8255 21.9099 21.382 21.7522 21.879C21.5864 22.4018 21.4427 22.865 21.2763 23.2465C21.0996 23.6517 20.9615 23.8056 20.8963 23.8476L20.8959 23.848C20.9014 23.8445 20.8645 23.8673 20.7532 23.896C20.6493 23.9228 20.5137 23.9466 20.3483 23.9649C20.0168 24.0017 19.6212 24.0115 19.2284 24.0058C18.839 24.0001 18.4698 23.9795 18.1969 23.9602C18.1239 23.955 18.0582 23.9493 18.0011 23.9447C17.7788 23.7486 17.5378 23.5094 17.2776 23.241C16.9593 22.9127 16.5992 22.5271 16.2619 22.1936C15.9237 21.8592 15.5558 21.5231 15.1868 21.2814C14.8446 21.0573 14.3384 20.8043 13.7769 20.9133C13.341 20.9981 12.9797 21.2976 12.7427 21.5219C12.4774 21.773 12.2164 22.0809 11.987 22.3624C11.7412 22.664 11.5464 22.9163 11.3541 23.1427C11.2624 23.2507 11.187 23.3335 11.1263 23.3931C11.1045 23.4145 11.0876 23.4294 11.0759 23.4395C11.0606 23.4428 11.0375 23.4481 11.0046 23.4526C10.9079 23.4658 10.7747 23.4738 10.6068 23.4744C10.2719 23.4755 9.863 23.4469 9.45441 23.4054C9.04936 23.3643 8.6613 23.312 8.37339 23.2699C8.22986 23.2489 8.11196 23.2306 8.03061 23.2176C7.99004 23.2111 7.95852 23.206 7.93749 23.2025C7.92707 23.2008 7.91923 23.1994 7.91411 23.1986C7.91168 23.1981 7.90972 23.198 7.90856 23.1978C7.9081 23.1977 7.9076 23.1974 7.90737 23.1974C7.9074 23.1974 7.90587 23.2049 7.77185 23.9899C7.63744 24.7772 7.63665 24.782 7.63672 24.782H7.63751C7.63804 24.7821 7.639 24.7823 7.63989 24.7824C7.64166 24.7827 7.64429 24.7831 7.64742 24.7836C7.65383 24.7847 7.66298 24.7864 7.67476 24.7884C7.69858 24.7923 7.73322 24.798 7.777 24.805C7.86451 24.819 7.98956 24.8384 8.14117 24.8605C8.4437 24.9047 8.85626 24.9605 9.29194 25.0048C9.72407 25.0487 10.1962 25.0831 10.6123 25.0816C10.8199 25.0809 11.03 25.0712 11.2226 25.0448C11.3766 25.0237 11.5764 24.9851 11.7655 24.8974L11.8455 24.8569L11.8459 24.8565C12.0095 24.7659 12.149 24.6419 12.2521 24.5407C12.3627 24.4322 12.4734 24.3076 12.579 24.1833C12.7814 23.945 13.0257 23.6319 13.2328 23.3777C13.4564 23.1033 13.6626 22.8643 13.8475 22.6894C13.9653 22.5779 14.0403 22.5263 14.0753 22.5039C14.1117 22.5163 14.186 22.5471 14.3063 22.6259C14.5352 22.7759 14.8098 23.0181 15.1318 23.3365C15.4547 23.6558 15.7725 23.9978 16.1232 24.3596C16.4598 24.7069 16.8191 25.0641 17.1725 25.3491L17.2193 25.384C17.3306 25.4611 17.46 25.5092 17.5954 25.5231H17.5985C17.6003 25.5233 17.6029 25.5236 17.6061 25.5239C17.6124 25.5245 17.6214 25.5255 17.633 25.5266C17.6562 25.5289 17.6895 25.532 17.7317 25.5358C17.8162 25.5432 17.9369 25.5531 18.0836 25.5635C18.3759 25.5842 18.7764 25.6068 19.2046 25.613Z" fill="white"/>
<path d="M16.9881 27.6301L17.0765 27.4859L17.0987 27.3179L17.3241 25.6242L19.7671 22.0526L22.8656 15.2955L21.4041 14.6258L18.3636 21.2569L15.7815 25.0322L15.7565 25.222L15.5275 26.9387L14.3398 28.8867L15.7125 29.7236L16.9881 27.6301Z" fill="white"/>
</svg>
