<svg width="44" height="44" viewBox="0 0 44 44" fill="none" xmlns="http://www.w3.org/2000/svg">
<mask id="path-1-outside-1_10105_36708" maskUnits="userSpaceOnUse" x="0" y="0" width="44" height="44" fill="black">
<rect fill="white" width="44" height="44"/>
<path d="M2 22C2 10.9543 10.9543 2 22 2C33.0457 2 42 10.9543 42 22C42 33.0457 33.0457 42 22 42C10.9543 42 2 33.0457 2 22Z"/>
</mask>
<path d="M2 22C2 10.9543 10.9543 2 22 2C33.0457 2 42 10.9543 42 22C42 33.0457 33.0457 42 22 42C10.9543 42 2 33.0457 2 22Z" fill="#4F8747"/>
<path d="M2 22M42 22M42 22M2 22M22 2M42 22M22 42M2 22M22 42V40C12.0589 40 4 31.9411 4 22H2H0C0 34.1503 9.84974 44 22 44V42ZM42 22H40C40 31.9411 31.9411 40 22 40V42V44C34.1503 44 44 34.1503 44 22H42ZM22 2V4C31.9411 4 40 12.0589 40 22H42H44C44 9.84974 34.1503 0 22 0V2ZM22 2V0C9.84974 0 0 9.84974 0 22H2H4C4 12.0589 12.0589 4 22 4V2Z" fill="white" mask="url(#path-1-outside-1_10105_36708)"/>
<path d="M35.5159 24.641C35.5169 24.6415 34.7151 23.4593 34.7151 23.4593L31.8833 17.1714L30.4295 15.4698L29.6878 13.021C29.4795 12.559 29.0715 11.3119 28.5462 11.2004C28.1036 11.1058 27.3835 11.9108 27.1644 12.3669L26.3479 14.214L25.5229 16.5703C25.2875 16.3511 24.9104 16.3062 24.5901 15.9816C24.2352 15.6224 23.9306 14.9985 23.5551 15.1127C23.2202 15.1657 22.987 15.3053 22.8095 15.6559L20.7087 17.7654L19.7451 21.4402L17.4316 19.4259L16.6276 18.0819L15.4081 16.7688C15.0878 16.3306 15.2247 15.7738 14.7556 15.809L14.0409 15.7836C13.5637 15.828 13.5469 15.9827 13.278 16.4767L12.0937 17.9818L11.4764 19.8133L10.1476 21.5608L9.86625 22.8009L8.32644 25.2345L7.80867 26.6185C8.05213 26.1661 7.06257 27.0432 7.06257 27.0432C6.7834 27.5588 7.13399 27.8693 6.73633 28.6084H13.2207H14.2649H37.0703L36.9112 27.4971L36.0991 26.5032L35.6679 25.5672L35.5159 24.641Z" fill="white"/>
<path d="M19.2046 25.6125C19.6294 25.6188 20.0996 25.6095 20.5254 25.5622C20.912 25.5193 21.4046 25.4327 21.7681 25.198L21.7677 25.1976C22.2573 24.8818 22.5522 24.3415 22.7496 23.8888C22.9575 23.4122 23.1294 22.8537 23.2846 22.3643C23.448 21.8492 23.595 21.403 23.7637 21.0531C23.8585 20.8564 23.9401 20.7355 24.0011 20.6623C24.0744 20.7002 24.1668 20.7529 24.2856 20.8256C24.4425 20.9216 24.663 21.0617 24.8693 21.1648C25.0504 21.2553 25.3871 21.4077 25.7629 21.3669C26.2693 21.3122 26.6155 20.9594 26.8015 20.7428C27.0107 20.4991 27.2042 20.1962 27.3567 19.9602C27.4964 19.7439 27.6095 19.5738 27.7117 19.4434C27.7744 19.5261 27.8472 19.6314 27.9301 19.7632C28.0426 19.9421 28.224 20.2505 28.358 20.4555C28.4948 20.6646 28.6971 20.9546 28.9588 21.1478L28.9596 21.1482C29.2391 21.3541 29.5718 21.4231 29.7953 21.4561C30.0373 21.4917 30.3018 21.5029 30.5126 21.5127C30.7439 21.5235 30.9221 21.5329 31.0681 21.5547C31.0967 21.559 31.1202 21.5643 31.1395 21.5682C31.1453 21.5855 31.1535 21.606 31.1605 21.6312C31.2058 21.7947 31.2373 22.0013 31.2793 22.2771C31.3169 22.524 31.3649 22.8409 31.4493 23.12C31.5252 23.3707 31.6852 23.7911 32.0846 24.0397C32.852 24.5167 33.6402 24.1773 34.0679 23.9601C34.2944 23.8451 34.5558 23.6894 34.7309 23.592C34.935 23.4784 35.0839 23.4071 35.2032 23.3704L34.7312 21.8337C34.441 21.9228 34.1687 22.0654 33.949 22.1876C33.7003 22.326 33.5346 22.4283 33.3399 22.5272C33.1751 22.6109 33.0646 22.6498 32.9912 22.6651C32.9902 22.6616 32.9888 22.658 32.9877 22.6544C32.9425 22.5051 32.9097 22.3063 32.8684 22.035C32.8315 21.7927 32.786 21.4783 32.7095 21.2021C32.6409 20.9544 32.5001 20.5443 32.1428 20.2772C31.8632 20.0683 31.5289 19.9983 31.3051 19.9649C31.0627 19.9287 30.7982 19.9169 30.5871 19.9071C30.3553 19.8962 30.1766 19.8875 30.0295 19.8658C29.96 19.8556 29.9193 19.8451 29.8991 19.8393C29.8896 19.8293 29.8757 19.8143 29.8579 19.7925C29.8152 19.7401 29.7643 19.6689 29.7034 19.5758C29.5632 19.3614 29.4655 19.1854 29.2909 18.9077C29.144 18.6741 28.9568 18.3942 28.7369 18.1722C28.5325 17.966 28.1548 17.662 27.6325 17.6986C27.113 17.7354 26.7556 18.0888 26.5665 18.3049C26.3541 18.5477 26.1596 18.8506 26.0062 19.088C25.8352 19.3526 25.7052 19.5526 25.5822 19.6958C25.5763 19.7027 25.5702 19.7088 25.5647 19.7149C25.4443 19.6526 25.311 19.5686 25.1245 19.4545C24.9523 19.3491 24.719 19.2084 24.4829 19.1161C24.2735 19.0342 23.8551 18.9052 23.4265 19.107C22.866 19.3713 22.5314 19.9084 22.3161 20.3548C22.0894 20.825 21.9099 21.3815 21.7522 21.8785C21.5864 22.4013 21.4427 22.8645 21.2763 23.246C21.0996 23.6512 20.9615 23.8051 20.8963 23.8472L20.8959 23.8476C20.9014 23.844 20.8645 23.8668 20.7532 23.8955C20.6493 23.9224 20.5137 23.9461 20.3483 23.9645C20.0168 24.0012 19.6212 24.011 19.2284 24.0053C18.839 23.9996 18.4698 23.979 18.1969 23.9597C18.1239 23.9545 18.0582 23.9489 18.0011 23.9442C17.7788 23.7481 17.5378 23.5089 17.2776 23.2405C16.9593 22.9122 16.5992 22.5266 16.2619 22.1931C15.9237 21.8587 15.5558 21.5226 15.1868 21.2809C14.8446 21.0568 14.3384 20.8038 13.7769 20.9128C13.341 20.9976 12.9797 21.2971 12.7427 21.5215C12.4774 21.7725 12.2164 22.0804 11.987 22.3619C11.7412 22.6635 11.5464 22.9158 11.3541 23.1422C11.2624 23.2502 11.187 23.3331 11.1263 23.3926C11.1045 23.414 11.0876 23.4289 11.0759 23.439C11.0606 23.4423 11.0375 23.4476 11.0046 23.4521C10.9079 23.4653 10.7747 23.4733 10.6068 23.4739C10.2719 23.475 9.863 23.4464 9.45441 23.4049C9.04936 23.3638 8.6613 23.3115 8.37339 23.2694C8.22986 23.2484 8.11196 23.2301 8.03061 23.2171C7.99004 23.2106 7.95852 23.2055 7.93749 23.202C7.92707 23.2003 7.91923 23.1989 7.91411 23.1981C7.91168 23.1977 7.90972 23.1975 7.90856 23.1973C7.9081 23.1972 7.9076 23.1969 7.90737 23.1969C7.9074 23.197 7.90587 23.2044 7.77185 23.9894C7.63744 24.7767 7.63665 24.7815 7.63672 24.7816H7.63751C7.63804 24.7817 7.639 24.7818 7.63989 24.782C7.64166 24.7823 7.64429 24.7826 7.64742 24.7831C7.65383 24.7842 7.66298 24.7859 7.67476 24.7879C7.69858 24.7918 7.73322 24.7975 7.777 24.8045C7.86451 24.8185 7.98956 24.8379 8.14117 24.86C8.4437 24.9042 8.85626 24.96 9.29194 25.0043C9.72407 25.0482 10.1962 25.0826 10.6123 25.0811C10.8199 25.0804 11.03 25.0707 11.2226 25.0443C11.3766 25.0232 11.5764 24.9846 11.7655 24.8969L11.8455 24.8565L11.8459 24.8561C12.0095 24.7654 12.149 24.6414 12.2521 24.5402C12.3627 24.4317 12.4734 24.3071 12.579 24.1828C12.7814 23.9445 13.0257 23.6314 13.2328 23.3772C13.4564 23.1028 13.6626 22.8639 13.8475 22.6889C13.9653 22.5774 14.0403 22.5258 14.0753 22.5034C14.1117 22.5158 14.186 22.5466 14.3063 22.6255C14.5352 22.7754 14.8098 23.0176 15.1318 23.336C15.4547 23.6553 15.7725 23.9973 16.1232 24.3591C16.4598 24.7064 16.8191 25.0636 17.1725 25.3486L17.2193 25.3835C17.3306 25.4606 17.46 25.5087 17.5954 25.5226H17.5985C17.6003 25.5228 17.6029 25.5231 17.6061 25.5234C17.6124 25.524 17.6214 25.525 17.633 25.5262C17.6562 25.5284 17.6895 25.5315 17.7317 25.5353C17.8162 25.5428 17.9369 25.5526 18.0836 25.563C18.3759 25.5837 18.7764 25.6063 19.2046 25.6125Z" fill="#4F8747"/>
<path d="M16.9881 27.6301L17.0765 27.4859L17.0987 27.3179L17.3241 25.6242L19.7671 22.0526L22.8656 15.2955L21.4041 14.6258L18.3636 21.2569L15.7815 25.0322L15.7565 25.222L15.5275 26.9387L14.3398 28.8867L15.7125 29.7236L16.9881 27.6301Z" fill="#4F8747"/>
</svg>
