<svg width="192" height="56" viewBox="0 0 192 56" fill="none" xmlns="http://www.w3.org/2000/svg">
<path d="M3.67347 17.8605V5.67053C3.67347 2.44478 3.5716 1.86754 2.17943 1.69776L1.09287 1.56194C0.855181 1.39217 0.855183 0.848882 1.12683 0.713061C3.02832 0.543285 5.37123 0.441419 8.69884 0.441419C10.8041 0.441419 12.8074 0.611195 14.3694 1.46008C15.9992 2.30896 17.1877 3.83694 17.1877 6.21381C17.1877 9.43956 14.641 11.2052 12.9433 11.8843C12.7735 12.0881 12.9432 12.4276 13.113 12.6993C15.8294 17.0795 17.6291 19.7959 19.938 21.7314C20.5153 22.2407 21.3642 22.6142 22.2809 22.6821C22.4507 22.75 22.4847 23.0217 22.3149 23.1575C22.0093 23.2593 21.466 23.3273 20.8209 23.3273C17.9347 23.3273 16.203 22.4784 13.7921 19.0489C12.9093 17.7926 11.5171 15.4496 10.4645 13.9217C9.95519 13.1746 9.4119 12.8351 8.05369 12.8351C6.5257 12.8351 6.4578 12.869 6.4578 13.5821V17.8605C6.4578 21.4258 6.52571 21.8332 8.49511 22.1049L9.20817 22.2067C9.4119 22.3765 9.34399 22.9538 9.14026 23.0556C7.61228 22.9877 6.45779 22.9538 5.09958 22.9538C3.67346 22.9538 2.45108 22.9877 0.85518 23.0556C0.651449 22.9538 0.583539 22.4444 0.78727 22.2067L1.63615 22.1049C3.60555 21.8672 3.67347 21.4258 3.67347 17.8605ZM6.4578 2.5806V10.5261C6.4578 11.1373 6.4578 11.5108 6.55966 11.6467C6.66153 11.7485 7.17086 11.8164 8.90257 11.8164C10.125 11.8164 11.4153 11.6806 12.4 10.9336C13.3168 10.2205 14.0977 9.0321 14.0977 6.72314C14.0977 4.04068 12.4339 1.49403 8.66489 1.49403C6.55966 1.49403 6.4578 1.62985 6.4578 2.5806Z" fill="white"/>
<path d="M30.5117 14.2612H24.23C23.3472 14.2612 23.3132 14.3291 23.3132 15.178C23.3132 18.6075 25.3166 21.5276 28.9498 21.5276C30.0703 21.5276 31.0211 21.1881 32.0737 19.8638C32.4132 19.762 32.6509 19.9657 32.6849 20.2713C31.5643 22.5802 29.1196 23.4291 27.3539 23.4291C25.1468 23.4291 23.4151 22.4784 22.4304 21.1881C21.4117 19.8638 21.0042 18.2679 21.0042 16.7739C21.0042 12.5974 23.7546 9.10001 27.8293 9.10001C30.7494 9.10001 32.6509 11.1034 32.6509 13.1407C32.6509 13.6161 32.583 13.8877 32.5151 14.0235C32.4132 14.2273 31.9378 14.2612 30.5117 14.2612ZM23.9244 13.2425H26.3352C28.8479 13.2425 29.5949 13.1067 29.8666 12.903C29.9684 12.8351 30.0703 12.6993 30.0703 12.2578C30.0703 11.3071 29.4252 10.1187 27.4558 10.1187C25.4524 10.1187 23.7207 11.9523 23.6867 13.0728C23.6867 13.1407 23.6867 13.2425 23.9244 13.2425Z" fill="white"/>
<path d="M41.7194 9.10001C42.5004 9.10001 43.8246 9.26978 44.7414 9.67725C45.0131 9.91493 45.2508 10.4582 45.2508 11.0355C45.2508 11.6467 44.9112 12.2918 44.5037 12.2918C44.334 12.2918 44.1642 12.2239 44.0284 12.0541C43.2814 11.1373 42.025 10.2545 40.6329 10.2545C38.256 10.2545 35.947 12.122 35.947 15.7213C35.947 18.3698 37.7806 21.5276 41.4138 21.5276C43.3832 21.5276 44.4019 20.6448 45.1828 19.4903C45.4545 19.4224 45.7601 19.6601 45.794 19.9657C44.6396 22.4784 42.0929 23.4291 40.1235 23.4291C38.3239 23.4291 36.6601 22.8519 35.4717 21.6974C34.2832 20.5429 33.5023 18.8791 33.5023 16.672C33.5023 13.0049 36.0828 9.10001 41.7194 9.10001Z" fill="white"/>
<path d="M48.2042 19.1508V13.2086C48.2042 11.8843 48.2042 11.7146 47.2874 11.1034L46.9818 10.8996C46.8459 10.7638 46.8459 10.3903 47.0157 10.2884C47.7967 10.0168 49.5963 9.13396 50.4452 8.62464C50.615 8.65859 50.7169 8.7265 50.7169 8.86232V10.8317C50.7169 11.0015 50.7508 11.1034 50.8187 11.1373C52.0071 10.1526 53.2974 9.10001 54.5538 9.10001C55.4027 9.10001 56.0818 9.64329 56.0818 10.4582C56.0818 11.5787 55.165 12.0202 54.6217 12.0202C54.2822 12.0202 54.1124 11.9183 53.8747 11.7825C53.3654 11.4429 52.856 11.2392 52.3807 11.2392C51.8374 11.2392 51.4299 11.5448 51.1583 11.9183C50.8187 12.3937 50.7169 13.3784 50.7169 14.5328V19.1508C50.7169 21.5955 50.7848 22.003 52.0751 22.1049L53.2974 22.2067C53.5351 22.3765 53.4672 22.9538 53.2295 23.0556C51.6336 22.9877 50.6489 22.9538 49.4605 22.9538C48.2381 22.9538 47.2195 22.9877 46.3366 23.0556C46.0989 22.9538 46.031 22.3765 46.2687 22.2067L46.9139 22.1049C48.1702 21.9011 48.2042 21.5955 48.2042 19.1508Z" fill="white"/>
<path d="M65.5164 14.2612H59.2346C58.3518 14.2612 58.3179 14.3291 58.3179 15.178C58.3179 18.6075 60.3212 21.5276 63.9544 21.5276C65.075 21.5276 66.0257 21.1881 67.0783 19.8638C67.4179 19.762 67.6556 19.9657 67.6895 20.2713C66.569 22.5802 64.1242 23.4291 62.3585 23.4291C60.1515 23.4291 58.4197 22.4784 57.435 21.1881C56.4164 19.8638 56.0089 18.2679 56.0089 16.7739C56.0089 12.5974 58.7593 9.10001 62.8339 9.10001C65.7541 9.10001 67.6555 11.1034 67.6555 13.1407C67.6555 13.6161 67.5877 13.8877 67.5197 14.0235C67.4179 14.2273 66.9425 14.2612 65.5164 14.2612ZM58.9291 13.2425H61.3399C63.8526 13.2425 64.5996 13.1067 64.8712 12.903C64.9731 12.8351 65.075 12.6993 65.075 12.2578C65.075 11.3071 64.4298 10.1187 62.4604 10.1187C60.457 10.1187 58.7253 11.9523 58.6914 13.0728C58.6914 13.1407 58.6914 13.2425 58.9291 13.2425Z" fill="white"/>
<path d="M71.2912 17.3851L75.3319 15.925C75.8412 15.7552 75.9091 15.4496 75.9091 14.9403L75.9431 13.3784C75.9771 12.122 75.5696 10.4243 73.4644 10.4243C72.5136 10.4243 71.3591 10.8996 71.2912 11.9522C71.2573 12.4955 71.2233 12.903 70.9517 13.1067C70.4423 13.5142 69.5256 13.7519 69.0162 13.7519C68.7106 13.7519 68.5409 13.5821 68.5409 13.2765C68.5409 11.5108 72.3778 9.10001 74.8565 9.10001C77.3013 9.10001 78.4897 10.5261 78.3879 13.0728L78.1842 18.981C78.1162 20.5429 78.4218 21.9351 79.7461 21.9351C80.0856 21.9351 80.3912 21.8332 80.595 21.7314C80.7648 21.6295 80.9345 21.4937 81.0364 21.4937C81.1722 21.4937 81.2741 21.6974 81.2741 21.9351C81.2741 22.1049 80.0856 23.4291 78.4218 23.4291C77.6069 23.4291 76.792 23.1235 76.2148 22.3765C76.0789 22.1728 75.8752 21.9011 75.6715 21.9011C75.4338 21.9011 75.0263 22.2067 74.3472 22.5802C73.6002 22.9877 72.8532 23.4291 71.9024 23.4291C70.9177 23.4291 70.1028 23.1575 69.5256 22.6482C68.8804 22.0709 68.4729 21.222 68.4729 20.2713C68.4729 18.947 69.1181 18.1661 71.2912 17.3851ZM71.0875 19.8638C71.0875 20.4411 71.495 21.9011 73.2267 21.9011C73.9058 21.9011 74.9584 21.3918 75.298 21.0523C75.7054 20.6448 75.7054 20.1694 75.7394 19.4564L75.8073 17.453C75.8073 17.0795 75.6715 17.0116 75.4677 17.0116C75.264 17.0116 74.6868 17.1474 74.0756 17.3511C72.0722 18.0302 71.0875 18.5396 71.0875 19.8638Z" fill="white"/>
<path d="M89.9627 11.0015H86.1258C85.5485 11.0015 85.5146 11.1034 85.5146 11.8164V18.1661C85.5146 20.1355 85.7523 21.9351 87.9933 21.9351C88.3329 21.9351 88.6385 21.8672 88.9101 21.7653C89.2157 21.6635 89.6571 21.2899 89.759 21.2899C90.0306 21.2899 90.1665 21.6635 90.0985 21.8672C89.4874 22.5802 88.265 23.4291 86.5332 23.4291C83.6131 23.4291 83.0019 21.7993 83.0019 19.762V11.9862C83.0019 11.0694 82.9679 11.0015 82.2888 11.0015H81.3381C81.1344 10.8657 81.1004 10.4922 81.2362 10.2884C82.2209 9.98284 83.0698 9.54143 83.4094 9.23583C83.8508 8.82837 84.4959 7.91157 84.8355 7.23247C85.0053 7.16456 85.4127 7.16456 85.5485 7.40225V8.93023C85.5485 9.54143 85.5825 9.57538 86.1597 9.57538H89.9288C90.3362 9.88098 90.2683 10.7978 89.9627 11.0015Z" fill="white"/>
<path d="M92.7548 19.1508V13.2086C92.7548 11.8843 92.7548 11.7146 91.838 11.1034L91.5324 10.8996C91.3966 10.7638 91.3966 10.3903 91.5664 10.2884C92.3474 10.0168 94.2828 9.13396 95.0638 8.62464C95.2336 8.62464 95.3694 8.69255 95.4033 8.82837C95.3354 10.0168 95.2675 11.6467 95.2675 13.0388V19.1508C95.2675 21.5955 95.3354 21.9351 96.5578 22.1049L97.2709 22.2067C97.5086 22.3765 97.4406 22.9538 97.203 23.0556C96.1843 22.9877 95.1996 22.9538 94.0112 22.9538C92.7888 22.9538 91.7701 22.9877 90.8194 23.0556C90.5817 22.9538 90.5138 22.3765 90.7515 22.2067L91.4645 22.1049C92.7209 21.9351 92.7548 21.5955 92.7548 19.1508ZM93.8753 1.76567C94.894 1.76567 95.5731 2.5806 95.5731 3.53135C95.5731 4.75374 94.7242 5.29702 93.7735 5.29702C92.7209 5.29702 92.0418 4.51605 92.0418 3.59926C92.0418 2.47873 92.8567 1.76567 93.8753 1.76567Z" fill="white"/>
<path d="M105.57 9.10001C109.373 9.10001 112.463 11.9523 112.463 16.1287C112.463 20.3732 109.543 23.4291 105.299 23.4291C101.394 23.4291 98.3379 20.6787 98.3379 16.4343C98.3379 12.156 101.564 9.10001 105.57 9.10001ZM109.543 16.672C109.543 13.7858 108.389 10.1187 105.163 10.1187C102.922 10.1187 101.258 12.2578 101.258 15.9929C101.258 19.0829 102.65 22.4105 105.638 22.4105C108.626 22.4105 109.543 19.2866 109.543 16.672Z" fill="white"/>
<path d="M115.992 19.1508V13.2086C115.992 11.8843 115.992 11.7146 115.075 11.1034L114.769 10.8996C114.634 10.7638 114.634 10.3903 114.803 10.2884C115.584 10.0168 117.52 9.13396 118.199 8.62464C118.335 8.62464 118.504 8.69255 118.572 8.86232C118.504 9.64329 118.504 10.1526 118.504 10.4582C118.504 10.662 118.64 10.8317 118.878 10.8317C120.304 9.94889 121.9 9.10001 123.632 9.10001C126.45 9.10001 127.604 11.0355 127.604 13.3105V19.1508C127.604 21.5955 127.672 21.9351 128.895 22.1049L129.642 22.2067C129.879 22.3765 129.812 22.9538 129.574 23.0556C128.555 22.9877 127.571 22.9538 126.382 22.9538C125.16 22.9538 124.141 22.9877 123.224 23.0556C122.987 22.9538 122.919 22.3765 123.156 22.2067L123.801 22.1049C125.058 21.9011 125.092 21.5955 125.092 19.1508V14.0914C125.092 12.156 124.209 10.7299 121.9 10.7299C120.61 10.7299 119.489 11.2731 119.014 11.9183C118.572 12.4955 118.504 12.9709 118.504 13.9556V19.1508C118.504 21.5955 118.572 21.9011 119.795 22.1049L120.406 22.2067C120.644 22.3765 120.576 22.9538 120.338 23.0556C119.421 22.9877 118.437 22.9538 117.248 22.9538C116.026 22.9538 115.007 22.9877 114.056 23.0556C113.819 22.9538 113.751 22.3765 113.988 22.2067L114.701 22.1049C115.958 21.9351 115.992 21.5955 115.992 19.1508Z" fill="white"/>
<path d="M151.834 17.2153C151.834 20.9504 149.016 23.497 144.601 23.497C141.749 23.497 139.949 22.6142 139.304 22.2407C138.897 21.4937 138.455 19.0829 138.388 17.487C138.557 17.2493 139.067 17.1814 139.202 17.3851C139.712 19.1168 141.104 22.4444 145.043 22.4444C147.895 22.4444 149.287 20.5769 149.287 18.5396C149.287 17.0455 148.982 15.3817 146.503 13.7858L143.277 11.6806C141.579 10.5601 139.61 8.62463 139.61 5.8403C139.61 2.61456 142.123 0 146.537 0C147.589 0 148.812 0.203733 149.695 0.441419C150.136 0.57724 150.611 0.645152 150.883 0.645152C151.189 1.46008 151.494 3.36157 151.494 4.78769C151.358 4.99142 150.815 5.09329 150.645 4.88956C150.204 3.2597 149.287 1.05261 146.027 1.05261C142.7 1.05261 141.987 3.2597 141.987 4.82165C141.987 6.79105 143.617 8.21717 144.873 8.99814L147.589 10.6959C149.729 12.0202 151.834 13.9896 151.834 17.2153Z" fill="white"/>
<path d="M155.539 19.1508V13.2086C155.539 11.8843 155.539 11.7146 154.622 11.1034L154.317 10.8996C154.181 10.7638 154.181 10.3903 154.351 10.2884C155.132 10.0168 157.067 9.13396 157.848 8.62464C158.018 8.62464 158.154 8.69255 158.188 8.82837C158.12 10.0168 158.052 11.6467 158.052 13.0388V19.1508C158.052 21.5955 158.12 21.9351 159.342 22.1049L160.055 22.2067C160.293 22.3765 160.225 22.9538 159.987 23.0556C158.969 22.9877 157.984 22.9538 156.796 22.9538C155.573 22.9538 154.555 22.9877 153.604 23.0556C153.366 22.9538 153.298 22.3765 153.536 22.2067L154.249 22.1049C155.505 21.9351 155.539 21.5955 155.539 19.1508ZM156.66 1.76567C157.678 1.76567 158.358 2.5806 158.358 3.53135C158.358 4.75374 157.509 5.29702 156.558 5.29702C155.505 5.29702 154.826 4.51605 154.826 3.59926C154.826 2.47873 155.641 1.76567 156.66 1.76567Z" fill="white"/>
<path d="M169.883 11.0015H166.046C165.469 11.0015 165.435 11.1034 165.435 11.8164V18.1661C165.435 20.1355 165.672 21.9351 167.913 21.9351C168.253 21.9351 168.559 21.8672 168.83 21.7653C169.136 21.6635 169.577 21.2899 169.679 21.2899C169.951 21.2899 170.087 21.6635 170.019 21.8672C169.407 22.5802 168.185 23.4291 166.453 23.4291C163.533 23.4291 162.922 21.7993 162.922 19.762V11.9862C162.922 11.0694 162.888 11.0015 162.209 11.0015H161.258C161.054 10.8657 161.02 10.4922 161.156 10.2884C162.141 9.98284 162.99 9.54143 163.329 9.23583C163.771 8.82837 164.416 7.91157 164.756 7.23247C164.925 7.16456 165.333 7.16456 165.469 7.40225V8.93023C165.469 9.54143 165.503 9.57538 166.08 9.57538H169.849C170.256 9.88098 170.188 10.7978 169.883 11.0015Z" fill="white"/>
<path d="M180.043 14.2612H173.761C172.879 14.2612 172.845 14.3291 172.845 15.178C172.845 18.6075 174.848 21.5276 178.481 21.5276C179.602 21.5276 180.553 21.1881 181.605 19.8638C181.945 19.762 182.182 19.9657 182.216 20.2713C181.096 22.5802 178.651 23.4291 176.885 23.4291C174.678 23.4291 172.947 22.4784 171.962 21.1881C170.943 19.8638 170.536 18.2679 170.536 16.7739C170.536 12.5974 173.286 9.10001 177.361 9.10001C180.281 9.10001 182.182 11.1034 182.182 13.1407C182.182 13.6161 182.114 13.8877 182.047 14.0235C181.945 14.2273 181.469 14.2612 180.043 14.2612ZM173.456 13.2425H175.867C178.379 13.2425 179.126 13.1067 179.398 12.903C179.5 12.8351 179.602 12.6993 179.602 12.2578C179.602 11.3071 178.957 10.1187 176.987 10.1187C174.984 10.1187 173.252 11.9523 173.218 13.0728C173.218 13.1407 173.218 13.2425 173.456 13.2425Z" fill="white"/>
<path d="M188.127 9.10001C189.553 9.10001 190.809 9.43956 191.115 9.7112C191.421 10.4582 191.658 11.5448 191.658 12.4616C191.523 12.6993 191.013 12.7672 190.843 12.5634C190.266 11.0694 189.248 10.0847 187.855 10.0847C186.531 10.0847 185.682 10.9336 185.682 12.156C185.682 13.5481 187.108 14.2952 188.297 14.9743C190.096 15.9929 191.76 17.1474 191.76 19.5582C191.76 22.1388 189.383 23.4291 186.871 23.4291C185.275 23.4291 184.086 23.0896 183.237 22.4105C182.966 21.7653 182.762 20.1015 182.83 18.981C183 18.7773 183.441 18.7433 183.611 18.947C184.188 20.8146 185.275 22.4444 187.21 22.4444C188.433 22.4444 189.485 21.7314 189.485 20.2713C189.485 18.7093 188.127 17.8605 186.871 17.1474C184.901 16.0269 183.509 14.8384 183.509 12.9709C183.509 10.4922 185.546 9.10001 188.127 9.10001Z" fill="white"/>
<path d="M3.33392 49.343L7.37459 47.8829C7.88392 47.7131 7.95183 47.4075 7.95183 46.8982L7.98579 45.3363C8.01974 44.0799 7.61228 42.3821 5.50705 42.3821C4.5563 42.3821 3.40183 42.8575 3.33392 43.9101C3.29996 44.4534 3.266 44.8609 2.99436 45.0646C2.48503 45.4721 1.56824 45.7098 1.05891 45.7098C0.753313 45.7098 0.583535 45.54 0.583535 45.2344C0.583535 43.4687 4.42048 41.0579 6.89921 41.0579C9.34399 41.0579 10.5324 42.484 10.4306 45.0307L10.2268 50.9389C10.1589 52.5008 10.4645 53.893 11.7888 53.893C12.1283 53.893 12.4339 53.7911 12.6377 53.6892C12.8074 53.5874 12.9772 53.4516 13.0791 53.4516C13.2149 53.4516 13.3168 53.6553 13.3168 53.893C13.3168 54.0628 12.1283 55.387 10.4645 55.387C9.64959 55.387 8.83467 55.0814 8.25743 54.3344C8.1216 54.1307 7.91787 53.859 7.71414 53.859C7.47645 53.859 7.06899 54.1646 6.38989 54.5381C5.64287 54.9456 4.89585 55.387 3.94511 55.387C2.96041 55.387 2.14548 55.1154 1.56824 54.606C0.923089 54.0288 0.515625 53.1799 0.515625 52.2292C0.515625 50.9049 1.16078 50.1239 3.33392 49.343ZM3.13018 51.8217C3.13018 52.3989 3.53764 53.859 5.26936 53.859C5.94847 53.859 7.00108 53.3497 7.34064 53.0101C7.7481 52.6027 7.7481 52.1273 7.78205 51.4142L7.84996 49.4109C7.84996 49.0374 7.71414 48.9695 7.51041 48.9695C7.30668 48.9695 6.72944 49.1053 6.11825 49.309C4.11489 49.9881 3.13018 50.4975 3.13018 51.8217Z" fill="white"/>
<path d="M15.3841 51.1086V45.1665C15.3841 43.8422 15.3841 43.6724 14.4673 43.0612L14.1617 42.8575C14.0259 42.7217 14.0259 42.3482 14.1957 42.2463C14.9767 41.9747 16.9121 41.0918 17.5912 40.5825C17.727 40.5825 17.8968 40.6504 17.9647 40.8202C17.8968 41.6012 17.8968 42.1105 17.8968 42.4161C17.8968 42.6198 18.0326 42.7896 18.2703 42.7896C19.6964 41.9068 21.2923 41.0579 23.0241 41.0579C25.8423 41.0579 26.9968 42.9933 26.9968 45.2683V51.1086C26.9968 53.5534 27.0647 53.893 28.2871 54.0628L29.0341 54.1646C29.2718 54.3344 29.2039 54.9116 28.9662 55.0135C27.9476 54.9456 26.9629 54.9116 25.7744 54.9116C24.552 54.9116 23.5334 54.9456 22.6166 55.0135C22.3789 54.9116 22.311 54.3344 22.5487 54.1646L23.1938 54.0628C24.4502 53.859 24.4841 53.5534 24.4841 51.1086V46.0493C24.4841 44.1139 23.6013 42.6877 21.2923 42.6877C20.002 42.6877 18.8815 43.231 18.4061 43.8762C17.9647 44.4534 17.8968 44.9288 17.8968 45.9135V51.1086C17.8968 53.5534 17.9647 53.859 19.1871 54.0628L19.7983 54.1646C20.036 54.3344 19.9681 54.9116 19.7304 55.0135C18.8136 54.9456 17.8289 54.9116 16.6405 54.9116C15.4181 54.9116 14.3994 54.9456 13.4487 55.0135C13.211 54.9116 13.1431 54.3344 13.3808 54.1646L14.0938 54.0628C15.3502 53.893 15.3841 53.5534 15.3841 51.1086Z" fill="white"/>
<path d="M43.2946 35.0478V49.9542C43.2946 52.6366 43.3286 53.893 44.2793 53.893C44.6528 53.893 45.2301 53.7232 45.7394 53.5534C45.9771 53.6213 46.011 54.4702 45.7055 54.64C44.2793 54.8437 42.1741 55.3531 41.2234 55.7266C41.0196 55.7266 40.8498 55.6247 40.8498 55.4549V54.8777C40.8498 54.3684 40.8499 53.9609 40.7819 53.8251H40.6461C39.1521 54.8437 37.9976 55.387 36.3678 55.387C32.5987 55.387 30.086 52.4329 30.086 48.8676C30.086 44.1139 33.6853 41.0579 38.3032 41.0579C39.4577 41.0579 40.2047 41.2277 40.5782 41.3635C40.748 41.3635 40.7819 41.1598 40.7819 40.8881V35.7609C40.7819 33.7575 40.748 33.5538 39.7293 32.9426L39.3898 32.7389C39.22 32.637 39.22 32.1616 39.3898 32.0597C40.2387 31.7881 41.8346 31.2788 43.0569 30.6336C43.1928 30.6336 43.3286 30.7015 43.3965 30.8374C43.3625 31.856 43.2946 33.5538 43.2946 35.0478ZM40.7819 51.5501V44.8609C40.7819 44.1818 40.6461 43.8762 40.4084 43.5366C39.8991 42.8236 38.8804 42.1105 37.5562 42.1105C34.4663 42.1105 32.8704 44.793 32.8704 47.7471C32.8704 50.837 34.6021 53.7572 37.9297 53.7572C38.8465 53.7572 40.001 53.3497 40.5443 52.8064C40.748 52.6027 40.7819 52.0933 40.7819 51.5501Z" fill="white"/>
<path d="M63.6353 34.7083V49.8183C63.6353 53.3836 63.7032 53.893 65.6726 54.0628L66.7592 54.1646C66.9629 54.3004 66.895 54.9116 66.6913 55.0135C64.7558 54.9456 63.6014 54.9116 62.2431 54.9116C60.8849 54.9116 59.6965 54.9456 57.5234 55.0135C57.3196 54.9116 57.2517 54.3344 57.5234 54.1646L58.7458 54.0628C60.6812 53.893 60.851 53.3836 60.851 49.8183V34.6403C60.851 33.5877 60.851 33.5538 59.8323 33.5538H57.9648C56.5047 33.5538 54.6372 33.6217 53.7883 34.4027C52.9734 35.1497 52.6338 35.8967 52.2603 36.7456C51.9887 36.9493 51.5133 36.7795 51.3775 36.5079C51.9207 34.9799 52.4301 32.8068 52.6678 31.4486C52.7696 31.3806 53.211 31.3467 53.3129 31.4486C53.5166 32.5351 54.6372 32.5012 56.1991 32.5012H69.951C71.7846 32.5012 72.0902 32.4333 72.5995 31.5504C72.7693 31.4825 73.1428 31.5165 73.2107 31.6523C72.8372 33.0444 72.5995 35.7948 72.7014 36.8135C72.5655 37.0851 71.9883 37.0851 71.8185 36.8814C71.7167 36.0325 71.479 34.7762 70.9697 34.4027C70.1887 33.8254 68.8984 33.5538 67.0308 33.5538H64.62C63.6014 33.5538 63.6353 33.5877 63.6353 34.7083Z" fill="white"/>
<path d="M71.4743 51.1086V45.1665C71.4743 43.8422 71.4743 43.6724 70.5575 43.0612L70.2519 42.8575C70.1161 42.7217 70.1161 42.3482 70.2858 42.2463C71.0668 41.9747 72.8664 41.0918 73.7153 40.5825C73.8851 40.6165 73.987 40.6844 73.987 40.8202V42.7896C73.987 42.9594 74.0209 43.0612 74.0888 43.0952C75.2773 42.1105 76.5676 41.0579 77.8239 41.0579C78.6728 41.0579 79.3519 41.6012 79.3519 42.4161C79.3519 43.5366 78.4351 43.978 77.8918 43.978C77.5523 43.978 77.3825 43.8762 77.1448 43.7404C76.6355 43.4008 76.1261 43.1971 75.6508 43.1971C75.1075 43.1971 74.7 43.5027 74.4284 43.8762C74.0888 44.3516 73.987 45.3363 73.987 46.4907V51.1086C73.987 53.5534 74.0549 53.9609 75.3452 54.0628L76.5676 54.1646C76.8052 54.3344 76.7373 54.9116 76.4996 55.0135C74.9038 54.9456 73.9191 54.9116 72.7306 54.9116C71.5082 54.9116 70.4896 54.9456 69.6067 55.0135C69.369 54.9116 69.3011 54.3344 69.5388 54.1646L70.184 54.0628C71.4403 53.859 71.4743 53.5534 71.4743 51.1086Z" fill="white"/>
<path d="M82.4289 49.343L86.4696 47.8829C86.9789 47.7131 87.0468 47.4075 87.0468 46.8982L87.0808 45.3363C87.1147 44.0799 86.7073 42.3821 84.602 42.3821C83.6513 42.3821 82.4968 42.8575 82.4289 43.9101C82.3949 44.4534 82.361 44.8609 82.0893 45.0646C81.58 45.4721 80.6632 45.7098 80.1539 45.7098C79.8483 45.7098 79.6785 45.54 79.6785 45.2344C79.6785 43.4687 83.5155 41.0579 85.9942 41.0579C88.439 41.0579 89.6274 42.484 89.5255 45.0307L89.3218 50.9389C89.2539 52.5008 89.5595 53.893 90.8838 53.893C91.2233 53.893 91.5289 53.7911 91.7326 53.6892C91.9024 53.5874 92.0722 53.4516 92.1741 53.4516C92.3099 53.4516 92.4117 53.6553 92.4117 53.893C92.4117 54.0628 91.2233 55.387 89.5595 55.387C88.7446 55.387 87.9296 55.0814 87.3524 54.3344C87.2166 54.1307 87.0129 53.859 86.8091 53.859C86.5714 53.859 86.164 54.1646 85.4849 54.5381C84.7379 54.9456 83.9908 55.387 83.0401 55.387C82.0554 55.387 81.2405 55.1154 80.6632 54.606C80.0181 54.0288 79.6106 53.1799 79.6106 52.2292C79.6106 50.9049 80.2558 50.1239 82.4289 49.343ZM82.2252 51.8217C82.2252 52.3989 82.6326 53.859 84.3643 53.859C85.0434 53.859 86.0961 53.3497 86.4356 53.0101C86.8431 52.6027 86.8431 52.1273 86.877 51.4142L86.9449 49.4109C86.9449 49.0374 86.8091 48.9695 86.6054 48.9695C86.4017 48.9695 85.8244 49.1053 85.2132 49.309C83.2099 49.9881 82.2252 50.4975 82.2252 51.8217Z" fill="white"/>
<path d="M94.4791 51.1086V45.1665C94.4791 43.8422 94.4791 43.6724 93.5623 43.0612L93.2567 42.8575C93.1209 42.7217 93.1209 42.3482 93.2907 42.2463C94.0716 41.9747 96.0071 41.0918 96.7881 40.5825C96.9578 40.5825 97.0937 40.6504 97.1276 40.7862C97.0597 41.9747 96.9918 43.6045 96.9918 44.9967V51.1086C96.9918 53.5534 97.0597 53.893 98.2821 54.0628L98.9952 54.1646C99.2328 54.3344 99.1649 54.9116 98.9273 55.0135C97.9086 54.9456 96.9239 54.9116 95.7355 54.9116C94.5131 54.9116 93.4944 54.9456 92.5437 55.0135C92.306 54.9116 92.2381 54.3344 92.4758 54.1646L93.1888 54.0628C94.4452 53.893 94.4791 53.5534 94.4791 51.1086ZM95.5996 33.7236C96.6183 33.7236 97.2974 34.5385 97.2974 35.4892C97.2974 36.7116 96.4485 37.2549 95.4978 37.2549C94.4452 37.2549 93.7661 36.4739 93.7661 35.5571C93.7661 34.4366 94.581 33.7236 95.5996 33.7236Z" fill="white"/>
<path d="M104.374 35.0478V51.1086C104.374 53.5534 104.442 53.893 105.665 54.0628L106.48 54.1646C106.717 54.3344 106.649 54.9116 106.412 55.0135C105.291 54.9456 104.307 54.9116 103.118 54.9116C101.896 54.9116 100.877 54.9456 99.8584 55.0135C99.6208 54.9116 99.5528 54.3344 99.7905 54.1646L100.572 54.0628C101.828 53.893 101.862 53.5534 101.862 51.1086V35.7609C101.862 33.7575 101.828 33.5538 100.809 32.9426L100.47 32.7389C100.3 32.637 100.3 32.1616 100.47 32.0597C101.319 31.7881 102.914 31.2788 104.137 30.6336C104.273 30.6336 104.408 30.7015 104.476 30.8374C104.442 31.856 104.374 33.5538 104.374 35.0478Z" fill="white"/>
<path d="M112.58 41.0579C114.006 41.0579 115.263 41.3974 115.568 41.6691C115.874 42.4161 116.111 43.5027 116.111 44.4195C115.976 44.6571 115.466 44.7251 115.297 44.5213C114.719 43.0273 113.701 42.0426 112.308 42.0426C110.984 42.0426 110.135 42.8915 110.135 44.1139C110.135 45.506 111.561 46.253 112.75 46.9322C114.549 47.9508 116.213 49.1053 116.213 51.5161C116.213 54.0967 113.836 55.387 111.324 55.387C109.728 55.387 108.539 55.0475 107.691 54.3684C107.419 53.7232 107.215 52.0594 107.283 50.9389C107.453 50.7351 107.894 50.7012 108.064 50.9049C108.641 52.7724 109.728 54.4023 111.663 54.4023C112.886 54.4023 113.938 53.6892 113.938 52.2292C113.938 50.6672 112.58 49.8183 111.324 49.1053C109.354 47.9848 107.962 46.7963 107.962 44.9288C107.962 42.4501 109.999 41.0579 112.58 41.0579Z" fill="white"/>
<path d="M125.692 44.2528C125.692 38.1701 130.623 33.239 136.706 33.239H178.442C184.524 33.239 189.456 38.1701 189.456 44.2528C189.456 50.3356 184.524 55.2666 178.442 55.2666H136.706C130.623 55.2666 125.692 50.3356 125.692 44.2528Z" fill="#FCBA19"/>
<path d="M140.344 39.2624H143.448C146.09 39.2624 147.488 39.9056 147.488 41.7931C147.488 42.9256 146.957 43.7785 145.95 43.9463V44.0162C146.943 44.2399 147.74 44.7712 147.74 46.3511C147.74 48.1547 146.314 49.2453 144.077 49.2453H140.344V39.2624ZM142.455 43.2192H143.685C144.916 43.2192 145.321 42.8557 145.321 42.0727C145.321 41.2898 144.804 40.9961 143.573 40.9961H142.455V43.2192ZM143.769 44.897H142.455V47.4976H143.839C145.111 47.4976 145.545 46.9663 145.545 46.1414C145.545 45.4003 145.111 44.897 143.769 44.897Z" fill="#003366"/>
<path d="M150.736 49.2453V39.2624H156.483V40.9961H152.848V43.1912H156.231V44.925H152.848V47.4976H156.483V49.2453H150.736Z" fill="#003366"/>
<path d="M161.292 41.0241H158.58V39.2624H166.116V41.0241H163.404V49.2453H161.292V41.0241Z" fill="#003366"/>
<path d="M168.692 49.2453H166.413L169.936 39.2205H172.523L176.06 49.2453H173.781L173.054 46.8684H169.419L168.692 49.2453ZM170.663 42.7718L169.95 45.0927H172.551L171.824 42.7718C171.67 42.3104 171.39 41.3177 171.236 40.7724C171.208 40.8983 171.166 41.0661 171.11 41.2618C171.096 41.3037 171.096 41.3317 171.083 41.3736V41.3876C171.069 41.4296 171.069 41.4575 171.055 41.4855L171.041 41.5135C171.027 41.5834 170.999 41.6673 170.985 41.7372L170.971 41.7511C170.957 41.7931 170.957 41.8211 170.943 41.849V41.863C170.831 42.2685 170.719 42.618 170.663 42.7718Z" fill="#003366"/>
</svg>
