<svg width="290" height="72" viewBox="0 0 290 72" fill="none" xmlns="http://www.w3.org/2000/svg">
<path d="M99.7583 26.3668V14.1608C99.7583 10.9308 99.6562 10.3528 98.2623 10.1828L97.1743 10.0468C96.9363 9.8768 96.9363 9.3328 97.2083 9.1968C99.1123 9.0268 101.458 8.9248 104.79 8.9248C106.898 8.9248 108.904 9.0948 110.468 9.9448C112.1 10.7948 113.29 12.3248 113.29 14.7048C113.29 17.9348 110.74 19.7028 109.04 20.3828C108.87 20.5868 109.04 20.9268 109.21 21.1988C111.93 25.5848 113.732 28.3048 116.044 30.2428C116.622 30.7528 117.472 31.1268 118.39 31.1948C118.56 31.2628 118.594 31.5348 118.424 31.6708C118.118 31.7728 117.574 31.8408 116.928 31.8408C114.038 31.8408 112.304 30.9908 109.89 27.5568C109.006 26.2988 107.612 23.9528 106.558 22.4228C106.048 21.6748 105.504 21.3348 104.144 21.3348C102.614 21.3348 102.546 21.3688 102.546 22.0828V26.3668C102.546 29.9368 102.614 30.3448 104.586 30.6168L105.3 30.7188C105.504 30.8888 105.436 31.4668 105.232 31.5688C103.702 31.5008 102.546 31.4668 101.186 31.4668C99.7583 31.4668 98.5343 31.5008 96.9363 31.5688C96.7323 31.4668 96.6643 30.9568 96.8683 30.7188L97.7183 30.6168C99.6903 30.3788 99.7583 29.9368 99.7583 26.3668ZM102.546 11.0668V19.0228C102.546 19.6348 102.546 20.0088 102.648 20.1448C102.75 20.2468 103.26 20.3148 104.994 20.3148C106.218 20.3148 107.51 20.1788 108.496 19.4308C109.414 18.7168 110.196 17.5268 110.196 15.2148C110.196 12.5288 108.53 9.9788 104.756 9.9788C102.648 9.9788 102.546 10.1148 102.546 11.0668ZM126.632 22.7628H120.342C119.458 22.7628 119.424 22.8308 119.424 23.6808C119.424 27.1148 121.43 30.0388 125.068 30.0388C126.19 30.0388 127.142 29.6988 128.196 28.3728C128.536 28.2708 128.774 28.4748 128.808 28.7808C127.686 31.0928 125.238 31.9428 123.47 31.9428C121.26 31.9428 119.526 30.9908 118.54 29.6988C117.52 28.3728 117.112 26.7748 117.112 25.2788C117.112 21.0968 119.866 17.5948 123.946 17.5948C126.87 17.5948 128.774 19.6008 128.774 21.6408C128.774 22.1168 128.706 22.3888 128.638 22.5248C128.536 22.7288 128.06 22.7628 126.632 22.7628ZM120.036 21.7428H122.45C124.966 21.7428 125.714 21.6068 125.986 21.4028C126.088 21.3348 126.19 21.1988 126.19 20.7568C126.19 19.8048 125.544 18.6148 123.572 18.6148C121.566 18.6148 119.832 20.4508 119.798 21.5728C119.798 21.6408 119.798 21.7428 120.036 21.7428ZM137.854 17.5948C138.636 17.5948 139.962 17.7648 140.88 18.1728C141.152 18.4108 141.39 18.9548 141.39 19.5328C141.39 20.1448 141.05 20.7908 140.642 20.7908C140.472 20.7908 140.302 20.7228 140.166 20.5528C139.418 19.6348 138.16 18.7508 136.766 18.7508C134.386 18.7508 132.074 20.6208 132.074 24.2248C132.074 26.8768 133.91 30.0388 137.548 30.0388C139.52 30.0388 140.54 29.1548 141.322 27.9988C141.594 27.9308 141.9 28.1688 141.934 28.4748C140.778 30.9908 138.228 31.9428 136.256 31.9428C134.454 31.9428 132.788 31.3648 131.598 30.2088C130.408 29.0528 129.626 27.3868 129.626 25.1768C129.626 21.5048 132.21 17.5948 137.854 17.5948ZM144.348 27.6588V21.7088C144.348 20.3828 144.348 20.2128 143.43 19.6008L143.124 19.3968C142.988 19.2608 142.988 18.8868 143.158 18.7848C143.94 18.5128 145.742 17.6288 146.592 17.1188C146.762 17.1528 146.864 17.2208 146.864 17.3568V19.3288C146.864 19.4988 146.898 19.6008 146.966 19.6348C148.156 18.6488 149.448 17.5948 150.706 17.5948C151.556 17.5948 152.236 18.1388 152.236 18.9548C152.236 20.0768 151.318 20.5188 150.774 20.5188C150.434 20.5188 150.264 20.4168 150.026 20.2808C149.516 19.9408 149.006 19.7368 148.53 19.7368C147.986 19.7368 147.578 20.0428 147.306 20.4168C146.966 20.8928 146.864 21.8788 146.864 23.0348V27.6588C146.864 30.1068 146.932 30.5148 148.224 30.6168L149.448 30.7188C149.686 30.8888 149.618 31.4668 149.38 31.5688C147.782 31.5008 146.796 31.4668 145.606 31.4668C144.382 31.4668 143.362 31.5008 142.478 31.5688C142.24 31.4668 142.172 30.8888 142.41 30.7188L143.056 30.6168C144.314 30.4128 144.348 30.1068 144.348 27.6588ZM161.683 22.7628H155.393C154.509 22.7628 154.475 22.8308 154.475 23.6808C154.475 27.1148 156.481 30.0388 160.119 30.0388C161.241 30.0388 162.193 29.6988 163.247 28.3728C163.587 28.2708 163.825 28.4748 163.859 28.7808C162.737 31.0928 160.289 31.9428 158.521 31.9428C156.311 31.9428 154.577 30.9908 153.591 29.6988C152.571 28.3728 152.163 26.7748 152.163 25.2788C152.163 21.0968 154.917 17.5948 158.997 17.5948C161.921 17.5948 163.825 19.6008 163.825 21.6408C163.825 22.1168 163.757 22.3888 163.689 22.5248C163.587 22.7288 163.111 22.7628 161.683 22.7628ZM155.087 21.7428H157.501C160.017 21.7428 160.765 21.6068 161.037 21.4028C161.139 21.3348 161.241 21.1988 161.241 20.7568C161.241 19.8048 160.595 18.6148 158.623 18.6148C156.617 18.6148 154.883 20.4508 154.849 21.5728C154.849 21.6408 154.849 21.7428 155.087 21.7428ZM167.465 25.8908L171.511 24.4288C172.021 24.2588 172.089 23.9528 172.089 23.4428L172.123 21.8788C172.157 20.6208 171.749 18.9208 169.641 18.9208C168.689 18.9208 167.533 19.3968 167.465 20.4508C167.431 20.9948 167.397 21.4028 167.125 21.6068C166.615 22.0148 165.697 22.2528 165.187 22.2528C164.881 22.2528 164.711 22.0828 164.711 21.7768C164.711 20.0088 168.553 17.5948 171.035 17.5948C173.483 17.5948 174.673 19.0228 174.571 21.5728L174.367 27.4888C174.299 29.0528 174.605 30.4468 175.931 30.4468C176.271 30.4468 176.577 30.3448 176.781 30.2428C176.951 30.1408 177.121 30.0048 177.223 30.0048C177.359 30.0048 177.461 30.2088 177.461 30.4468C177.461 30.6168 176.271 31.9428 174.605 31.9428C173.789 31.9428 172.973 31.6368 172.395 30.8888C172.259 30.6848 172.055 30.4128 171.851 30.4128C171.613 30.4128 171.205 30.7188 170.525 31.0928C169.777 31.5008 169.029 31.9428 168.077 31.9428C167.091 31.9428 166.275 31.6708 165.697 31.1608C165.051 30.5828 164.643 29.7328 164.643 28.7808C164.643 27.4548 165.289 26.6728 167.465 25.8908ZM167.261 28.3728C167.261 28.9508 167.669 30.4128 169.403 30.4128C170.083 30.4128 171.137 29.9028 171.477 29.5628C171.885 29.1548 171.885 28.6788 171.919 27.9648L171.987 25.9588C171.987 25.5848 171.851 25.5168 171.647 25.5168C171.443 25.5168 170.865 25.6528 170.253 25.8568C168.247 26.5368 167.261 27.0468 167.261 28.3728ZM186.161 19.4988H182.319C181.741 19.4988 181.707 19.6008 181.707 20.3148V26.6728C181.707 28.6448 181.945 30.4468 184.189 30.4468C184.529 30.4468 184.835 30.3788 185.107 30.2768C185.413 30.1748 185.855 29.8008 185.957 29.8008C186.229 29.8008 186.365 30.1748 186.297 30.3788C185.685 31.0928 184.461 31.9428 182.727 31.9428C179.803 31.9428 179.191 30.3108 179.191 28.2708V20.4848C179.191 19.5668 179.157 19.4988 178.477 19.4988H177.525C177.321 19.3628 177.287 18.9888 177.423 18.7848C178.409 18.4788 179.259 18.0368 179.599 17.7308C180.041 17.3228 180.687 16.4048 181.027 15.7248C181.197 15.6568 181.605 15.6568 181.741 15.8948V17.4248C181.741 18.0368 181.775 18.0708 182.353 18.0708H186.127C186.535 18.3768 186.467 19.2948 186.161 19.4988ZM188.957 27.6588V21.7088C188.957 20.3828 188.957 20.2128 188.039 19.6008L187.733 19.3968C187.597 19.2608 187.597 18.8868 187.767 18.7848C188.549 18.5128 190.487 17.6288 191.269 17.1188C191.439 17.1188 191.575 17.1868 191.609 17.3228C191.541 18.5128 191.473 20.1448 191.473 21.5388V27.6588C191.473 30.1068 191.541 30.4468 192.765 30.6168L193.479 30.7188C193.717 30.8888 193.649 31.4668 193.411 31.5688C192.391 31.5008 191.405 31.4668 190.215 31.4668C188.991 31.4668 187.971 31.5008 187.019 31.5688C186.781 31.4668 186.713 30.8888 186.951 30.7188L187.665 30.6168C188.923 30.4468 188.957 30.1068 188.957 27.6588ZM190.079 10.2508C191.099 10.2508 191.779 11.0668 191.779 12.0188C191.779 13.2428 190.929 13.7868 189.977 13.7868C188.923 13.7868 188.243 13.0048 188.243 12.0868C188.243 10.9648 189.059 10.2508 190.079 10.2508ZM201.789 17.5948C205.597 17.5948 208.691 20.4508 208.691 24.6328C208.691 28.8828 205.767 31.9428 201.517 31.9428C197.607 31.9428 194.547 29.1888 194.547 24.9388C194.547 20.6548 197.777 17.5948 201.789 17.5948ZM205.767 25.1768C205.767 22.2868 204.611 18.6148 201.381 18.6148C199.137 18.6148 197.471 20.7568 197.471 24.4968C197.471 27.5908 198.865 30.9228 201.857 30.9228C204.849 30.9228 205.767 27.7948 205.767 25.1768ZM212.225 27.6588V21.7088C212.225 20.3828 212.225 20.2128 211.307 19.6008L211.001 19.3968C210.865 19.2608 210.865 18.8868 211.035 18.7848C211.817 18.5128 213.755 17.6288 214.435 17.1188C214.571 17.1188 214.741 17.1868 214.809 17.3568C214.741 18.1388 214.741 18.6488 214.741 18.9548C214.741 19.1588 214.877 19.3288 215.115 19.3288C216.543 18.4448 218.141 17.5948 219.875 17.5948C222.697 17.5948 223.853 19.5328 223.853 21.8108V27.6588C223.853 30.1068 223.921 30.4468 225.145 30.6168L225.893 30.7188C226.131 30.8888 226.063 31.4668 225.825 31.5688C224.805 31.5008 223.819 31.4668 222.629 31.4668C221.405 31.4668 220.385 31.5008 219.467 31.5688C219.229 31.4668 219.161 30.8888 219.399 30.7188L220.045 30.6168C221.303 30.4128 221.337 30.1068 221.337 27.6588V22.5928C221.337 20.6548 220.453 19.2268 218.141 19.2268C216.849 19.2268 215.727 19.7708 215.251 20.4168C214.809 20.9948 214.741 21.4708 214.741 22.4568V27.6588C214.741 30.1068 214.809 30.4128 216.033 30.6168L216.645 30.7188C216.883 30.8888 216.815 31.4668 216.577 31.5688C215.659 31.5008 214.673 31.4668 213.483 31.4668C212.259 31.4668 211.239 31.5008 210.287 31.5688C210.049 31.4668 209.981 30.8888 210.219 30.7188L210.933 30.6168C212.191 30.4468 212.225 30.1068 212.225 27.6588ZM248.114 25.7208C248.114 29.4608 245.292 32.0108 240.872 32.0108C238.016 32.0108 236.214 31.1268 235.568 30.7528C235.16 30.0048 234.718 27.5908 234.65 25.9928C234.82 25.7548 235.33 25.6868 235.466 25.8908C235.976 27.6248 237.37 30.9568 241.314 30.9568C244.17 30.9568 245.564 29.0868 245.564 27.0468C245.564 25.5508 245.258 23.8848 242.776 22.2868L239.546 20.1788C237.846 19.0568 235.874 17.1188 235.874 14.3308C235.874 11.1008 238.39 8.48279 242.81 8.48279C243.864 8.48279 245.088 8.6868 245.972 8.9248C246.414 9.0608 246.89 9.1288 247.162 9.1288C247.468 9.9448 247.774 11.8488 247.774 13.2768C247.638 13.4808 247.094 13.5828 246.924 13.3788C246.482 11.7468 245.564 9.5368 242.3 9.5368C238.968 9.5368 238.254 11.7468 238.254 13.3108C238.254 15.2828 239.886 16.7108 241.144 17.4928L243.864 19.1928C246.006 20.5188 248.114 22.4908 248.114 25.7208ZM251.824 27.6588V21.7088C251.824 20.3828 251.824 20.2128 250.906 19.6008L250.6 19.3968C250.464 19.2608 250.464 18.8868 250.634 18.7848C251.416 18.5128 253.354 17.6288 254.136 17.1188C254.306 17.1188 254.442 17.1868 254.476 17.3228C254.408 18.5128 254.34 20.1448 254.34 21.5388V27.6588C254.34 30.1068 254.408 30.4468 255.632 30.6168L256.346 30.7188C256.584 30.8888 256.516 31.4668 256.278 31.5688C255.258 31.5008 254.272 31.4668 253.082 31.4668C251.858 31.4668 250.838 31.5008 249.886 31.5688C249.648 31.4668 249.58 30.8888 249.818 30.7188L250.532 30.6168C251.79 30.4468 251.824 30.1068 251.824 27.6588ZM252.946 10.2508C253.966 10.2508 254.646 11.0668 254.646 12.0188C254.646 13.2428 253.796 13.7868 252.844 13.7868C251.79 13.7868 251.11 13.0048 251.11 12.0868C251.11 10.9648 251.926 10.2508 252.946 10.2508ZM266.187 19.4988H262.345C261.767 19.4988 261.733 19.6008 261.733 20.3148V26.6728C261.733 28.6448 261.971 30.4468 264.215 30.4468C264.555 30.4468 264.861 30.3788 265.133 30.2768C265.439 30.1748 265.881 29.8008 265.983 29.8008C266.255 29.8008 266.391 30.1748 266.323 30.3788C265.711 31.0928 264.487 31.9428 262.753 31.9428C259.829 31.9428 259.217 30.3108 259.217 28.2708V20.4848C259.217 19.5668 259.183 19.4988 258.503 19.4988H257.551C257.347 19.3628 257.313 18.9888 257.449 18.7848C258.435 18.4788 259.285 18.0368 259.625 17.7308C260.067 17.3228 260.713 16.4048 261.053 15.7248C261.223 15.6568 261.631 15.6568 261.767 15.8948V17.4248C261.767 18.0368 261.801 18.0708 262.379 18.0708H266.153C266.561 18.3768 266.493 19.2948 266.187 19.4988ZM276.36 22.7628H270.07C269.186 22.7628 269.152 22.8308 269.152 23.6808C269.152 27.1148 271.158 30.0388 274.796 30.0388C275.918 30.0388 276.87 29.6988 277.924 28.3728C278.264 28.2708 278.502 28.4748 278.536 28.7808C277.414 31.0928 274.966 31.9428 273.198 31.9428C270.988 31.9428 269.254 30.9908 268.268 29.6988C267.248 28.3728 266.84 26.7748 266.84 25.2788C266.84 21.0968 269.594 17.5948 273.674 17.5948C276.598 17.5948 278.502 19.6008 278.502 21.6408C278.502 22.1168 278.434 22.3888 278.366 22.5248C278.264 22.7288 277.788 22.7628 276.36 22.7628ZM269.764 21.7428H272.178C274.694 21.7428 275.442 21.6068 275.714 21.4028C275.816 21.3348 275.918 21.1988 275.918 20.7568C275.918 19.8048 275.272 18.6148 273.3 18.6148C271.294 18.6148 269.56 20.4508 269.526 21.5728C269.526 21.6408 269.526 21.7428 269.764 21.7428ZM284.455 17.5948C285.883 17.5948 287.141 17.9348 287.447 18.2068C287.753 18.9548 287.991 20.0428 287.991 20.9608C287.855 21.1988 287.345 21.2668 287.175 21.0628C286.597 19.5668 285.577 18.5808 284.183 18.5808C282.857 18.5808 282.007 19.4308 282.007 20.6548C282.007 22.0488 283.435 22.7968 284.625 23.4768C286.427 24.4968 288.093 25.6528 288.093 28.0668C288.093 30.6508 285.713 31.9428 283.197 31.9428C281.599 31.9428 280.409 31.6028 279.559 30.9228C279.287 30.2768 279.083 28.6108 279.151 27.4888C279.321 27.2848 279.763 27.2508 279.933 27.4548C280.511 29.3248 281.599 30.9568 283.537 30.9568C284.761 30.9568 285.815 30.2428 285.815 28.7808C285.815 27.2168 284.455 26.3668 283.197 25.6528C281.225 24.5308 279.831 23.3408 279.831 21.4708C279.831 18.9888 281.871 17.5948 284.455 17.5948ZM99.4183 57.8908L103.464 56.4288C103.974 56.2588 104.042 55.9528 104.042 55.4428L104.076 53.8788C104.11 52.6208 103.702 50.9208 101.594 50.9208C100.642 50.9208 99.4863 51.3968 99.4183 52.4508C99.3843 52.9948 99.3503 53.4028 99.0783 53.6068C98.5683 54.0148 97.6502 54.2528 97.1403 54.2528C96.8343 54.2528 96.6643 54.0828 96.6643 53.7768C96.6643 52.0088 100.506 49.5948 102.988 49.5948C105.436 49.5948 106.626 51.0228 106.524 53.5728L106.32 59.4888C106.252 61.0528 106.558 62.4468 107.884 62.4468C108.224 62.4468 108.53 62.3448 108.734 62.2428C108.904 62.1408 109.074 62.0048 109.176 62.0048C109.312 62.0048 109.414 62.2088 109.414 62.4468C109.414 62.6168 108.224 63.9428 106.558 63.9428C105.742 63.9428 104.926 63.6368 104.348 62.8888C104.212 62.6848 104.008 62.4128 103.804 62.4128C103.566 62.4128 103.158 62.7188 102.478 63.0928C101.73 63.5008 100.982 63.9428 100.03 63.9428C99.0443 63.9428 98.2283 63.6708 97.6502 63.1608C97.0043 62.5828 96.5963 61.7328 96.5963 60.7808C96.5963 59.4548 97.2423 58.6728 99.4183 57.8908ZM99.2143 60.3728C99.2143 60.9508 99.6223 62.4128 101.356 62.4128C102.036 62.4128 103.09 61.9028 103.43 61.5628C103.838 61.1548 103.838 60.6788 103.872 59.9648L103.94 57.9588C103.94 57.5848 103.804 57.5168 103.6 57.5168C103.396 57.5168 102.818 57.6528 102.206 57.8568C100.2 58.5368 99.2143 59.0468 99.2143 60.3728ZM111.484 59.6588V53.7088C111.484 52.3828 111.484 52.2128 110.566 51.6008L110.26 51.3968C110.124 51.2608 110.124 50.8868 110.294 50.7848C111.076 50.5128 113.014 49.6288 113.694 49.1188C113.83 49.1188 114 49.1868 114.068 49.3568C114 50.1388 114 50.6488 114 50.9548C114 51.1588 114.136 51.3288 114.374 51.3288C115.802 50.4448 117.4 49.5948 119.134 49.5948C121.956 49.5948 123.112 51.5328 123.112 53.8108V59.6588C123.112 62.1068 123.18 62.4468 124.404 62.6168L125.152 62.7188C125.39 62.8888 125.322 63.4668 125.084 63.5688C124.064 63.5008 123.078 63.4668 121.888 63.4668C120.664 63.4668 119.644 63.5008 118.726 63.5688C118.488 63.4668 118.42 62.8888 118.658 62.7188L119.304 62.6168C120.562 62.4128 120.596 62.1068 120.596 59.6588V54.5928C120.596 52.6548 119.712 51.2268 117.4 51.2268C116.108 51.2268 114.986 51.7708 114.51 52.4168C114.068 52.9948 114 53.4708 114 54.4568V59.6588C114 62.1068 114.068 62.4128 115.292 62.6168L115.904 62.7188C116.142 62.8888 116.074 63.4668 115.836 63.5688C114.918 63.5008 113.932 63.4668 112.742 63.4668C111.518 63.4668 110.498 63.5008 109.546 63.5688C109.308 63.4668 109.24 62.8888 109.478 62.7188L110.192 62.6168C111.45 62.4468 111.484 62.1068 111.484 59.6588ZM139.432 43.5768V58.5028C139.432 61.1888 139.466 62.4468 140.418 62.4468C140.792 62.4468 141.37 62.2768 141.88 62.1068C142.118 62.1748 142.152 63.0248 141.846 63.1948C140.418 63.3988 138.31 63.9088 137.358 64.2828C137.154 64.2828 136.984 64.1808 136.984 64.0108V63.4328C136.984 62.9228 136.984 62.5148 136.916 62.3788H136.78C135.284 63.3988 134.128 63.9428 132.496 63.9428C128.722 63.9428 126.206 60.9848 126.206 57.4148C126.206 52.6548 129.81 49.5948 134.434 49.5948C135.59 49.5948 136.338 49.7648 136.712 49.9008C136.882 49.9008 136.916 49.6968 136.916 49.4248V44.2908C136.916 42.2848 136.882 42.0808 135.862 41.4688L135.522 41.2648C135.352 41.1628 135.352 40.6868 135.522 40.5848C136.372 40.3128 137.97 39.8028 139.194 39.1568C139.33 39.1568 139.466 39.2248 139.534 39.3608C139.5 40.3808 139.432 42.0808 139.432 43.5768ZM136.916 60.1008V53.4028C136.916 52.7228 136.78 52.4168 136.542 52.0768C136.032 51.3628 135.012 50.6488 133.686 50.6488C130.592 50.6488 128.994 53.3348 128.994 56.2928C128.994 59.3868 130.728 62.3108 134.06 62.3108C134.978 62.3108 136.134 61.9028 136.678 61.3588C136.882 61.1548 136.916 60.6448 136.916 60.1008ZM159.799 43.2368V58.3668C159.799 61.9368 159.867 62.4468 161.839 62.6168L162.927 62.7188C163.131 62.8548 163.063 63.4668 162.859 63.5688C160.921 63.5008 159.765 63.4668 158.405 63.4668C157.045 63.4668 155.855 63.5008 153.679 63.5688C153.475 63.4668 153.407 62.8888 153.679 62.7188L154.903 62.6168C156.841 62.4468 157.011 61.9368 157.011 58.3668V43.1688C157.011 42.1148 157.011 42.0808 155.991 42.0808H154.121C152.659 42.0808 150.789 42.1488 149.939 42.9308C149.123 43.6788 148.783 44.4268 148.409 45.2768C148.137 45.4808 147.661 45.3108 147.525 45.0388C148.069 43.5088 148.579 41.3328 148.817 39.9728C148.919 39.9048 149.361 39.8708 149.463 39.9728C149.667 41.0608 150.789 41.0268 152.353 41.0268H166.123C167.959 41.0268 168.265 40.9588 168.775 40.0748C168.945 40.0068 169.319 40.0408 169.387 40.1768C169.013 41.5708 168.775 44.3248 168.877 45.3448C168.741 45.6168 168.163 45.6168 167.993 45.4128C167.891 44.5628 167.653 43.3048 167.143 42.9308C166.361 42.3528 165.069 42.0808 163.199 42.0808H160.785C159.765 42.0808 159.799 42.1148 159.799 43.2368ZM167.648 59.6588V53.7088C167.648 52.3828 167.648 52.2128 166.73 51.6008L166.424 51.3968C166.288 51.2608 166.288 50.8868 166.458 50.7848C167.24 50.5128 169.042 49.6288 169.892 49.1188C170.062 49.1528 170.164 49.2208 170.164 49.3568V51.3288C170.164 51.4988 170.198 51.6008 170.266 51.6348C171.456 50.6488 172.748 49.5948 174.006 49.5948C174.856 49.5948 175.536 50.1388 175.536 50.9548C175.536 52.0768 174.618 52.5188 174.074 52.5188C173.734 52.5188 173.564 52.4168 173.326 52.2808C172.816 51.9408 172.306 51.7368 171.83 51.7368C171.286 51.7368 170.878 52.0428 170.606 52.4168C170.266 52.8928 170.164 53.8788 170.164 55.0348V59.6588C170.164 62.1068 170.232 62.5148 171.524 62.6168L172.748 62.7188C172.986 62.8888 172.918 63.4668 172.68 63.5688C171.082 63.5008 170.096 63.4668 168.906 63.4668C167.682 63.4668 166.662 63.5008 165.778 63.5688C165.54 63.4668 165.472 62.8888 165.71 62.7188L166.356 62.6168C167.614 62.4128 167.648 62.1068 167.648 59.6588ZM178.617 57.8908L182.663 56.4288C183.173 56.2588 183.241 55.9528 183.241 55.4428L183.275 53.8788C183.309 52.6208 182.901 50.9208 180.793 50.9208C179.841 50.9208 178.685 51.3968 178.617 52.4508C178.583 52.9948 178.549 53.4028 178.277 53.6068C177.767 54.0148 176.849 54.2528 176.339 54.2528C176.033 54.2528 175.863 54.0828 175.863 53.7768C175.863 52.0088 179.705 49.5948 182.187 49.5948C184.635 49.5948 185.825 51.0228 185.723 53.5728L185.519 59.4888C185.451 61.0528 185.757 62.4468 187.083 62.4468C187.423 62.4468 187.729 62.3448 187.933 62.2428C188.103 62.1408 188.273 62.0048 188.375 62.0048C188.511 62.0048 188.613 62.2088 188.613 62.4468C188.613 62.6168 187.423 63.9428 185.757 63.9428C184.941 63.9428 184.125 63.6368 183.547 62.8888C183.411 62.6848 183.207 62.4128 183.003 62.4128C182.765 62.4128 182.357 62.7188 181.677 63.0928C180.929 63.5008 180.181 63.9428 179.229 63.9428C178.243 63.9428 177.427 63.6708 176.849 63.1608C176.203 62.5828 175.795 61.7328 175.795 60.7808C175.795 59.4548 176.441 58.6728 178.617 57.8908ZM178.413 60.3728C178.413 60.9508 178.821 62.4128 180.555 62.4128C181.235 62.4128 182.289 61.9028 182.629 61.5628C183.037 61.1548 183.037 60.6788 183.071 59.9648L183.139 57.9588C183.139 57.5848 183.003 57.5168 182.799 57.5168C182.595 57.5168 182.017 57.6528 181.405 57.8568C179.399 58.5368 178.413 59.0468 178.413 60.3728ZM190.684 59.6588V53.7088C190.684 52.3828 190.684 52.2128 189.766 51.6008L189.46 51.3968C189.324 51.2608 189.324 50.8868 189.494 50.7848C190.276 50.5128 192.214 49.6288 192.996 49.1188C193.166 49.1188 193.302 49.1868 193.336 49.3228C193.268 50.5128 193.2 52.1448 193.2 53.5388V59.6588C193.2 62.1068 193.268 62.4468 194.492 62.6168L195.206 62.7188C195.444 62.8888 195.376 63.4668 195.138 63.5688C194.118 63.5008 193.132 63.4668 191.942 63.4668C190.718 63.4668 189.698 63.5008 188.746 63.5688C188.508 63.4668 188.44 62.8888 188.678 62.7188L189.392 62.6168C190.65 62.4468 190.684 62.1068 190.684 59.6588ZM191.806 42.2508C192.826 42.2508 193.506 43.0668 193.506 44.0188C193.506 45.2428 192.656 45.7868 191.704 45.7868C190.65 45.7868 189.97 45.0048 189.97 44.0868C189.97 42.9648 190.786 42.2508 191.806 42.2508ZM200.592 43.5768V59.6588C200.592 62.1068 200.66 62.4468 201.884 62.6168L202.7 62.7188C202.938 62.8888 202.87 63.4668 202.632 63.5688C201.51 63.5008 200.524 63.4668 199.334 63.4668C198.11 63.4668 197.09 63.5008 196.07 63.5688C195.832 63.4668 195.764 62.8888 196.002 62.7188L196.784 62.6168C198.042 62.4468 198.076 62.1068 198.076 59.6588V44.2908C198.076 42.2848 198.042 42.0808 197.022 41.4688L196.682 41.2648C196.512 41.1628 196.512 40.6868 196.682 40.5848C197.532 40.3128 199.13 39.8028 200.354 39.1568C200.49 39.1568 200.626 39.2248 200.694 39.3608C200.66 40.3808 200.592 42.0808 200.592 43.5768ZM208.808 49.5948C210.236 49.5948 211.494 49.9348 211.8 50.2068C212.106 50.9548 212.344 52.0428 212.344 52.9608C212.208 53.1988 211.698 53.2668 211.528 53.0628C210.95 51.5668 209.93 50.5808 208.536 50.5808C207.21 50.5808 206.36 51.4308 206.36 52.6548C206.36 54.0488 207.788 54.7968 208.978 55.4768C210.78 56.4968 212.446 57.6528 212.446 60.0668C212.446 62.6508 210.066 63.9428 207.55 63.9428C205.952 63.9428 204.762 63.6028 203.912 62.9228C203.64 62.2768 203.436 60.6108 203.504 59.4888C203.674 59.2848 204.116 59.2508 204.286 59.4548C204.864 61.3248 205.952 62.9568 207.89 62.9568C209.114 62.9568 210.168 62.2428 210.168 60.7808C210.168 59.2168 208.808 58.3668 207.55 57.6528C205.578 56.5308 204.184 55.3408 204.184 53.4708C204.184 50.9888 206.224 49.5948 208.808 49.5948Z" fill="white"/>
<path d="M86.5675 0.0478516H85.8984V63.4758H86.5675V0.0478516Z" fill="#FDB913"/>
<path d="M70.4918 59.7571H68.7475C68.6758 59.7571 68.1979 59.8047 68.1979 59.6617C68.1979 59.6141 68.2218 59.5425 68.2457 59.4949L69.2971 56.9206C69.321 56.8491 69.4405 56.4915 69.5599 56.4915C69.6555 56.4915 69.775 56.8491 69.7989 56.9206L70.8263 59.328C70.8263 59.3519 70.9219 59.5902 70.9219 59.6379C70.9219 59.8047 70.5635 59.7571 70.4918 59.7571ZM74.3866 63.0465L74.3388 62.9988C74.2671 62.9988 74.1954 62.9749 74.1477 62.9749C73.5742 62.8558 73.3352 62.1407 73.1202 61.664L70.1573 54.6323C70.1334 54.537 70.0617 54.3701 69.9422 54.3701C69.775 54.3701 69.7272 54.5608 69.7033 54.68L66.836 61.6878C66.7404 61.95 66.4775 62.5936 66.2864 62.7843C66.143 62.9273 65.9519 62.9511 65.7368 62.9749C65.7368 62.9749 65.5696 62.9988 65.4979 62.9988L65.1395 63.0465C65.0439 63.118 65.0917 63.3325 65.1634 63.3802C65.3545 63.3802 65.7129 63.3563 65.7129 63.3563C66.0952 63.3563 66.5014 63.3086 66.8837 63.3086C67.2183 63.3086 67.5289 63.3325 67.8634 63.3563C67.8634 63.3563 68.2218 63.3802 68.413 63.3802C68.5086 63.3325 68.5325 63.118 68.4369 63.0465L68.0546 62.9988C67.9829 62.9988 67.8634 62.9749 67.8634 62.9749C67.5289 62.9273 67.0988 62.8796 67.0988 62.4982C67.0988 62.236 67.2183 61.95 67.3139 61.7355L67.7439 60.6867C67.959 60.1861 67.8873 60.1384 68.4608 60.1384H70.4679C71.1847 60.1384 71.0653 60.1384 71.3759 60.8535L71.8538 61.9262C71.9255 62.1168 72.0688 62.4267 72.0688 62.6174C72.0688 62.9749 71.6865 62.9988 71.3281 63.0226C71.3281 63.0226 71.2086 63.0226 71.1131 63.0465L70.7546 63.0703C70.6591 63.1418 70.7069 63.3563 70.7785 63.404C70.9697 63.404 71.3281 63.3802 71.3281 63.3802C71.7582 63.3563 72.1644 63.3325 72.5706 63.3325C73.0963 63.3325 73.5981 63.3563 74.1238 63.3802C74.291 63.3802 74.1477 63.3802 74.3388 63.404C74.4344 63.3325 74.4583 63.118 74.3866 63.0465Z" fill="white"/>
<path d="M61.8112 56.5864C61.8112 55.1801 61.7873 54.9417 60.9271 54.8702L60.5687 54.8464C60.4731 54.7987 60.5209 54.5604 60.5926 54.5127C61.3094 54.5365 61.8112 54.5604 62.4085 54.5604C62.982 54.5604 63.4838 54.5365 64.2006 54.5127C64.2962 54.5604 64.3201 54.7987 64.2245 54.8464L63.8661 54.8702C63.0059 54.9417 62.982 55.1563 62.982 56.5864V61.3298C62.982 62.7362 63.0059 62.9269 63.8661 63.0222L64.2245 63.0699C64.3201 63.1175 64.2723 63.3559 64.2006 63.4036C63.4838 63.3797 62.982 63.3559 62.4085 63.3559C61.8112 63.3559 61.3094 63.3797 60.5926 63.4036C60.497 63.3559 60.4731 63.1414 60.5687 63.0699L60.9271 63.0222C61.7873 62.9269 61.8112 62.7362 61.8112 61.3298V56.5864Z" fill="white"/>
<path d="M54.3339 61.1159C54.3339 61.5926 54.3578 62.2839 54.6684 62.5938C54.9551 62.9036 55.433 62.9751 55.9109 62.9751C57.2968 62.9751 58.372 62.4269 58.372 61.0921C58.372 60.0195 57.7508 58.78 55.2658 58.78C54.4295 58.78 54.3578 58.8515 54.3578 59.1375V61.1159H54.3339ZM54.3339 57.9934C54.3339 58.3748 54.3578 58.3986 55.1463 58.3748C56.7472 58.3271 57.6074 57.9219 57.6074 56.6586C57.6074 55.3476 56.4605 54.847 55.2658 54.847C54.9312 54.847 54.6923 54.8709 54.5489 54.9185C54.3817 54.9662 54.3339 55.0377 54.3339 55.2761V57.9934ZM53.0675 56.2057C53.0675 55.2046 52.9958 54.9662 52.3029 54.8947L51.8011 54.847C51.7533 54.7993 51.7055 54.5371 51.825 54.5133C52.6613 54.4418 53.7365 54.418 55.1941 54.418C56.1738 54.418 57.1295 54.4895 57.8225 54.7993C58.4915 55.0854 59.0172 55.6098 59.0172 56.4917C59.0172 57.469 58.3481 57.9695 57.4163 58.3271C57.4163 58.4701 57.5357 58.4939 57.703 58.5178C58.5393 58.6608 59.8057 59.3282 59.8057 60.7584C59.8057 62.3077 58.4676 63.3804 55.6481 63.3804C55.1941 63.3804 54.4295 63.3327 53.7604 63.3327C53.0675 63.3327 52.5418 63.3565 51.9683 63.3804C51.8728 63.3327 51.8489 63.1182 51.9445 63.0466L52.2312 62.999C53.0675 62.8798 53.0914 62.7368 53.0914 61.3066V56.2057H53.0675Z" fill="white"/>
<path d="M50.2728 63.0222C50.2011 63.0222 50.0577 62.9984 50.0577 62.9984C49.9144 62.9745 49.771 62.9507 49.6515 62.8553C49.4604 62.6646 49.4843 62.0926 49.4843 61.8542V56.0144C49.4843 55.7522 49.4126 55.2039 49.6037 55.0133C49.6993 54.9179 49.8905 54.8941 50.0577 54.8941C50.1533 54.8941 50.1533 54.8941 50.2489 54.8702L50.6312 54.8464C50.7268 54.7987 50.679 54.5604 50.6073 54.5127C50.4162 54.5127 50.225 54.5127 50.0577 54.5127H48.4807C48.3134 54.5127 48.1462 54.5127 48.0506 54.7034L44.8488 61.3775L42.0053 54.9417C41.9098 54.7272 41.8859 54.5365 41.5991 54.5365H39.9504C39.7832 54.5365 39.592 54.5365 39.4008 54.5365C39.3053 54.5842 39.2814 54.8226 39.377 54.8702L39.7593 54.8941C39.8309 54.8941 39.9743 54.9179 39.9743 54.9179C40.5956 54.9656 40.6195 55.0848 40.5717 55.7522L40.0938 62.0211C40.046 62.6408 40.0221 62.9745 39.3531 63.046C39.3531 63.046 39.2097 63.0699 39.138 63.0699L38.7796 63.1175C38.684 63.189 38.7079 63.4036 38.8035 63.4512C38.9946 63.4512 39.3531 63.4274 39.3531 63.4274C39.6876 63.4036 40.0221 63.3797 40.3805 63.3797C40.7389 63.3797 41.1212 63.4036 41.4797 63.4274C41.6469 63.4274 41.8381 63.4274 42.0292 63.4512C42.1248 63.4036 42.1487 63.189 42.0531 63.1175L41.6708 63.0699C41.5752 63.0699 41.4558 63.046 41.4558 63.046C40.5 62.9745 40.5239 62.3071 40.5717 61.4967L41.0257 55.6807H41.1451L44.2275 62.8553C44.2514 62.9507 44.2992 63.1175 44.4665 63.1175C44.6098 63.1175 44.6576 62.9507 44.7054 62.8553L48.1701 55.49H48.2896V61.9019C48.2896 62.1641 48.3134 62.6885 48.0506 62.8792C47.9072 62.9745 47.4532 63.046 47.4532 63.046C47.3816 63.046 47.3338 63.0699 47.2621 63.0699L46.8798 63.1175C46.7842 63.189 46.832 63.4036 46.9037 63.4512C47.0948 63.4512 47.4532 63.4274 47.4532 63.4274C47.955 63.4036 48.4568 63.3797 48.9825 63.3797C49.3409 63.3797 50.0577 63.4036 50.0577 63.4036C50.225 63.4036 50.4162 63.4274 50.6312 63.4274C50.7268 63.3797 50.7507 63.1652 50.6551 63.0937L50.2728 63.0222Z" fill="white"/>
<path d="M36.6064 57.874C36.6064 57.0397 36.5825 55.5142 36.3435 55.109C36.248 54.9421 35.9851 54.8468 35.6267 54.823L35.2683 54.7991C35.1727 54.7038 35.2205 54.5369 35.2922 54.4893C35.8418 54.5131 36.3435 54.5369 36.917 54.5369C37.5144 54.5369 37.8967 54.5131 38.3985 54.4893C38.5179 54.5608 38.494 54.7276 38.4224 54.7991L38.0878 54.823C37.7294 54.8468 37.4666 54.966 37.371 55.1328C37.1798 55.5619 37.1798 57.1112 37.1798 57.8501V59.3518C37.1798 60.5198 36.9887 61.7354 36.2002 62.5459C35.5789 63.1656 34.5515 63.5232 33.5001 63.5232C32.5204 63.5232 31.5408 63.3563 30.8478 62.7842C30.1071 62.1883 29.7487 61.2349 29.7487 59.6379V56.4915C29.7487 55.109 29.7248 54.8706 28.8885 54.823L28.5301 54.7991C28.4345 54.7515 28.4823 54.5131 28.554 54.4893C29.2708 54.5131 29.7487 54.5369 30.2983 54.5369C30.8717 54.5369 31.3496 54.5131 32.0426 54.4893C32.1381 54.5369 32.162 54.7515 32.0665 54.7991L31.7319 54.823C30.9195 54.8945 30.8717 55.109 30.8717 56.4915V59.3757C30.8717 61.5209 31.5886 62.9272 33.7391 62.9272C35.794 62.9272 36.5825 61.4017 36.5825 59.3757V57.874H36.6064Z" fill="white"/>
<path d="M22.4375 56.5632C22.4375 55.1568 22.4136 54.9423 21.4818 54.8947L21.1233 54.8708C21.0278 54.8231 21.0756 54.5848 21.1472 54.5371C21.9596 54.5609 22.4614 54.5848 23.0588 54.5848C23.6323 54.5848 24.134 54.5609 24.8748 54.5371C24.9703 54.5848 24.9942 54.8231 24.8987 54.8708L24.5402 54.8947C23.68 54.9662 23.6561 55.1807 23.6561 56.5632V61.2112C23.6561 62.0455 23.7039 62.403 23.9668 62.6414C24.134 62.7844 24.3969 62.9513 25.5677 62.9513C26.8102 62.9513 27.1208 62.9036 27.3598 62.7844C27.6465 62.6176 28.0288 62.1408 28.3394 61.4734C28.435 61.4019 28.6979 61.4496 28.6979 61.5449C28.6979 61.6879 28.2916 63.0466 28.0766 63.4042C27.3359 63.3803 25.9261 63.3565 24.4208 63.3565H23.0588C22.4375 63.3565 21.9835 63.3803 21.1472 63.4042C21.0517 63.3565 21.0278 63.1419 21.1233 63.0704L21.5534 63.0228C22.4136 62.9513 22.4375 62.7606 22.4375 61.3542V56.5632Z" fill="white"/>
<path d="M19.3805 59.304C19.3805 57.1111 18.353 54.7275 15.6769 54.7275C14.2193 54.7275 12.3316 55.6809 12.3316 58.5889C12.3316 60.5673 13.3352 63.1178 16.107 63.1178C17.7796 63.1178 19.3805 61.926 19.3805 59.304ZM10.9219 59.018C10.9219 56.3483 13.0246 54.3223 15.9158 54.3223C19.1654 54.3223 20.7902 56.539 20.7902 58.8988C20.7902 61.5923 18.6398 63.5468 15.9158 63.5468C12.8095 63.523 10.9219 61.4016 10.9219 59.018Z" fill="white"/>
<path d="M2.05492 53.7981C3.22574 52.8923 4.73108 52.4395 6.42758 52.4395C7.31167 52.4395 8.53029 52.6063 9.29491 52.8208C9.48606 52.8685 9.60553 52.8923 9.7489 52.8923C9.77279 53.2737 9.84448 54.2748 9.96395 55.2521C9.89226 55.3713 9.62943 55.3713 9.53385 55.276C9.29491 54.1795 8.55418 52.9162 6.21253 52.9162C3.72752 52.9162 1.62482 54.4655 1.62482 57.8026C1.62482 61.1873 3.77531 63.0465 6.42758 63.0465C8.50639 63.0465 9.43827 61.6879 9.82058 60.7344C9.94005 60.6629 10.179 60.6868 10.2507 60.8059C10.1312 61.6402 9.725 62.7128 9.46217 62.9989C9.27101 63.0227 9.07986 63.0942 8.8887 63.1657C8.53029 63.2849 7.35946 63.5471 6.33201 63.5471C4.87445 63.5471 3.48858 63.2611 2.29386 62.4745C1.00356 61.5925 0 60.1147 0 58.0409C0.0238944 56.2771 0.836303 54.7516 2.05492 53.7981Z" fill="white"/>
<path d="M58.5895 46.5285C57.8965 46.5285 57.8726 46.5523 57.8726 46.9575V48.8406C57.8726 50.2469 57.9443 50.4376 58.7567 50.5091L59.1629 50.5568C59.2585 50.6044 59.2107 50.8428 59.139 50.8905C58.3744 50.8666 57.8726 50.8428 57.3231 50.8428C56.7018 50.8428 56.2239 50.8666 55.6505 50.8905C55.5549 50.8428 55.531 50.6283 55.6266 50.5568L55.8655 50.5091C56.6779 50.3661 56.7018 50.2469 56.7018 48.8406V44.0495C56.7018 42.6432 56.6062 42.4287 55.8655 42.381L55.4832 42.3571C55.3876 42.3095 55.4354 42.0711 55.5071 42.0234C56.2 42.0473 56.7018 42.0711 57.3231 42.0711C57.8726 42.0711 58.3744 42.0473 58.9957 42.0234C59.0913 42.0711 59.1152 42.3095 59.0196 42.3571L58.7567 42.381C57.9204 42.4525 57.8965 42.667 57.8965 44.0495V45.575C57.8965 45.9802 57.9204 46.0041 58.6134 46.0041H62.7232C63.4161 46.0041 63.44 45.9802 63.44 45.575V44.0495C63.44 42.6432 63.4161 42.4525 62.5559 42.381L62.2931 42.3571C62.1975 42.3095 62.2453 42.0711 62.317 42.0234C62.986 42.0473 63.4639 42.0711 64.0613 42.0711C64.6109 42.0711 65.1126 42.0473 65.7578 42.0234C65.8534 42.0711 65.8773 42.3095 65.7817 42.3571L65.4711 42.381C64.6348 42.4525 64.6109 42.667 64.6109 44.0495V48.8406C64.6109 50.2469 64.6348 50.4138 65.4711 50.5091L65.8056 50.5568C65.9012 50.6044 65.8534 50.8428 65.7817 50.8905C65.0888 50.8666 64.6109 50.8428 64.0374 50.8428C63.44 50.8428 62.9383 50.8666 62.2931 50.8905C62.1975 50.8428 62.1736 50.6283 62.2692 50.5568L62.5321 50.5091C63.4161 50.3661 63.4161 50.2469 63.4161 48.8406V46.9575C63.4161 46.5523 63.3922 46.5285 62.6993 46.5285H58.5895Z" fill="white"/>
<path d="M50.6568 51.0088C49.3427 51.0088 48.5064 50.6512 48.1957 50.5082C48.0046 50.2222 47.8134 49.2687 47.7656 48.649C47.8373 48.5536 48.0762 48.5298 48.1479 48.6013C48.3869 49.2926 49.032 50.5797 50.848 50.5797C52.1622 50.5797 52.8073 49.8408 52.8073 49.0542C52.8073 48.4583 52.664 47.8147 51.517 47.195L50.0117 46.3607C49.2232 45.9317 48.3152 45.1689 48.3152 44.0724C48.3152 42.8091 49.486 41.7842 51.5409 41.7842C52.0188 41.7842 52.5923 41.8557 52.9985 41.951C53.2135 41.9987 53.4286 42.0225 53.5481 42.0225C53.6914 42.3324 53.8348 43.0952 53.8348 43.6434C53.7631 43.7149 53.5242 43.7626 53.4286 43.6911C53.2135 43.0475 52.8073 42.1894 51.2781 42.1894C49.725 42.1894 49.3904 43.0475 49.3904 43.6672C49.3904 44.43 50.1551 45.0021 50.7285 45.3119L51.9949 45.9793C52.9985 46.5037 53.9543 47.2665 53.9543 48.5298C54.0021 50.0076 52.7118 51.0088 50.6568 51.0088Z" fill="white"/>
<path d="M44.0147 44.0728C44.0147 42.6664 43.9909 42.4281 43.1068 42.3566L42.7483 42.3327C42.6528 42.2851 42.7006 42.0467 42.7722 41.999C43.513 42.0229 44.0147 42.0467 44.636 42.0467C45.2334 42.0467 45.7351 42.0229 46.4759 41.999C46.5714 42.0467 46.5953 42.2851 46.4998 42.3327L46.1175 42.3566C45.2334 42.4281 45.2095 42.6426 45.2095 44.0728V48.8162C45.2095 50.2225 45.2334 50.4132 46.1175 50.5085L46.4998 50.5562C46.5953 50.6039 46.5476 50.8422 46.4759 50.8899C45.7351 50.8661 45.2334 50.8422 44.636 50.8422C44.0147 50.8422 43.513 50.8661 42.7722 50.8899C42.6767 50.8422 42.6528 50.6277 42.7483 50.5562L43.1068 50.5085C43.9909 50.4132 44.0147 50.2225 44.0147 48.8162V44.0728Z" fill="white"/>
<path d="M38.0408 48.8403C38.0408 50.2466 38.0647 50.4373 38.8771 50.5088L39.3311 50.5565C39.4028 50.6042 39.3789 50.8425 39.3072 50.8902C38.5187 50.8663 38.0408 50.8425 37.4912 50.8425C36.9417 50.8425 36.4399 50.8663 35.5558 50.8902C35.4841 50.8425 35.4363 50.628 35.5558 50.5565L36.0576 50.5088C36.8461 50.4373 36.9178 50.2466 36.9178 48.8403V42.8813C36.9178 42.476 36.9178 42.4522 36.5116 42.4522H35.7469C35.1496 42.4522 34.385 42.476 34.0265 42.7859C33.692 43.0719 33.5487 43.3818 33.4053 43.7155C33.2858 43.787 33.0947 43.7394 33.0469 43.6202C33.2619 43.0243 33.477 42.1662 33.5725 41.6418C33.6203 41.6179 33.7876 41.5941 33.8354 41.6418C33.9071 42.0708 34.385 42.047 35.0062 42.047H40.6453C41.386 42.047 41.5294 42.0232 41.7205 41.6656C41.7922 41.6418 41.9356 41.6418 41.9595 41.7133C41.8161 42.2615 41.7205 43.3341 41.7444 43.7394C41.6966 43.8347 41.4577 43.8347 41.386 43.7632C41.3382 43.4295 41.2426 42.9289 41.0276 42.7859C40.717 42.5476 40.1913 42.4522 39.4267 42.4522H38.447C38.0408 42.4522 38.0408 42.476 38.0408 42.9051V48.8403Z" fill="white"/>
<path d="M29.8199 44.0728C29.8199 42.6664 29.796 42.4281 28.9119 42.3566L28.5296 42.3327C28.434 42.2851 28.4818 42.0467 28.5535 41.999C29.2942 42.0229 29.796 42.0467 30.4173 42.0467C31.0146 42.0467 31.5164 42.0229 32.2571 41.999C32.3527 42.0467 32.3766 42.2851 32.281 42.3327L31.8987 42.3566C31.0146 42.4281 30.9907 42.6426 30.9907 44.0728V48.8162C30.9907 50.2225 31.0146 50.4132 31.8987 50.5085L32.281 50.5562C32.3766 50.6039 32.3288 50.8422 32.2571 50.8899C31.5164 50.8661 31.0146 50.8422 30.4173 50.8422C29.796 50.8422 29.2942 50.8661 28.5535 50.8899C28.4579 50.8422 28.434 50.6277 28.5296 50.5562L28.9119 50.5085C29.796 50.4132 29.8199 50.2225 29.8199 48.8162V44.0728Z" fill="white"/>
<path d="M22.151 46.1706C21.8882 46.1706 21.3386 46.2659 21.3386 45.9084V43.3579C21.3386 42.3568 21.3625 42.2138 22.5811 42.2138C23.9909 42.2138 24.8511 42.9289 24.8511 44.2398C24.8511 44.8119 24.636 45.3363 24.1343 45.6938C23.5369 46.1229 22.8917 46.1706 22.151 46.1706ZM27.5511 50.5564L27.1688 50.5326C27.0972 50.5326 27.0255 50.5087 26.9538 50.5087C26.4042 50.4134 26.1892 49.9367 25.9502 49.4838L24.6599 47.267C24.4449 46.8856 24.2059 46.3851 23.7042 46.3136C25.0183 46.1467 26.2131 45.4078 26.2131 44.0968C26.2131 42.5951 24.7316 41.9277 23.2263 41.9277C22.3183 41.9277 21.5059 41.9516 20.574 41.9516C20.0722 41.9516 19.4748 41.9277 18.9492 41.9277C18.6624 41.9277 18.6624 41.9754 18.6624 42.1423C18.6624 42.3806 18.758 42.3091 19.0686 42.3329C20.1439 42.4045 20.0961 42.5951 20.0961 43.5009V49.3408C20.0961 50.175 20.1678 50.4372 19.2837 50.5087C19.2837 50.5087 19.1403 50.5326 19.0686 50.5326L18.6863 50.5802C18.5908 50.6518 18.6385 50.8663 18.7102 50.914C18.9014 50.914 19.2598 50.8901 19.2598 50.8901C19.7377 50.8663 20.2395 50.8424 20.7174 50.8424C21.1952 50.8424 21.6731 50.8901 22.151 50.8901C22.3183 50.8901 22.5094 50.8901 22.7006 50.914C22.7962 50.8663 22.8201 50.6518 22.7245 50.5802L22.3422 50.5326C22.2705 50.5326 22.1271 50.5087 22.1271 50.5087C21.243 50.4611 21.2908 50.1989 21.2908 49.3408V47.1478C21.2908 47.0287 21.2669 46.6711 21.3625 46.5758C21.4342 46.4804 21.5776 46.5043 21.7209 46.5043C22.9156 46.5043 22.9156 46.6234 23.4891 47.6246L25.0422 50.4134C25.1617 50.6279 25.2573 50.8901 25.5918 50.8901H26.9299C27.0972 50.8901 27.2883 50.8901 27.4795 50.914C27.6228 50.8424 27.6467 50.6279 27.5511 50.5564Z" fill="white"/>
<path d="M11.7085 48.2208C11.7085 48.7928 11.7324 49.5794 12.0669 49.9131C12.4014 50.2707 12.9271 50.3422 13.4289 50.3422C14.982 50.3422 16.1529 49.7224 16.1529 48.1493C16.1529 46.9098 15.4599 45.4796 12.6882 45.4796C11.7563 45.4796 11.6846 45.575 11.6846 45.8848V48.2208H11.7085ZM11.7085 44.5977C11.7085 45.0267 11.7324 45.0744 12.6165 45.0267C14.3847 44.9552 15.3404 44.5023 15.3404 43.0245C15.3404 41.499 14.074 40.9269 12.7599 40.9269C12.3775 40.9269 12.1147 40.9508 11.9713 41.0223C11.8041 41.0699 11.7324 41.1414 11.7324 41.4275V44.5977H11.7085ZM10.2987 42.5239C10.2987 41.3798 10.2271 41.0699 9.43854 40.9984L8.88897 40.9508C8.79339 40.8792 8.81729 40.5694 8.91286 40.5694C9.84474 40.474 11.0395 40.4502 12.6404 40.4502C13.7395 40.4502 14.767 40.5217 15.5555 40.8792C16.2962 41.213 16.8697 41.8327 16.8697 42.8338C16.8697 43.9541 16.1529 44.5262 15.1015 44.9791C15.1015 45.1459 15.2449 45.1936 15.436 45.2174C16.3679 45.3843 17.7538 46.147 17.7538 47.8156C17.7538 49.6271 16.2723 50.8427 13.1422 50.8427C12.6404 50.8427 11.7802 50.7951 11.0634 50.7951C10.2987 50.7951 9.70138 50.8189 9.05623 50.8427C8.96065 50.7951 8.91286 50.5567 9.03234 50.4614L9.34296 50.4137C10.2509 50.2707 10.2987 50.1038 10.2987 48.4591V42.5239Z" fill="white"/>
<path d="M16.4407 32.6793C25.8312 32.6793 38.8298 37.947 48.2441 37.947C54.9823 37.947 61.5294 36.1593 65.2808 33.5135C65.5436 31.9642 65.687 30.3671 65.687 28.7463C65.687 12.9906 52.8796 0.238281 37.1094 0.238281C21.3152 0.238281 8.50781 13.0144 8.50781 28.7463C8.50781 30.3433 8.65118 31.9165 8.89012 33.442C9.91758 33.2752 13.43 32.6793 16.4407 32.6793Z" fill="white"/>
<path d="M55.5547 22.2149L56.6777 22.6916L59.1866 20.9277L55.5547 22.2149Z" fill="#FDB913"/>
<path d="M13.4563 20.2607L10.4934 19.2119L10.6367 18.8544L13.982 19.9747H14.0058L14.4359 19.7363L14.6032 19.6171L10.9474 18.0678L11.0907 17.6864L19.2387 20.9758L19.5015 20.8566L11.4491 16.9236L11.6403 16.5661L20.1945 20.5467L20.314 20.4752L11.9987 15.7795L12.166 15.422L24.161 21.9292C24.2565 21.7385 24.4716 21.4287 24.5672 21.238C20.0033 16.9713 15.6068 13.7534 15.6068 13.7534C15.6068 13.7534 20.1228 16.7806 25.7141 19.5695C25.9052 19.3311 26.0486 19.1642 26.2398 18.9259L16.013 9.98734L16.2758 9.7013L24.5194 16.7091L16.8732 9.08156L17.1599 8.79553L25.738 17.0667L17.7812 8.19963L18.0918 7.91359L25.4751 15.8034L18.7369 7.34153L19.0237 7.07933L27.6495 17.5672C27.8646 17.3765 28.0557 17.2335 28.2947 17.0428C25.6902 11.3937 22.8229 6.81713 22.8229 6.81713C22.8229 6.81713 25.8575 11.2745 29.9673 15.9464C30.2062 15.8034 30.4691 15.6603 30.7319 15.5412L30.6841 15.5173L24.6388 3.48007L24.9973 3.31322L30.0151 12.8953L25.7858 2.95568L26.1681 2.78883L31.0186 13.6581L26.9327 2.47896L27.315 2.33594L31.2098 12.4186L28.1274 2.04991L28.4858 1.90689L32.524 14.7784V14.8022C32.7868 14.7069 33.0735 14.6354 33.3364 14.5639C33.0258 8.39032 32.1178 3.0987 32.1178 3.0987C32.1178 3.0987 33.2408 8.34264 35.2957 14.1825C35.5825 14.1587 35.8692 14.111 36.1559 14.0871V14.0633H36.1798L36.1559 14.0395L35.0807 0.595903H35.463L36.5143 11.346L36.3471 0.572067L36.7533 0.548231L37.1595 12.4425L37.5657 0.548231L37.9719 0.572067L37.7807 11.3698L38.8321 0.619739H39.2144L38.163 14.0633L38.1392 14.0871H38.163C38.4498 14.111 38.7126 14.1348 38.9994 14.1587C41.0304 8.34264 42.1534 3.0987 42.1534 3.0987C42.1534 3.0987 41.2454 8.36648 40.9348 14.54C41.2215 14.6115 41.4844 14.6831 41.7472 14.7784L45.7615 1.95456L46.1199 2.09758L43.0614 12.4663L46.9562 2.40745L47.3385 2.55047L43.2764 13.7296L48.127 2.86033L48.5093 3.02719L44.28 12.9669L49.2978 3.38473L49.6562 3.55158L43.6349 15.565C43.8738 15.6842 44.1366 15.8034 44.3756 15.9464C48.4615 11.2983 51.4722 6.8648 51.4722 6.8648C51.4722 6.8648 48.6288 11.4175 46.0243 17.0428C46.2632 17.2097 46.4783 17.4004 46.7172 17.5911L55.2475 7.22235L55.5342 7.48454L48.796 15.9464L56.1794 8.00894L56.49 8.29497L48.5093 17.1382L57.0874 8.86704L57.3741 9.15307L49.7279 16.7806L57.9715 9.77281L58.2343 10.0588L48.127 18.9259C48.2943 19.1166 48.4854 19.3311 48.6288 19.5218C54.1723 16.733 58.6405 13.7296 58.6405 13.7296C58.6405 13.7296 54.3395 16.9236 49.7996 21.1665C49.9191 21.381 50.1341 21.7147 50.2297 21.9292L62.0335 15.5173L62.2008 15.8749L52.8103 21.2141L62.607 16.6615L62.7981 17.019L53.6705 21.4525L53.8377 21.524L63.1327 17.7817L63.2999 18.1631L54.6502 21.8339L54.8174 21.9054L60.576 19.9985L61.4362 19.4026L61.7229 19.6171L63.6105 18.9974L63.7539 19.3549L62.1052 19.927L64.4707 21.7385L65.2354 22.1676C62.2008 9.43911 50.7554 0 37.0878 0C23.1813 0 11.5925 9.77281 8.79688 22.8112C8.84466 22.7873 8.86856 22.7873 8.89245 22.7635L9.25087 22.5966L9.46592 22.5013L13.4563 20.2607Z" fill="#FCBA19"/>
<path d="M8.62678 34.1331C8.62678 34.1331 12.9039 33.275 16.4641 33.275C25.8546 33.275 38.8531 38.5428 48.2675 38.5428C55.173 38.5428 61.9351 36.6597 65.5909 33.8947C65.8777 32.2739 66.021 30.5815 66.021 28.8653C66.021 26.5532 65.7343 24.2888 65.2325 22.1197L61.3138 19.9268L56.7022 23.1446L53.596 21.929C52.5446 22.4534 46.0692 26.7916 46.0692 26.7916L43.5842 25.0039L40.9081 24.4795L37.3478 21.9052L33.2619 24.694C33.2619 24.694 28.698 27.3398 28.5547 27.3398C28.3874 27.3398 23.059 23.1208 23.059 23.1208L20.6217 20.5465C20.1916 20.8087 18.519 21.5715 18.519 21.5715L18.4235 21.5953L16.7987 21.0947L14.8393 20.0459L8.86572 22.7394C8.84183 22.7633 8.79404 22.7633 8.77015 22.7871C8.34005 24.7417 8.125 26.7677 8.125 28.8653C8.14889 30.6768 8.31615 32.4169 8.62678 34.1331Z" fill="#4B6EA7"/>
<rect x="221.938" y="41.7656" width="63.8477" height="22.0566" rx="11.0283" fill="#FCBA19"/>
<path d="M236.605 47.797H239.713C242.359 47.797 243.759 48.441 243.759 50.331C243.759 51.465 243.227 52.319 242.219 52.487V52.557C243.213 52.781 244.011 53.313 244.011 54.895C244.011 56.701 242.583 57.793 240.343 57.793H236.605V47.797ZM238.719 51.759H239.951C241.183 51.759 241.589 51.395 241.589 50.611C241.589 49.827 241.071 49.533 239.839 49.533H238.719V51.759ZM240.035 53.439H238.719V56.043H240.105C241.379 56.043 241.813 55.511 241.813 54.685C241.813 53.943 241.379 53.439 240.035 53.439ZM247.011 57.793V47.797H252.765V49.533H249.125V51.731H252.513V53.467H249.125V56.043H252.765V57.793H247.011ZM257.581 49.561H254.865V47.797H262.411V49.561H259.695V57.793H257.581V49.561ZM264.99 57.793H262.708L266.236 47.755H268.826L272.368 57.793H270.086L269.358 55.413H265.718L264.99 57.793ZM266.964 51.311L266.25 53.635H268.854L268.126 51.311C267.972 50.849 267.692 49.855 267.538 49.309C267.51 49.435 267.468 49.603 267.412 49.799C267.398 49.841 267.398 49.869 267.384 49.911V49.925C267.37 49.967 267.37 49.995 267.356 50.023L267.342 50.051C267.328 50.121 267.3 50.205 267.286 50.275L267.272 50.289C267.258 50.331 267.258 50.359 267.244 50.387V50.401C267.132 50.807 267.02 51.157 266.964 51.311Z" fill="#003366"/>
</svg>
