<svg width="32" height="32" viewBox="0 0 32 32" fill="none" xmlns="http://www.w3.org/2000/svg">
<path d="M16 2.5C23.4558 2.5 29.5 8.54416 29.5 16C29.5 23.4558 23.4558 29.5 16 29.5C8.54416 29.5 2.5 23.4558 2.5 16C2.5 8.54416 8.54416 2.5 16 2.5Z" fill="#AA1D3E"/>
<path d="M16 2.5C23.4558 2.5 29.5 8.54416 29.5 16C29.5 23.4558 23.4558 29.5 16 29.5C8.54416 29.5 2.5 23.4558 2.5 16C2.5 8.54416 8.54416 2.5 16 2.5Z" stroke="#AA1D3E" stroke-width="5"/>
<path d="M20.3555 10.3461L20.1247 10.6923C19.4901 11.4423 18.9132 11.6731 18.1055 11.6731C16.7785 11.6731 15.7401 10.6346 15.7401 9.25V6.25C15.7401 6.25 7.60547 10.4615 7.60547 17.4023C7.60547 22.0922 11.5286 25.75 15.9132 25.75C20.6868 25.75 24.3362 21.8846 24.3939 17.6154C24.4321 14.7887 22.9367 11.8104 20.3555 10.3461ZM15.9708 24.0769C14.7828 24.0769 13.6055 23.2115 13.6055 21.7692C13.6055 20.8758 14.0028 20.4311 14.4132 20.0385L15.9708 18.4808L17.817 20.2692C18.2166 20.6618 18.3939 21.3077 18.3939 21.9423C18.3939 22.9231 17.4132 24.0769 15.9708 24.0769ZM19.8939 22.8654C19.9371 22.4834 20.4865 20.5843 19.0285 19.1731L15.957 16.2308L12.9709 19.1731C11.5021 20.5949 12.0046 22.5046 12.0478 22.8654C11.4132 22.4038 10.2593 21.1923 9.85547 20.1538C9.4755 19.3304 9.22077 18.3065 9.22085 17.4023C9.22085 13.75 12.3362 10.4615 14.067 9.30769C14.067 10.3461 14.5999 11.5559 15.3939 12.25C16.188 12.9441 17.0426 13.2869 18.1055 13.2885C18.9479 13.2885 19.8373 12.9947 20.5285 12.5385C21.9132 13.6923 22.7215 15.6506 22.7208 17.3846C22.7785 19.8654 21.3939 21.8269 19.8939 22.8654Z" fill="white"/>
</svg>
