<svg width="45" height="46" viewBox="0 0 45 46" fill="none" xmlns="http://www.w3.org/2000/svg">
<path d="M22.5 1C34.3741 1 44 10.6259 44 22.5V23.5C44 35.3741 34.3741 45 22.5 45C10.6259 45 1 35.3741 1 23.5V22.5C1 10.6259 10.6259 1 22.5 1Z" fill="#AA1E3E"/>
<path d="M22.5 1C34.3741 1 44 10.6259 44 22.5V23.5C44 35.3741 34.3741 45 22.5 45C10.6259 45 1 35.3741 1 23.5V22.5C1 10.6259 10.6259 1 22.5 1Z" stroke="white" stroke-width="2"/>
<path d="M28.753 14.8817L28.4216 15.3787C27.5104 16.4556 26.682 16.787 25.5223 16.787C23.6169 16.787 22.1258 15.2959 22.1258 13.3077V9C22.1258 9 10.4453 15.0473 10.4453 25.0136C10.4453 31.7478 16.0785 37 22.3744 37C29.2288 37 34.4689 31.4497 34.5518 25.3195C34.6066 21.2607 32.4594 16.9842 28.753 14.8817ZM22.4571 34.5976C20.7513 34.5976 19.0608 33.355 19.0608 31.284C19.0608 30.0011 19.6313 29.3626 20.2205 28.7989L22.4571 26.5622L25.108 29.1301C25.6818 29.6939 25.9364 30.6213 25.9364 31.5325C25.9364 32.9409 24.5282 34.5976 22.4571 34.5976ZM28.0902 32.858C28.1523 32.3095 28.9411 29.5826 26.8476 27.5562L22.4373 23.3314L18.1495 27.5562C16.0404 29.5978 16.762 32.3399 16.824 32.858C15.9128 32.1952 14.256 30.4556 13.6761 28.9644C13.1305 27.7821 12.7647 26.3119 12.7648 25.0136C12.7648 19.7692 17.2382 15.0473 19.7234 13.3905C19.7234 14.8817 20.4886 16.6187 21.6287 17.6154C22.769 18.612 23.9961 19.1043 25.5223 19.1065C26.7319 19.1065 28.009 18.6847 29.0015 18.0296C30.9897 19.6864 32.1504 22.4983 32.1494 24.9881C32.2322 28.5503 30.2441 31.3668 28.0902 32.858Z" fill="white"/>
</svg>
