<svg width="49" height="50" viewBox="0 0 49 50" fill="none" xmlns="http://www.w3.org/2000/svg">
<path d="M2 24.5C2 12.0736 12.0736 2 24.5 2V2C36.9264 2 47 12.0736 47 24.5V25.5C47 37.9264 36.9264 48 24.5 48V48C12.0736 48 2 37.9264 2 25.5V24.5Z" fill="#AA1E3E"/>
<path d="M2 24.5C2 12.0736 12.0736 2 24.5 2V2C36.9264 2 47 12.0736 47 24.5V25.5C47 37.9264 36.9264 48 24.5 48V48C12.0736 48 2 37.9264 2 25.5V24.5Z" stroke="#1A1A1A" stroke-width="4"/>
<path d="M30.753 16.8817L30.4216 17.3787C29.5104 18.4556 28.682 18.787 27.5223 18.787C25.6169 18.787 24.1258 17.2959 24.1258 15.3077V11C24.1258 11 12.4453 17.0473 12.4453 27.0136C12.4453 33.7478 18.0785 39 24.3744 39C31.2288 39 36.4689 33.4497 36.5518 27.3195C36.6066 23.2607 34.4594 18.9842 30.753 16.8817ZM24.4571 36.5976C22.7513 36.5976 21.0608 35.355 21.0608 33.284C21.0608 32.0011 21.6313 31.3626 22.2205 30.7989L24.4571 28.5622L27.108 31.1301C27.6818 31.6939 27.9364 32.6213 27.9364 33.5325C27.9364 34.9409 26.5282 36.5976 24.4571 36.5976ZM30.0902 34.858C30.1523 34.3095 30.9411 31.5826 28.8476 29.5562L24.4373 25.3314L20.1495 29.5562C18.0404 31.5978 18.762 34.3399 18.824 34.858C17.9128 34.1952 16.256 32.4556 15.6761 30.9644C15.1305 29.7821 14.7647 28.3119 14.7648 27.0136C14.7648 21.7692 19.2382 17.0473 21.7234 15.3905C21.7234 16.8817 22.4886 18.6187 23.6287 19.6154C24.769 20.612 25.9961 21.1043 27.5223 21.1065C28.7319 21.1065 30.009 20.6847 31.0015 20.0296C32.9897 21.6864 34.1504 24.4983 34.1494 26.9881C34.2322 30.5503 32.2441 33.3668 30.0902 34.858Z" fill="white"/>
</svg>
